.SFNSText-Regular.ufo
<glyph name="numbersign" format="2">
  <advance width="515"/>
  <unicode hex="0023"/>
  <outline>
    <contour>
      <point x="452" y="668" type="line"/>
      <point x="379" y="668" type="line"/>
      <point x="291" y="0" type="line"/>
      <point x="364" y="0" type="line"/>
    </contour>
    <contour>
      <point x="463" y="231" type="line"/>
      <point x="15" y="231" type="line"/>
      <point x="15" y="167" type="line"/>
      <point x="463" y="167" type="line"/>
    </contour>
    <contour>
      <point x="219" y="668" type="line"/>
      <point x="147" y="668" type="line"/>
      <point x="59" y="0" type="line"/>
      <point x="131" y="0" type="line"/>
    </contour>
    <contour>
      <point x="500" y="513" type="line"/>
      <point x="52" y="513" type="line"/>
      <point x="52" y="448" type="line"/>
      <point x="500" y="448" type="line"/>
    </contour>
  </outline>
</glyph>
<glyph name="ampersand" format="2">
  <advance width="758"/>
  <unicode hex="0026"/>
  <outline>
    <contour>
      <point x="302" y="700" type="curve" smooth="yes"/>
      <point x="189" y="700"/>
      <point x="125" y="632"/>
      <point x="125" y="545" type="curve" smooth="yes"/>
      <point x="125" y="476"/>
      <point x="163" y="431"/>
      <point x="224" y="373" type="curve"/>
      <point x="138" y="319"/>
      <point x="83" y="262"/>
      <point x="83" y="174" type="curve" smooth="yes"/>
      <point x="83" y="61"/>
      <point x="175" y="-12"/>
      <point x="304" y="-12" type="curve" smooth="yes"/>
      <point x="401" y="-12"/>
      <point x="470" y="23"/>
      <point x="525" y="85" type="curve"/>
      <point x="626" y="-12" type="line"/>
      <point x="687" y="37" type="line"/>
      <point x="572" y="144" type="line"/>
      <point x="605" y="197"/>
      <point x="635" y="262"/>
      <point x="660" y="345" type="curve"/>
      <point x="581" y="367" type="line"/>
      <point x="566" y="300"/>
      <point x="544" y="243"/>
      <point x="520" y="193" type="curve"/>
      <point x="337" y="365" type="line"/>
      <point x="417" y="412"/>
      <point x="481" y="464"/>
      <point x="481" y="549" type="curve" smooth="yes"/>
      <point x="481" y="636"/>
      <point x="408" y="700"/>
    </contour>
    <contour>
      <point x="272" y="327" type="curve"/>
      <point x="476" y="132" type="line"/>
      <point x="431" y="83"/>
      <point x="381" y="55"/>
      <point x="313" y="55" type="curve" smooth="yes"/>
      <point x="229" y="55"/>
      <point x="169" y="101"/>
      <point x="169" y="177" type="curve" smooth="yes"/>
      <point x="169" y="238"/>
      <point x="203" y="283"/>
    </contour>
    <contour>
      <point x="303" y="637" type="curve" smooth="yes"/>
      <point x="360" y="637"/>
      <point x="398" y="603"/>
      <point x="398" y="544" type="curve" smooth="yes"/>
      <point x="398" y="490"/>
      <point x="357" y="451"/>
      <point x="289" y="411" type="curve"/>
      <point x="236" y="461"/>
      <point x="208" y="495"/>
      <point x="208" y="546" type="curve" smooth="yes"/>
      <point x="208" y="598"/>
      <point x="242" y="637"/>
    </contour>
  </outline>
</glyph>
<glyph name="quotesingle" format="2">
  <advance width="216"/>
  <unicode hex="0027"/>
  <outline>
    <contour>
      <point x="76" y="429" type="line"/>
      <point x="139" y="429" type="line"/>
      <point x="153" y="688" type="line"/>
      <point x="63" y="688" type="line"/>
    </contour>
  </outline>
</glyph>
<glyph name="parenleft" format="2">
  <advance width="324"/>
  <unicode hex="0028"/>
  <outline>
    <contour>
      <point x="228" y="843" type="line"/>
      <point x="130" y="705"/>
      <point x="43" y="586"/>
      <point x="43" y="350" type="curve"/>
      <point x="43" y="114"/>
      <point x="130" y="-5"/>
      <point x="228" y="-143" type="curve"/>
      <point x="281" y="-107" type="line"/>
      <point x="191" y="26"/>
      <point x="131" y="135"/>
      <point x="131" y="350" type="curve"/>
      <point x="131" y="566"/>
      <point x="191" y="674"/>
      <point x="281" y="807" type="curve"/>
    </contour>
  </outline>
</glyph>
<glyph name="parenright" format="2">
  <advance width="324"/>
  <unicode hex="0029"/>
  <outline>
    <contour>
      <point x="96" y="843" type="curve"/>
      <point x="43" y="807" type="line"/>
      <point x="133" y="674"/>
      <point x="193" y="566"/>
      <point x="193" y="350" type="curve"/>
      <point x="193" y="135"/>
      <point x="133" y="26"/>
      <point x="43" y="-107" type="curve"/>
      <point x="96" y="-143" type="line"/>
      <point x="194" y="-5"/>
      <point x="281" y="114"/>
      <point x="281" y="350" type="curve"/>
      <point x="281" y="586"/>
      <point x="194" y="705"/>
    </contour>
  </outline>
</glyph>
<glyph name="asterisk" format="2">
  <advance width="438"/>
  <unicode hex="002A"/>
  <outline>
    <contour>
      <point x="219" y="545" type="line"/>
      <point x="212" y="510" type="line"/>
      <point x="299" y="365" type="line"/>
      <point x="365" y="414" type="line"/>
      <point x="255" y="540" type="line"/>
    </contour>
    <contour>
      <point x="260" y="738" type="line"/>
      <point x="178" y="738" type="line"/>
      <point x="192" y="569" type="line"/>
      <point x="219" y="545" type="line"/>
      <point x="246" y="569" type="line"/>
    </contour>
    <contour>
      <point x="389" y="642" type="line"/>
      <point x="236" y="576" type="line"/>
      <point x="219" y="545" type="line"/>
      <point x="251" y="528" type="line"/>
      <point x="415" y="566" type="line"/>
    </contour>
    <contour>
      <point x="48" y="641" type="line"/>
      <point x="23" y="566" type="line"/>
      <point x="186" y="528" type="line"/>
      <point x="219" y="545" type="line"/>
      <point x="203" y="575" type="line"/>
    </contour>
    <contour>
      <point x="219" y="545" type="line"/>
      <point x="183" y="540" type="line"/>
      <point x="73" y="413" type="line"/>
      <point x="139" y="365" type="line"/>
      <point x="225" y="509" type="line"/>
    </contour>
  </outline>
</glyph>
<glyph name="plus" format="2">
  <advance width="498"/>
  <unicode hex="002B"/>
  <outline>
    <contour>
      <point x="287" y="516" type="line"/>
      <point x="210" y="516" type="line"/>
      <point x="210" y="366" type="line"/>
      <point x="64" y="366" type="line"/>
      <point x="64" y="296" type="line"/>
      <point x="210" y="296" type="line"/>
      <point x="210" y="146" type="line"/>
      <point x="287" y="146" type="line"/>
      <point x="287" y="296" type="line"/>
      <point x="434" y="296" type="line"/>
      <point x="434" y="366" type="line"/>
      <point x="287" y="366" type="line"/>
    </contour>
  </outline>
</glyph>
<glyph name="comma" format="2">
  <advance width="232"/>
  <unicode hex="002C"/>
  <outline>
    <contour>
      <point x="115" y="117" type="curve" smooth="yes"/>
      <point x="79" y="117"/>
      <point x="51" y="88"/>
      <point x="51" y="53" type="curve" smooth="yes"/>
      <point x="51" y="31"/>
      <point x="62" y="11"/>
      <point x="78" y="-1" type="curve"/>
      <point x="38" y="-163" type="line"/>
      <point x="98" y="-163" type="line"/>
      <point x="163" y="-14" type="line" smooth="yes"/>
      <point x="175" y="13"/>
      <point x="180" y="32"/>
      <point x="180" y="53" type="curve" smooth="yes"/>
      <point x="180" y="88"/>
      <point x="153" y="117"/>
    </contour>
  </outline>
</glyph>
<glyph name="period" format="2">
  <advance width="232"/>
  <unicode hex="002E"/>
  <outline>
    <contour>
      <point x="115" y="117" type="curve" smooth="yes"/>
      <point x="79" y="117"/>
      <point x="51" y="88"/>
      <point x="51" y="53" type="curve" smooth="yes"/>
      <point x="51" y="17"/>
      <point x="79" y="-12"/>
      <point x="115" y="-12" type="curve" smooth="yes"/>
      <point x="153" y="-12"/>
      <point x="180" y="17"/>
      <point x="180" y="53" type="curve" smooth="yes"/>
      <point x="180" y="88"/>
      <point x="153" y="117"/>
    </contour>
  </outline>
</glyph>
<glyph name="slash" format="2">
  <advance width="520"/>
  <unicode hex="002F"/>
  <outline>
    <contour>
      <point x="340" y="806" type="line"/>
      <point x="108" y="-86" type="line"/>
      <point x="181" y="-103" type="line"/>
      <point x="412" y="789" type="line"/>
    </contour>
  </outline>
</glyph>
<glyph name="one" format="2">
  <advance width="428"/>
  <unicode hex="0031"/>
  <outline>
    <contour>
      <point x="316" y="668" type="line"/>
      <point x="242" y="668" type="line"/>
      <point x="37" y="541" type="line"/>
      <point x="74" y="481" type="line"/>
      <point x="232" y="578" type="line"/>
      <point x="232" y="0" type="line"/>
      <point x="316" y="0" type="line"/>
    </contour>
  </outline>
</glyph>
<glyph name="two" format="2">
  <advance width="491"/>
  <unicode hex="0032"/>
  <outline>
    <contour>
      <point x="227" y="678" type="curve" smooth="yes"/>
      <point x="144" y="678"/>
      <point x="81" y="645"/>
      <point x="27" y="579" type="curve"/>
      <point x="84" y="535" type="line"/>
      <point x="126" y="585"/>
      <point x="165" y="609"/>
      <point x="223" y="609" type="curve" smooth="yes"/>
      <point x="290" y="609"/>
      <point x="336" y="566"/>
      <point x="336" y="493" type="curve" smooth="yes"/>
      <point x="336" y="382"/>
      <point x="278" y="317"/>
      <point x="40" y="67" type="curve"/>
      <point x="40" y="0" type="line"/>
      <point x="430" y="0" type="line"/>
      <point x="440" y="71" type="line"/>
      <point x="136" y="71" type="line"/>
      <point x="345" y="283"/>
      <point x="424" y="370"/>
      <point x="424" y="497" type="curve" smooth="yes"/>
      <point x="424" y="600"/>
      <point x="348" y="678"/>
    </contour>
  </outline>
</glyph>
<glyph name="four" format="2">
  <advance width="529"/>
  <unicode hex="0034"/>
  <outline>
    <contour>
      <point x="243" y="678" type="line"/>
      <point x="41" y="228" type="line"/>
      <point x="41" y="167" type="line"/>
      <point x="497" y="167" type="line"/>
      <point x="497" y="235" type="line"/>
      <point x="130" y="235" type="line"/>
      <point x="313" y="649" type="line"/>
    </contour>
    <contour>
      <point x="410" y="418" type="line"/>
      <point x="337" y="418" type="line"/>
      <point x="328" y="220" type="line"/>
      <point x="328" y="0" type="line"/>
      <point x="410" y="0" type="line"/>
    </contour>
  </outline>
</glyph>
<glyph name="five" format="2">
  <advance width="498"/>
  <unicode hex="0035"/>
  <outline>
    <contour>
      <point x="429" y="668" type="line"/>
      <point x="73" y="668" type="line"/>
      <point x="73" y="334" type="line"/>
      <point x="139" y="334" type="line"/>
      <point x="172" y="351"/>
      <point x="199" y="359"/>
      <point x="237" y="359" type="curve" smooth="yes"/>
      <point x="309" y="359"/>
      <point x="364" y="321"/>
      <point x="364" y="216" type="curve" smooth="yes"/>
      <point x="364" y="115"/>
      <point x="309" y="57"/>
      <point x="223" y="57" type="curve" smooth="yes"/>
      <point x="163" y="57"/>
      <point x="120" y="78"/>
      <point x="79" y="122" type="curve"/>
      <point x="28" y="72" type="line"/>
      <point x="79" y="20"/>
      <point x="139" y="-12"/>
      <point x="223" y="-12" type="curve" smooth="yes"/>
      <point x="361" y="-12"/>
      <point x="451" y="81"/>
      <point x="451" y="214" type="curve" smooth="yes"/>
      <point x="451" y="346"/>
      <point x="375" y="425"/>
      <point x="262" y="425" type="curve" smooth="yes"/>
      <point x="224" y="425"/>
      <point x="188" y="416"/>
      <point x="153" y="398" type="curve"/>
      <point x="153" y="602" type="line"/>
      <point x="417" y="602" type="line"/>
    </contour>
  </outline>
</glyph>
<glyph name="seven" format="2">
  <advance width="442"/>
  <unicode hex="0037"/>
  <outline>
    <contour>
      <point x="411" y="668" type="line"/>
      <point x="26" y="668" type="line"/>
      <point x="26" y="599" type="line"/>
      <point x="326" y="599" type="line"/>
      <point x="81" y="16" type="line"/>
      <point x="158" y="-9" type="line"/>
      <point x="411" y="605" type="line"/>
    </contour>
  </outline>
</glyph>
<glyph name="nine" format="2">
  <advance width="523"/>
  <unicode hex="0039"/>
  <outline>
    <contour>
      <point x="390" y="338" type="curve"/>
      <point x="394" y="412" type="line"/>
      <point x="359" y="350"/>
      <point x="312" y="311"/>
      <point x="248" y="311" type="curve" smooth="yes"/>
      <point x="180" y="311"/>
      <point x="132" y="358"/>
      <point x="132" y="456" type="curve" smooth="yes"/>
      <point x="132" y="555"/>
      <point x="179" y="611"/>
      <point x="260" y="611" type="curve" smooth="yes"/>
      <point x="350" y="611"/>
      <point x="391" y="545"/>
      <point x="385" y="380" type="curve"/>
      <point x="384" y="337" type="line"/>
      <point x="381" y="174"/>
      <point x="274" y="92"/>
      <point x="100" y="42" type="curve"/>
      <point x="120" y="-21" type="line"/>
      <point x="360" y="49"/>
      <point x="471" y="143"/>
      <point x="471" y="416" type="curve" smooth="yes"/>
      <point x="471" y="575"/>
      <point x="401" y="678"/>
      <point x="258" y="678" type="curve" smooth="yes"/>
      <point x="142" y="678"/>
      <point x="47" y="597"/>
      <point x="47" y="458" type="curve" smooth="yes"/>
      <point x="47" y="326"/>
      <point x="127" y="244"/>
      <point x="231" y="244" type="curve" smooth="yes"/>
      <point x="304" y="244"/>
      <point x="361" y="285"/>
    </contour>
  </outline>
</glyph>
<glyph name="less" format="2">
  <advance width="499"/>
  <unicode hex="003C"/>
  <outline>
    <contour>
      <point x="416" y="546" type="line"/>
      <point x="53" y="375" type="line"/>
      <point x="53" y="291" type="line"/>
      <point x="416" y="120" type="line"/>
      <point x="446" y="188" type="line"/>
      <point x="121" y="333" type="line"/>
      <point x="446" y="476" type="line"/>
    </contour>
  </outline>
</glyph>
<glyph name="greater" format="2">
  <advance width="499"/>
  <unicode hex="003E"/>
  <outline>
    <contour>
      <point x="84" y="546" type="line"/>
      <point x="53" y="476" type="line"/>
      <point x="378" y="333" type="line"/>
      <point x="53" y="188" type="line"/>
      <point x="84" y="120" type="line"/>
      <point x="446" y="291" type="line"/>
      <point x="446" y="375" type="line"/>
    </contour>
  </outline>
</glyph>
<glyph name="question" format="2">
  <advance width="456"/>
  <unicode hex="003F"/>
  <outline>
    <contour>
      <point x="237" y="700" type="curve" smooth="yes"/>
      <point x="155" y="700"/>
      <point x="89" y="668"/>
      <point x="33" y="602" type="curve"/>
      <point x="90" y="558" type="line"/>
      <point x="132" y="608"/>
      <point x="179" y="630"/>
      <point x="232" y="630" type="curve" smooth="yes"/>
      <point x="296" y="630"/>
      <point x="336" y="597"/>
      <point x="336" y="541" type="curve" smooth="yes"/>
      <point x="336" y="430"/>
      <point x="159" y="447"/>
      <point x="159" y="279" type="curve" smooth="yes"/>
      <point x="159" y="227" type="line"/>
      <point x="242" y="227" type="line"/>
      <point x="242" y="274" type="line" smooth="yes"/>
      <point x="242" y="409"/>
      <point x="424" y="388"/>
      <point x="424" y="546" type="curve" smooth="yes"/>
      <point x="424" y="626"/>
      <point x="359" y="700"/>
    </contour>
    <contour>
      <point x="203" y="117" type="curve" smooth="yes"/>
      <point x="167" y="117"/>
      <point x="139" y="88"/>
      <point x="139" y="53" type="curve" smooth="yes"/>
      <point x="139" y="17"/>
      <point x="167" y="-12"/>
      <point x="203" y="-12" type="curve" smooth="yes"/>
      <point x="241" y="-12"/>
      <point x="268" y="17"/>
      <point x="268" y="53" type="curve" smooth="yes"/>
      <point x="268" y="88"/>
      <point x="241" y="117"/>
    </contour>
  </outline>
</glyph>
<glyph name="at" format="2">
  <advance width="1020"/>
  <unicode hex="0040"/>
  <outline>
    <contour>
      <point x="526" y="700" type="curve" smooth="yes"/>
      <point x="256" y="700"/>
      <point x="73" y="499"/>
      <point x="73" y="241" type="curve" smooth="yes"/>
      <point x="73" y="-37"/>
      <point x="259" y="-211"/>
      <point x="525" y="-211" type="curve" smooth="yes"/>
      <point x="615" y="-211"/>
      <point x="675" y="-195"/>
      <point x="740" y="-173" type="curve"/>
      <point x="717" y="-108" type="line"/>
      <point x="663" y="-127"/>
      <point x="601" y="-141"/>
      <point x="526" y="-141" type="curve" smooth="yes"/>
      <point x="293" y="-141"/>
      <point x="158" y="15"/>
      <point x="158" y="241" type="curve" smooth="yes"/>
      <point x="158" y="462"/>
      <point x="299" y="630"/>
      <point x="526" y="630" type="curve" smooth="yes"/>
      <point x="745" y="630"/>
      <point x="862" y="498"/>
      <point x="862" y="305" type="curve" smooth="yes"/>
      <point x="862" y="142"/>
      <point x="819" y="75"/>
      <point x="752" y="75" type="curve" smooth="yes"/>
      <point x="707" y="75"/>
      <point x="680" y="105"/>
      <point x="680" y="192" type="curve"/>
      <point x="623" y="137" type="line"/>
      <point x="627" y="86"/>
      <point x="660" y="10"/>
      <point x="753" y="10" type="curve" smooth="yes"/>
      <point x="881" y="10"/>
      <point x="947" y="136"/>
      <point x="947" y="307" type="curve" smooth="yes"/>
      <point x="947" y="515"/>
      <point x="802" y="700"/>
    </contour>
    <contour>
      <point x="526" y="490" type="curve" smooth="yes"/>
      <point x="402" y="490"/>
      <point x="310" y="404"/>
      <point x="310" y="231" type="curve" smooth="yes"/>
      <point x="310" y="98"/>
      <point x="377" y="12"/>
      <point x="482" y="12" type="curve" smooth="yes"/>
      <point x="565" y="12"/>
      <point x="609" y="69"/>
      <point x="631" y="125" type="curve"/>
      <point x="607" y="172" type="line"/>
      <point x="596" y="141"/>
      <point x="567" y="74"/>
      <point x="492" y="74" type="curve" smooth="yes"/>
      <point x="428" y="74"/>
      <point x="392" y="128"/>
      <point x="392" y="231" type="curve" smooth="yes"/>
      <point x="392" y="361"/>
      <point x="439" y="429"/>
      <point x="528" y="429" type="curve" smooth="yes"/>
      <point x="560" y="429"/>
      <point x="582" y="423"/>
      <point x="604" y="413" type="curve"/>
      <point x="604" y="151" type="line"/>
      <point x="634" y="113" type="line"/>
      <point x="680" y="152" type="line"/>
      <point x="680" y="451" type="line"/>
      <point x="626" y="479"/>
      <point x="579" y="490"/>
    </contour>
  </outline>
</glyph>
<glyph name="A" format="2">
  <advance width="571"/>
  <unicode hex="0041"/>
  <anchor x="286" y="0" name="bottom"/>
  <anchor x="538" y="0" name="ogonek"/>
  <anchor x="286" y="688" name="top"/>
  <anchor x="170" y="688" name="topleft"/>
  <outline>
    <contour>
      <point x="341" y="688" type="line"/>
      <point x="231" y="688" type="line"/>
      <point x="8" y="0" type="line"/>
      <point x="96" y="0" type="line"/>
      <point x="284" y="616" type="line"/>
      <point x="471" y="0" type="line"/>
      <point x="563" y="0" type="line"/>
    </contour>
    <contour>
      <point x="410" y="247" type="line"/>
      <point x="157" y="247" type="line"/>
      <point x="136" y="176" type="line"/>
      <point x="432" y="176" type="line"/>
    </contour>
  </outline>
</glyph>
<glyph name="B" format="2">
  <advance width="606"/>
  <unicode hex="0042"/>
  <anchor x="310" y="0" name="bottom"/>
  <anchor x="300" y="688" name="top"/>
  <outline>
    <contour>
      <point x="263" y="688" type="curve" smooth="yes"/>
      <point x="103" y="688" type="line"/>
      <point x="103" y="0" type="line"/>
      <point x="292" y="0" type="line" smooth="yes"/>
      <point x="450" y="0"/>
      <point x="559" y="52"/>
      <point x="559" y="195" type="curve" smooth="yes"/>
      <point x="559" y="312"/>
      <point x="481" y="351"/>
      <point x="400" y="364" type="curve"/>
      <point x="468" y="378"/>
      <point x="528" y="429"/>
      <point x="528" y="515" type="curve" smooth="yes"/>
      <point x="528" y="634"/>
      <point x="430" y="688"/>
    </contour>
    <contour>
      <point x="272" y="619" type="line" smooth="yes"/>
      <point x="377" y="619"/>
      <point x="439" y="595"/>
      <point x="439" y="509" type="curve" smooth="yes"/>
      <point x="439" y="434"/>
      <point x="380" y="394"/>
      <point x="301" y="394" type="curve" smooth="yes"/>
      <point x="174" y="394" type="line"/>
      <point x="174" y="327" type="line"/>
      <point x="310" y="327" type="line" smooth="yes"/>
      <point x="395" y="327"/>
      <point x="467" y="293"/>
      <point x="467" y="195" type="curve" smooth="yes"/>
      <point x="467" y="94"/>
      <point x="395" y="70"/>
      <point x="292" y="70" type="curve" smooth="yes"/>
      <point x="189" y="70" type="line"/>
      <point x="189" y="619" type="line"/>
    </contour>
  </outline>
</glyph>
<glyph name="D" format="2">
  <advance width="641"/>
  <unicode hex="0044"/>
  <anchor x="300" y="0" name="bottom"/>
  <anchor x="322" y="344" name="center"/>
  <anchor x="302" y="688" name="top"/>
  <outline>
    <contour>
      <point x="245" y="688" type="curve" smooth="yes"/>
      <point x="103" y="688" type="line"/>
      <point x="103" y="0" type="line"/>
      <point x="263" y="0" type="line" smooth="yes"/>
      <point x="410" y="0"/>
      <point x="584" y="66"/>
      <point x="584" y="348" type="curve" smooth="yes"/>
      <point x="584" y="633"/>
      <point x="417" y="688"/>
    </contour>
    <contour>
      <point x="263" y="618" type="line" smooth="yes"/>
      <point x="375" y="618"/>
      <point x="491" y="585"/>
      <point x="491" y="348" type="curve" smooth="yes"/>
      <point x="491" y="117"/>
      <point x="380" y="69"/>
      <point x="270" y="69" type="curve" smooth="yes"/>
      <point x="189" y="69" type="line"/>
      <point x="189" y="618" type="line"/>
    </contour>
  </outline>
</glyph>
<glyph name="E" format="2">
  <advance width="530"/>
  <unicode hex="0045"/>
  <anchor x="290" y="0" name="bottom"/>
  <anchor x="449" y="0" name="ogonek"/>
  <anchor x="290" y="688" name="top"/>
  <anchor x="90" y="688" name="topleft"/>
  <outline>
    <contour>
      <point x="470" y="688" type="line"/>
      <point x="103" y="688" type="line"/>
      <point x="103" y="0" type="line"/>
      <point x="477" y="0" type="line"/>
      <point x="477" y="70" type="line"/>
      <point x="189" y="70" type="line"/>
      <point x="189" y="316" type="line"/>
      <point x="424" y="316" type="line"/>
      <point x="424" y="386" type="line"/>
      <point x="189" y="386" type="line"/>
      <point x="189" y="618" type="line"/>
      <point x="460" y="618" type="line"/>
    </contour>
  </outline>
</glyph>
<glyph name="F" format="2">
  <advance width="489"/>
  <unicode hex="0046"/>
  <anchor x="244" y="0" name="bottom"/>
  <anchor x="293" y="688" name="top"/>
  <outline>
    <contour>
      <point x="463" y="688" type="line"/>
      <point x="103" y="688" type="line"/>
      <point x="103" y="0" type="line"/>
      <point x="189" y="0" type="line"/>
      <point x="189" y="307" type="line"/>
      <point x="417" y="307" type="line"/>
      <point x="417" y="376" type="line"/>
      <point x="189" y="376" type="line"/>
      <point x="189" y="618" type="line"/>
      <point x="453" y="618" type="line"/>
    </contour>
  </outline>
</glyph>
<glyph name="J" format="2">
  <advance width="302"/>
  <unicode hex="004A"/>
  <anchor x="151" y="-201" name="bottom"/>
  <anchor x="161" y="688" name="top"/>
  <outline>
    <contour>
      <point x="204" y="688" type="line"/>
      <point x="117" y="688" type="line"/>
      <point x="117" y="99" type="line" smooth="yes"/>
      <point x="117" y="7"/>
      <point x="98" y="-33"/>
      <point x="7" y="-70" type="curve"/>
      <point x="30" y="-133" type="line"/>
      <point x="141" y="-96"/>
      <point x="204" y="-44"/>
      <point x="204" y="95" type="curve" smooth="yes"/>
    </contour>
  </outline>
</glyph>
<glyph name="K" format="2">
  <advance width="579"/>
  <unicode hex="004B"/>
  <anchor x="313" y="0" name="bottom"/>
  <anchor x="323" y="688" name="top"/>
  <outline>
    <contour>
      <point x="561" y="688" type="line"/>
      <point x="462" y="688" type="line"/>
      <point x="194" y="368" type="line"/>
      <point x="472" y="0" type="line"/>
      <point x="579" y="0" type="line"/>
      <point x="294" y="373" type="line"/>
    </contour>
    <contour>
      <point x="189" y="688" type="line"/>
      <point x="103" y="688" type="line"/>
      <point x="103" y="0" type="line"/>
      <point x="189" y="0" type="line"/>
    </contour>
  </outline>
</glyph>
<glyph name="L" format="2">
  <advance width="493"/>
  <unicode hex="004C"/>
  <anchor x="284" y="0" name="bottom"/>
  <anchor x="385" y="385" name="center"/>
  <anchor x="146" y="688" name="top"/>
  <anchor x="211" y="688" name="topright"/>
  <outline>
    <contour>
      <point x="189" y="688" type="line"/>
      <point x="103" y="688" type="line"/>
      <point x="103" y="0" type="line"/>
      <point x="463" y="0" type="line"/>
      <point x="473" y="76" type="line"/>
      <point x="189" y="76" type="line"/>
    </contour>
  </outline>
</glyph>
<glyph name="M" format="2">
  <advance width="792"/>
  <unicode hex="004D"/>
  <anchor x="396" y="0" name="bottom"/>
  <anchor x="723" y="0" name="bottomright"/>
  <anchor x="388" y="688" name="top"/>
  <outline>
    <contour>
      <point x="653" y="688" type="line"/>
      <point x="535" y="688" type="line"/>
      <point x="391" y="179" type="line"/>
      <point x="240" y="688" type="line"/>
      <point x="122" y="688" type="line"/>
      <point x="64" y="0" type="line"/>
      <point x="146" y="0" type="line"/>
      <point x="170" y="310" type="line"/>
      <point x="179" y="412"/>
      <point x="185" y="523"/>
      <point x="186" y="601" type="curve"/>
      <point x="348" y="79" type="line"/>
      <point x="429" y="79" type="line"/>
      <point x="584" y="600" type="line"/>
      <point x="585" y="542"/>
      <point x="593" y="424"/>
      <point x="603" y="315" type="curve" smooth="yes"/>
      <point x="629" y="0" type="line"/>
      <point x="713" y="0" type="line"/>
    </contour>
  </outline>
</glyph>
<glyph name="N" format="2">
  <advance width="681"/>
  <unicode hex="004E"/>
  <anchor x="342" y="0" name="bottom"/>
  <anchor x="351" y="688" name="top"/>
  <outline>
    <contour>
      <point x="578" y="688" type="line"/>
      <point x="497" y="688" type="line"/>
      <point x="497" y="303" type="line"/>
      <point x="497" y="218"/>
      <point x="506" y="113"/>
      <point x="508" y="94" type="curve"/>
      <point x="216" y="688" type="line"/>
      <point x="103" y="688" type="line"/>
      <point x="103" y="0" type="line"/>
      <point x="184" y="0" type="line"/>
      <point x="184" y="332" type="line"/>
      <point x="184" y="459"/>
      <point x="177" y="538"/>
      <point x="172" y="593" type="curve"/>
      <point x="462" y="0" type="line"/>
      <point x="578" y="0" type="line"/>
    </contour>
  </outline>
</glyph>
<glyph name="O" format="2">
  <advance width="692"/>
  <unicode hex="004F"/>
  <anchor x="346" y="0" name="bottom"/>
  <anchor x="443" y="0" name="ogonek"/>
  <anchor x="346" y="688" name="top"/>
  <anchor x="112" y="688" name="topleft"/>
  <anchor x="547" y="688" name="topright"/>
  <outline>
    <contour>
      <point x="346" y="700" type="curve" smooth="yes"/>
      <point x="176" y="700"/>
      <point x="58" y="569"/>
      <point x="58" y="342" type="curve" smooth="yes"/>
      <point x="58" y="112"/>
      <point x="175" y="-12"/>
      <point x="346" y="-12" type="curve" smooth="yes"/>
      <point x="518" y="-12"/>
      <point x="634" y="116"/>
      <point x="634" y="343" type="curve" smooth="yes"/>
      <point x="634" y="575"/>
      <point x="517" y="700"/>
    </contour>
    <contour>
      <point x="346" y="628" type="curve"/>
      <point x="467" y="628"/>
      <point x="542" y="544"/>
      <point x="542" y="343" type="curve" smooth="yes"/>
      <point x="542" y="142"/>
      <point x="466" y="60"/>
      <point x="346" y="60" type="curve" smooth="yes"/>
      <point x="230" y="60"/>
      <point x="150" y="142"/>
      <point x="150" y="342" type="curve" smooth="yes"/>
      <point x="150" y="544"/>
      <point x="228" y="628"/>
    </contour>
  </outline>
</glyph>
<glyph name="P" format="2">
  <advance width="578"/>
  <unicode hex="0050"/>
  <anchor x="290" y="0" name="bottom"/>
  <anchor x="290" y="688" name="top"/>
  <anchor x="90" y="688" name="topleft"/>
  <outline>
    <contour>
      <point x="189" y="0" type="line"/>
      <point x="189" y="620" type="line"/>
      <point x="278" y="620" type="line" smooth="yes"/>
      <point x="384" y="620"/>
      <point x="451" y="582"/>
      <point x="451" y="476" type="curve" smooth="yes"/>
      <point x="451" y="357"/>
      <point x="381" y="325"/>
      <point x="276" y="325" type="curve" smooth="yes"/>
      <point x="174" y="325" type="line"/>
      <point x="174" y="256" type="line"/>
      <point x="279" y="256" type="line" smooth="yes"/>
      <point x="430" y="256"/>
      <point x="543" y="320"/>
      <point x="543" y="477" type="curve" smooth="yes"/>
      <point x="543" y="621"/>
      <point x="443" y="688"/>
      <point x="279" y="688" type="curve" smooth="yes"/>
      <point x="103" y="688" type="line"/>
      <point x="103" y="0" type="line"/>
    </contour>
  </outline>
</glyph>
<glyph name="Q" format="2">
  <advance width="687"/>
  <unicode hex="0051"/>
  <anchor x="344" y="0" name="bottom"/>
  <anchor x="344" y="688" name="top"/>
  <outline>
    <contour>
      <point x="346" y="700" type="curve" smooth="yes"/>
      <point x="176" y="700"/>
      <point x="58" y="569"/>
      <point x="58" y="342" type="curve" smooth="yes"/>
      <point x="58" y="112"/>
      <point x="175" y="-10"/>
      <point x="344" y="-10" type="curve" smooth="yes"/>
      <point x="364" y="-10"/>
      <point x="383" y="-8"/>
      <point x="401" y="-5" type="curve"/>
      <point x="473" y="35" type="line"/>
      <point x="571" y="83"/>
      <point x="634" y="170"/>
      <point x="634" y="343" type="curve" smooth="yes"/>
      <point x="634" y="575"/>
      <point x="517" y="700"/>
    </contour>
    <contour>
      <point x="473" y="35" type="curve"/>
      <point x="344" y="-10" type="line"/>
      <point x="468" y="-10"/>
      <point x="528" y="-32"/>
      <point x="605" y="-101" type="curve"/>
      <point x="662" y="-28" type="line"/>
      <point x="612" y="9"/>
      <point x="551" y="35"/>
    </contour>
    <contour>
      <point x="346" y="628" type="curve"/>
      <point x="467" y="628"/>
      <point x="542" y="544"/>
      <point x="542" y="343" type="curve" smooth="yes"/>
      <point x="542" y="142"/>
      <point x="466" y="60"/>
      <point x="346" y="60" type="curve" smooth="yes"/>
      <point x="230" y="60"/>
      <point x="150" y="142"/>
      <point x="150" y="342" type="curve" smooth="yes"/>
      <point x="150" y="544"/>
      <point x="228" y="628"/>
    </contour>
  </outline>
</glyph>
<glyph name="R" format="2">
  <advance width="601"/>
  <unicode hex="0052"/>
  <anchor x="308" y="0" name="bottom"/>
  <anchor x="298" y="688" name="top"/>
  <outline>
    <contour>
      <point x="280" y="688" type="curve" smooth="yes"/>
      <point x="103" y="688" type="line"/>
      <point x="103" y="0" type="line"/>
      <point x="189" y="0" type="line"/>
      <point x="189" y="620" type="line"/>
      <point x="279" y="620" type="line" smooth="yes"/>
      <point x="396" y="620"/>
      <point x="446" y="582"/>
      <point x="446" y="495" type="curve" smooth="yes"/>
      <point x="446" y="400"/>
      <point x="389" y="363"/>
      <point x="290" y="363" type="curve" smooth="yes"/>
      <point x="174" y="363" type="line"/>
      <point x="174" y="296" type="line"/>
      <point x="310" y="296" type="line"/>
      <point x="459" y="315"/>
      <point x="538" y="374"/>
      <point x="538" y="495" type="curve" smooth="yes"/>
      <point x="538" y="622"/>
      <point x="450" y="688"/>
    </contour>
    <contour>
      <point x="383" y="319" type="line"/>
      <point x="296" y="309" type="line"/>
      <point x="471" y="0" type="line"/>
      <point x="574" y="0" type="line"/>
    </contour>
  </outline>
</glyph>
<glyph name="S" format="2">
  <advance width="544"/>
  <unicode hex="0053"/>
  <anchor x="266" y="0" name="bottom"/>
  <anchor x="275" y="688" name="top"/>
  <outline>
    <contour>
      <point x="269" y="700" type="curve" smooth="yes"/>
      <point x="144" y="700"/>
      <point x="56" y="626"/>
      <point x="56" y="523" type="curve" smooth="yes"/>
      <point x="56" y="418"/>
      <point x="123" y="367"/>
      <point x="258" y="326" type="curve" smooth="yes"/>
      <point x="376" y="290"/>
      <point x="410" y="259"/>
      <point x="410" y="188" type="curve" smooth="yes"/>
      <point x="410" y="103"/>
      <point x="342" y="60"/>
      <point x="258" y="60" type="curve" smooth="yes"/>
      <point x="182" y="60"/>
      <point x="128" y="87"/>
      <point x="77" y="131" type="curve"/>
      <point x="28" y="76" type="line"/>
      <point x="85" y="21"/>
      <point x="161" y="-12"/>
      <point x="259" y="-12" type="curve" smooth="yes"/>
      <point x="410" y="-12"/>
      <point x="500" y="71"/>
      <point x="500" y="191" type="curve" smooth="yes"/>
      <point x="500" y="320"/>
      <point x="411" y="364"/>
      <point x="298" y="398" type="curve" smooth="yes"/>
      <point x="174" y="436"/>
      <point x="145" y="465"/>
      <point x="145" y="526" type="curve" smooth="yes"/>
      <point x="145" y="593"/>
      <point x="200" y="628"/>
      <point x="273" y="628" type="curve" smooth="yes"/>
      <point x="331" y="628"/>
      <point x="379" y="610"/>
      <point x="431" y="568" type="curve"/>
      <point x="478" y="621" type="line"/>
      <point x="422" y="672"/>
      <point x="363" y="700"/>
    </contour>
  </outline>
</glyph>
<glyph name="T" format="2">
  <advance width="512"/>
  <unicode hex="0054"/>
  <anchor x="256" y="0" name="bottom"/>
  <anchor x="309" y="0" name="bottomright"/>
  <anchor x="256" y="345" name="center"/>
  <anchor x="256" y="688" name="top"/>
  <outline>
    <contour>
      <point x="502" y="688" type="line"/>
      <point x="15" y="688" type="line"/>
      <point x="15" y="614" type="line"/>
      <point x="213" y="614" type="line"/>
      <point x="213" y="0" type="line"/>
      <point x="299" y="0" type="line"/>
      <point x="299" y="614" type="line"/>
      <point x="492" y="614" type="line"/>
    </contour>
  </outline>
</glyph>
<glyph name="U" format="2">
  <advance width="660"/>
  <unicode hex="0055"/>
  <anchor x="330" y="0" name="bottom"/>
  <anchor x="425" y="0" name="ogonek"/>
  <anchor x="330" y="688" name="top"/>
  <anchor x="577" y="688" name="topright"/>
  <outline>
    <contour>
      <point x="567" y="688" type="line"/>
      <point x="479" y="688" type="line"/>
      <point x="479" y="226" type="line" smooth="yes"/>
      <point x="479" y="118"/>
      <point x="432" y="62"/>
      <point x="329" y="62" type="curve" smooth="yes"/>
      <point x="227" y="62"/>
      <point x="179" y="118"/>
      <point x="179" y="226" type="curve" smooth="yes"/>
      <point x="179" y="688" type="line"/>
      <point x="93" y="688" type="line"/>
      <point x="93" y="219" type="line" smooth="yes"/>
      <point x="93" y="84"/>
      <point x="173" y="-12"/>
      <point x="329" y="-12" type="curve" smooth="yes"/>
      <point x="483" y="-12"/>
      <point x="567" y="84"/>
      <point x="567" y="219" type="curve" smooth="yes"/>
    </contour>
  </outline>
</glyph>
<glyph name="V" format="2">
  <advance width="554"/>
  <unicode hex="0056"/>
  <anchor x="277" y="0" name="bottom"/>
  <anchor x="277" y="688" name="top"/>
  <outline>
    <contour>
      <point x="545" y="688" type="line"/>
      <point x="457" y="688" type="line"/>
      <point x="279" y="93" type="line"/>
      <point x="102" y="688" type="line"/>
      <point x="8" y="688" type="line"/>
      <point x="231" y="0" type="line"/>
      <point x="325" y="0" type="line"/>
    </contour>
  </outline>
</glyph>
<glyph name="W" format="2">
  <advance width="822"/>
  <unicode hex="0057"/>
  <anchor x="411" y="0" name="bottom"/>
  <anchor x="411" y="688" name="top"/>
  <outline>
    <contour>
      <point x="796" y="688" type="line"/>
      <point x="716" y="688" type="line"/>
      <point x="597" y="76" type="line"/>
      <point x="457" y="688" type="line"/>
      <point x="364" y="688" type="line"/>
      <point x="227" y="76" type="line"/>
      <point x="112" y="688" type="line"/>
      <point x="26" y="688" type="line"/>
      <point x="169" y="0" type="line"/>
      <point x="277" y="0" type="line"/>
      <point x="410" y="587" type="line"/>
      <point x="542" y="0" type="line"/>
      <point x="653" y="0" type="line"/>
    </contour>
  </outline>
</glyph>
<glyph name="X" format="2">
  <advance width="533"/>
  <unicode hex="0058"/>
  <anchor x="267" y="0" name="bottom"/>
  <anchor x="482" y="0" name="bottomright"/>
  <anchor x="267" y="688" name="top"/>
  <outline>
    <contour>
      <point x="123" y="688" type="line"/>
      <point x="25" y="688" type="line"/>
      <point x="214" y="367" type="line"/>
      <point x="265" y="311" type="line"/>
      <point x="429" y="0" type="line"/>
      <point x="528" y="0" type="line"/>
      <point x="317" y="372" type="line"/>
      <point x="267" y="425" type="line"/>
    </contour>
    <contour>
      <point x="503" y="688" type="line"/>
      <point x="410" y="688" type="line"/>
      <point x="267" y="425" type="line"/>
      <point x="214" y="367" type="line"/>
      <point x="6" y="0" type="line"/>
      <point x="100" y="0" type="line"/>
      <point x="265" y="311" type="line"/>
      <point x="317" y="372" type="line"/>
    </contour>
  </outline>
</glyph>
<glyph name="Y" format="2">
  <advance width="544"/>
  <unicode hex="0059"/>
  <anchor x="272" y="0" name="bottom"/>
  <anchor x="272" y="688" name="top"/>
  <anchor x="6" y="688" name="topleft"/>
  <outline>
    <contour>
      <point x="537" y="688" type="line"/>
      <point x="446" y="688" type="line"/>
      <point x="275" y="341" type="line"/>
      <point x="103" y="688" type="line"/>
      <point x="7" y="688" type="line"/>
      <point x="228" y="265" type="line"/>
      <point x="228" y="0" type="line"/>
      <point x="316" y="0" type="line"/>
      <point x="316" y="266" type="line"/>
    </contour>
  </outline>
</glyph>
<glyph name="bracketleft" format="2">
  <advance width="321"/>
  <unicode hex="005B"/>
  <outline>
    <contour>
      <point x="267" y="814" type="line"/>
      <point x="70" y="814" type="line"/>
      <point x="70" y="-115" type="line"/>
      <point x="267" y="-115" type="line"/>
      <point x="267" y="-46" type="line"/>
      <point x="149" y="-46" type="line"/>
      <point x="149" y="744" type="line"/>
      <point x="267" y="744" type="line"/>
    </contour>
  </outline>
</glyph>
<glyph name="bracketright" format="2">
  <advance width="321"/>
  <unicode hex="005D"/>
  <outline>
    <contour>
      <point x="251" y="814" type="line"/>
      <point x="54" y="814" type="line"/>
      <point x="54" y="744" type="line"/>
      <point x="172" y="744" type="line"/>
      <point x="172" y="-46" type="line"/>
      <point x="54" y="-46" type="line"/>
      <point x="54" y="-115" type="line"/>
      <point x="251" y="-115" type="line"/>
    </contour>
  </outline>
</glyph>
<glyph name="asciicircum" format="2">
  <advance width="538"/>
  <unicode hex="005E"/>
  <outline>
    <contour>
      <point x="306" y="838" type="line"/>
      <point x="232" y="838" type="line"/>
      <point x="44" y="527" type="line"/>
      <point x="133" y="527" type="line"/>
      <point x="268" y="764" type="line"/>
      <point x="404" y="527" type="line"/>
      <point x="494" y="527" type="line"/>
    </contour>
  </outline>
</glyph>
<glyph name="grave" format="2">
  <advance width="294"/>
  <unicode hex="0060"/>
  <outline>
    <contour>
      <point x="68" y="797" type="line"/>
      <point x="30" y="725" type="line"/>
      <point x="238" y="640" type="line"/>
      <point x="264" y="685" type="line"/>
    </contour>
  </outline>
</glyph>
<glyph name="a" format="2">
  <advance width="542"/>
  <unicode hex="0061"/>
  <anchor x="260" y="0" name="bottom"/>
  <anchor x="480" y="-12" name="ogonek"/>
  <anchor x="260" y="526" name="top"/>
  <outline>
    <contour>
      <point x="264" y="538" type="curve" smooth="yes"/>
      <point x="206" y="538"/>
      <point x="149" y="526"/>
      <point x="86" y="502" type="curve"/>
      <point x="107" y="440" type="line"/>
      <point x="161" y="459"/>
      <point x="209" y="469"/>
      <point x="249" y="469" type="curve" smooth="yes"/>
      <point x="325" y="469"/>
      <point x="362" y="439"/>
      <point x="362" y="361" type="curve"/>
      <point x="362" y="122" type="line"/>
      <point x="368" y="88" type="line"/>
      <point x="379" y="21"/>
      <point x="413" y="-4"/>
      <point x="470" y="-12" type="curve"/>
      <point x="490" y="47" type="line"/>
      <point x="462" y="57"/>
      <point x="446" y="72"/>
      <point x="446" y="121" type="curve" smooth="yes"/>
      <point x="446" y="365" type="line" smooth="yes"/>
      <point x="446" y="474"/>
      <point x="389" y="538"/>
    </contour>
    <contour>
      <point x="376" y="319" type="line"/>
      <point x="276" y="319" type="line" smooth="yes"/>
      <point x="132" y="319"/>
      <point x="48" y="259"/>
      <point x="48" y="147" type="curve" smooth="yes"/>
      <point x="48" y="53"/>
      <point x="110" y="-12"/>
      <point x="214" y="-12" type="curve" smooth="yes"/>
      <point x="285" y="-12"/>
      <point x="345" y="17"/>
      <point x="381" y="84" type="curve"/>
      <point x="370" y="154" type="line"/>
      <point x="339" y="86"/>
      <point x="295" y="52"/>
      <point x="233" y="52" type="curve" smooth="yes"/>
      <point x="170" y="52"/>
      <point x="137" y="87"/>
      <point x="137" y="151" type="curve" smooth="yes"/>
      <point x="137" y="226"/>
      <point x="189" y="263"/>
      <point x="287" y="263" type="curve" smooth="yes"/>
      <point x="376" y="263" type="line"/>
    </contour>
  </outline>
</glyph>
<glyph name="c" format="2">
  <advance width="476"/>
  <unicode hex="0063"/>
  <anchor x="284" y="0" name="bottom"/>
  <anchor x="288" y="526" name="top"/>
  <outline>
    <contour>
      <point x="287" y="538" type="curve" smooth="yes"/>
      <point x="146" y="538"/>
      <point x="59" y="427"/>
      <point x="59" y="259" type="curve" smooth="yes"/>
      <point x="59" y="89"/>
      <point x="147" y="-12"/>
      <point x="287" y="-12" type="curve" smooth="yes"/>
      <point x="347" y="-12"/>
      <point x="400" y="8"/>
      <point x="445" y="46" type="curve"/>
      <point x="406" y="101" type="line"/>
      <point x="367" y="74"/>
      <point x="335" y="60"/>
      <point x="290" y="60" type="curve" smooth="yes"/>
      <point x="204" y="60"/>
      <point x="149" y="120"/>
      <point x="149" y="260" type="curve" smooth="yes"/>
      <point x="149" y="401"/>
      <point x="204" y="468"/>
      <point x="290" y="468" type="curve" smooth="yes"/>
      <point x="335" y="468"/>
      <point x="369" y="455"/>
      <point x="404" y="429" type="curve"/>
      <point x="445" y="482" type="line"/>
      <point x="397" y="522"/>
      <point x="348" y="538"/>
    </contour>
  </outline>
</glyph>
<glyph name="e" format="2">
  <advance width="547"/>
  <unicode hex="0065"/>
  <anchor x="292" y="0" name="bottom"/>
  <anchor x="396" y="6" name="ogonek"/>
  <anchor x="278" y="526" name="top"/>
  <outline>
    <contour>
      <point x="275" y="538" type="curve" smooth="yes"/>
      <point x="141" y="538"/>
      <point x="59" y="423"/>
      <point x="59" y="258" type="curve" smooth="yes"/>
      <point x="59" y="91"/>
      <point x="144" y="-12"/>
      <point x="289" y="-12" type="curve" smooth="yes"/>
      <point x="361" y="-12"/>
      <point x="419" y="13"/>
      <point x="470" y="54" type="curve"/>
      <point x="433" y="104" type="line"/>
      <point x="387" y="72"/>
      <point x="348" y="57"/>
      <point x="295" y="57" type="curve" smooth="yes"/>
      <point x="209" y="57"/>
      <point x="148" y="115"/>
      <point x="147" y="264" type="curve"/>
      <point x="147" y="410"/>
      <point x="198" y="471"/>
      <point x="277" y="471" type="curve" smooth="yes"/>
      <point x="364" y="471"/>
      <point x="406" y="410"/>
      <point x="406" y="304" type="curve" smooth="yes"/>
      <point x="406" y="301"/>
      <point x="406" y="299"/>
      <point x="406" y="296" type="curve"/>
      <point x="133" y="296" type="line"/>
      <point x="133" y="234" type="line"/>
      <point x="487" y="234" type="line"/>
      <point x="488" y="245"/>
      <point x="489" y="262"/>
      <point x="489" y="280" type="curve" smooth="yes"/>
      <point x="489" y="439"/>
      <point x="416" y="538"/>
    </contour>
  </outline>
</glyph>
<glyph name="g" format="2">
  <advance width="516"/>
  <unicode hex="0067"/>
  <anchor x="252" y="-201" name="bottom"/>
  <anchor x="258" y="526" name="top"/>
  <outline>
    <contour>
      <point x="489" y="582" type="line"/>
      <point x="430" y="555"/>
      <point x="384" y="535"/>
      <point x="251" y="538" type="curve" smooth="yes"/>
      <point x="135" y="538"/>
      <point x="51" y="463"/>
      <point x="51" y="356" type="curve" smooth="yes"/>
      <point x="51" y="287"/>
      <point x="79" y="241"/>
      <point x="139" y="209" type="curve"/>
      <point x="102" y="185"/>
      <point x="82" y="152"/>
      <point x="82" y="117" type="curve" smooth="yes"/>
      <point x="82" y="65"/>
      <point x="124" y="19"/>
      <point x="216" y="19" type="curve" smooth="yes"/>
      <point x="299" y="19" type="line" smooth="yes"/>
      <point x="367" y="19"/>
      <point x="408" y="-7"/>
      <point x="408" y="-59" type="curve" smooth="yes"/>
      <point x="408" y="-114"/>
      <point x="367" y="-145"/>
      <point x="251" y="-145" type="curve" smooth="yes"/>
      <point x="133" y="-145"/>
      <point x="103" y="-117"/>
      <point x="103" y="-54" type="curve"/>
      <point x="27" y="-54" type="line"/>
      <point x="27" y="-160"/>
      <point x="82" y="-211"/>
      <point x="251" y="-211" type="curve" smooth="yes"/>
      <point x="412" y="-211"/>
      <point x="493" y="-154"/>
      <point x="493" y="-53" type="curve" smooth="yes"/>
      <point x="493" y="29"/>
      <point x="423" y="90"/>
      <point x="316" y="90" type="curve" smooth="yes"/>
      <point x="232" y="90" type="line" smooth="yes"/>
      <point x="176" y="90"/>
      <point x="160" y="110"/>
      <point x="160" y="135" type="curve" smooth="yes"/>
      <point x="160" y="156"/>
      <point x="171" y="175"/>
      <point x="189" y="187" type="curve"/>
      <point x="210" y="180"/>
      <point x="232" y="177"/>
      <point x="256" y="177" type="curve" smooth="yes"/>
      <point x="380" y="177"/>
      <point x="454" y="251"/>
      <point x="454" y="354" type="curve" smooth="yes"/>
      <point x="454" y="418"/>
      <point x="423" y="462"/>
      <point x="362" y="489" type="curve"/>
      <point x="423" y="490"/>
      <point x="472" y="492"/>
      <point x="514" y="505" type="curve"/>
    </contour>
    <contour>
      <point x="251" y="477" type="curve" smooth="yes"/>
      <point x="329" y="477"/>
      <point x="368" y="434"/>
      <point x="368" y="356" type="curve" smooth="yes"/>
      <point x="368" y="278"/>
      <point x="328" y="233"/>
      <point x="253" y="233" type="curve" smooth="yes"/>
      <point x="179" y="233"/>
      <point x="137" y="282"/>
      <point x="137" y="356" type="curve" smooth="yes"/>
      <point x="137" y="426"/>
      <point x="176" y="477"/>
    </contour>
  </outline>
</glyph>
<glyph name="h" format="2">
  <advance width="585"/>
  <unicode hex="0068"/>
  <anchor x="296" y="0" name="bottom"/>
  <anchor x="293" y="263" name="center"/>
  <anchor x="293" y="738" name="top"/>
  <outline>
    <contour>
      <point x="342" y="538" type="curve" smooth="yes"/>
      <point x="264" y="538"/>
      <point x="206" y="493"/>
      <point x="166" y="427" type="curve"/>
      <point x="182" y="376" type="line"/>
      <point x="218" y="433"/>
      <point x="261" y="472"/>
      <point x="321" y="472" type="curve" smooth="yes"/>
      <point x="375" y="472"/>
      <point x="409" y="446"/>
      <point x="409" y="365" type="curve" smooth="yes"/>
      <point x="409" y="0" type="line"/>
      <point x="493" y="0" type="line"/>
      <point x="493" y="377" type="line" smooth="yes"/>
      <point x="493" y="476"/>
      <point x="437" y="538"/>
    </contour>
    <contour>
      <point x="182" y="747" type="line"/>
      <point x="98" y="737" type="line"/>
      <point x="98" y="0" type="line"/>
      <point x="182" y="0" type="line"/>
    </contour>
  </outline>
</glyph>
<glyph name="k" format="2">
  <advance width="506"/>
  <unicode hex="006B"/>
  <anchor x="257" y="0" name="bottom"/>
  <anchor x="277" y="738" name="top"/>
  <outline>
    <contour>
      <point x="482" y="526" type="line"/>
      <point x="388" y="526" type="line"/>
      <point x="188" y="287" type="line"/>
      <point x="404" y="0" type="line"/>
      <point x="505" y="0" type="line"/>
      <point x="282" y="293" type="line"/>
    </contour>
    <contour>
      <point x="182" y="748" type="line"/>
      <point x="98" y="738" type="line"/>
      <point x="98" y="0" type="line"/>
      <point x="182" y="0" type="line"/>
    </contour>
  </outline>
</glyph>
<glyph name="l" format="2">
  <advance width="291"/>
  <unicode hex="006C"/>
  <anchor x="178" y="0" name="bottom"/>
  <anchor x="292" y="379" name="center"/>
  <anchor x="135" y="738" name="top"/>
  <anchor x="190" y="738" name="topright"/>
  <outline>
    <contour>
      <point x="198" y="-12" type="curve" smooth="yes"/>
      <point x="224" y="-12"/>
      <point x="249" y="-5"/>
      <point x="268" y="5" type="curve"/>
      <point x="246" y="64" type="line"/>
      <point x="236" y="60"/>
      <point x="225" y="58"/>
      <point x="212" y="58" type="curve" smooth="yes"/>
      <point x="187" y="58"/>
      <point x="177" y="73"/>
      <point x="177" y="102" type="curve" smooth="yes"/>
      <point x="177" y="748" type="line"/>
      <point x="93" y="738" type="line"/>
      <point x="93" y="100" type="line" smooth="yes"/>
      <point x="93" y="27"/>
      <point x="134" y="-12"/>
    </contour>
  </outline>
</glyph>
<glyph name="m" format="2">
  <advance width="856"/>
  <unicode hex="006D"/>
  <anchor x="428" y="0" name="bottom"/>
  <anchor x="428" y="526" name="top"/>
  <outline>
    <contour>
      <point x="331" y="538" type="curve" smooth="yes"/>
      <point x="256" y="538"/>
      <point x="203" y="493"/>
      <point x="166" y="429" type="curve"/>
      <point x="182" y="375" type="line"/>
      <point x="218" y="433"/>
      <point x="253" y="472"/>
      <point x="311" y="472" type="curve" smooth="yes"/>
      <point x="354" y="472"/>
      <point x="388" y="446"/>
      <point x="388" y="365" type="curve" smooth="yes"/>
      <point x="388" y="0" type="line"/>
      <point x="472" y="0" type="line"/>
      <point x="472" y="379" type="line"/>
      <point x="470" y="407" type="line"/>
      <point x="460" y="488"/>
      <point x="408" y="538"/>
    </contour>
    <contour>
      <point x="170" y="526" type="line"/>
      <point x="98" y="526" type="line"/>
      <point x="98" y="0" type="line"/>
      <point x="182" y="0" type="line"/>
      <point x="182" y="397" type="line"/>
    </contour>
    <contour>
      <point x="622" y="538" type="curve" smooth="yes"/>
      <point x="547" y="538"/>
      <point x="495" y="493"/>
      <point x="456" y="429" type="curve"/>
      <point x="472" y="375" type="line"/>
      <point x="509" y="433"/>
      <point x="543" y="472"/>
      <point x="602" y="472" type="curve" smooth="yes"/>
      <point x="645" y="472"/>
      <point x="679" y="446"/>
      <point x="679" y="365" type="curve" smooth="yes"/>
      <point x="679" y="0" type="line"/>
      <point x="763" y="0" type="line"/>
      <point x="763" y="377" type="line" smooth="yes"/>
      <point x="763" y="476"/>
      <point x="708" y="538"/>
    </contour>
  </outline>
</glyph>
<glyph name="n" format="2">
  <advance width="585"/>
  <unicode hex="006E"/>
  <anchor x="292" y="0" name="bottom"/>
  <anchor x="298" y="526" name="top"/>
  <anchor x="88" y="526" name="topleft"/>
  <outline>
    <contour>
      <point x="342" y="538" type="curve" smooth="yes"/>
      <point x="264" y="538"/>
      <point x="204" y="493"/>
      <point x="166" y="429" type="curve"/>
      <point x="182" y="375" type="line"/>
      <point x="218" y="433"/>
      <point x="260" y="472"/>
      <point x="322" y="472" type="curve" smooth="yes"/>
      <point x="376" y="472"/>
      <point x="409" y="446"/>
      <point x="409" y="365" type="curve" smooth="yes"/>
      <point x="409" y="0" type="line"/>
      <point x="493" y="0" type="line"/>
      <point x="493" y="377" type="line" smooth="yes"/>
      <point x="493" y="477"/>
      <point x="438" y="538"/>
    </contour>
    <contour>
      <point x="170" y="526" type="line"/>
      <point x="98" y="526" type="line"/>
      <point x="98" y="0" type="line"/>
      <point x="182" y="0" type="line"/>
      <point x="182" y="397" type="line"/>
    </contour>
  </outline>
</glyph>
<glyph name="o" format="2">
  <advance width="581"/>
  <unicode hex="006F"/>
  <anchor x="291" y="0" name="bottom"/>
  <anchor x="377" y="0" name="ogonek"/>
  <anchor x="291" y="526" name="top"/>
  <anchor x="473" y="526" name="topright"/>
  <outline>
    <contour>
      <point x="291" y="538" type="curve" smooth="yes"/>
      <point x="144" y="538"/>
      <point x="59" y="427"/>
      <point x="59" y="262" type="curve" smooth="yes"/>
      <point x="59" y="95"/>
      <point x="143" y="-12"/>
      <point x="290" y="-12" type="curve" smooth="yes"/>
      <point x="437" y="-12"/>
      <point x="522" y="99"/>
      <point x="522" y="264" type="curve" smooth="yes"/>
      <point x="522" y="432"/>
      <point x="439" y="538"/>
    </contour>
    <contour>
      <point x="291" y="470" type="curve" smooth="yes"/>
      <point x="382" y="470"/>
      <point x="432" y="403"/>
      <point x="432" y="264" type="curve" smooth="yes"/>
      <point x="432" y="123"/>
      <point x="381" y="56"/>
      <point x="290" y="56" type="curve" smooth="yes"/>
      <point x="199" y="56"/>
      <point x="149" y="123"/>
      <point x="149" y="262" type="curve" smooth="yes"/>
      <point x="149" y="403"/>
      <point x="201" y="470"/>
    </contour>
  </outline>
</glyph>
<glyph name="r" format="2">
  <advance width="383"/>
  <unicode hex="0072"/>
  <anchor x="139" y="0" name="bottom"/>
  <anchor x="237" y="526" name="top"/>
  <outline>
    <contour>
      <point x="320" y="538" type="curve" smooth="yes"/>
      <point x="251" y="538"/>
      <point x="201" y="493"/>
      <point x="174" y="403" type="curve"/>
      <point x="176" y="280" type="line"/>
      <point x="199" y="400"/>
      <point x="238" y="456"/>
      <point x="311" y="456" type="curve" smooth="yes"/>
      <point x="330" y="456"/>
      <point x="341" y="454"/>
      <point x="357" y="450" type="curve"/>
      <point x="372" y="532" type="line"/>
      <point x="357" y="536"/>
      <point x="338" y="538"/>
    </contour>
    <contour>
      <point x="170" y="526" type="line"/>
      <point x="98" y="526" type="line"/>
      <point x="98" y="0" type="line"/>
      <point x="182" y="0" type="line"/>
      <point x="182" y="319" type="line"/>
      <point x="179" y="407" type="line"/>
    </contour>
  </outline>
</glyph>
<glyph name="s" format="2">
  <advance width="466"/>
  <unicode hex="0073"/>
  <anchor x="234" y="0" name="bottom"/>
  <anchor x="244" y="526" name="top"/>
  <outline>
    <contour>
      <point x="237" y="538" type="curve" smooth="yes"/>
      <point x="130" y="538"/>
      <point x="51" y="478"/>
      <point x="51" y="395" type="curve" smooth="yes"/>
      <point x="51" y="321"/>
      <point x="96" y="274"/>
      <point x="209" y="244" type="curve" smooth="yes"/>
      <point x="313" y="216"/>
      <point x="340" y="196"/>
      <point x="340" y="141" type="curve" smooth="yes"/>
      <point x="340" y="88"/>
      <point x="293" y="56"/>
      <point x="223" y="56" type="curve" smooth="yes"/>
      <point x="164" y="56"/>
      <point x="116" y="76"/>
      <point x="73" y="108" type="curve"/>
      <point x="28" y="57" type="line"/>
      <point x="74" y="17"/>
      <point x="136" y="-12"/>
      <point x="225" y="-12" type="curve" smooth="yes"/>
      <point x="331" y="-12"/>
      <point x="428" y="39"/>
      <point x="428" y="146" type="curve" smooth="yes"/>
      <point x="428" y="238"/>
      <point x="366" y="280"/>
      <point x="255" y="309" type="curve" smooth="yes"/>
      <point x="168" y="332"/>
      <point x="138" y="352"/>
      <point x="138" y="397" type="curve" smooth="yes"/>
      <point x="138" y="442"/>
      <point x="178" y="471"/>
      <point x="240" y="471" type="curve" smooth="yes"/>
      <point x="290" y="471"/>
      <point x="330" y="456"/>
      <point x="377" y="425" type="curve"/>
      <point x="413" y="478" type="line"/>
      <point x="363" y="516"/>
      <point x="309" y="538"/>
    </contour>
  </outline>
</glyph>
<glyph name="u" format="2">
  <advance width="581"/>
  <unicode hex="0075"/>
  <anchor x="289" y="0" name="bottom"/>
  <anchor x="494" y="0" name="ogonek"/>
  <anchor x="289" y="526" name="top"/>
  <anchor x="494" y="526" name="topright"/>
  <outline>
    <contour>
      <point x="484" y="526" type="line"/>
      <point x="400" y="526" type="line"/>
      <point x="400" y="149" type="line"/>
      <point x="367" y="94"/>
      <point x="323" y="55"/>
      <point x="263" y="55" type="curve" smooth="yes"/>
      <point x="203" y="55"/>
      <point x="177" y="83"/>
      <point x="177" y="158" type="curve" smooth="yes"/>
      <point x="177" y="526" type="line"/>
      <point x="93" y="526" type="line"/>
      <point x="93" y="149" type="line" smooth="yes"/>
      <point x="93" y="46"/>
      <point x="147" y="-12"/>
      <point x="240" y="-12" type="curve" smooth="yes"/>
      <point x="316" y="-12"/>
      <point x="366" y="21"/>
      <point x="405" y="85" type="curve"/>
      <point x="412" y="0" type="line"/>
      <point x="484" y="0" type="line"/>
    </contour>
  </outline>
</glyph>
<glyph name="w" format="2">
  <advance width="713"/>
  <unicode hex="0077"/>
  <anchor x="357" y="0" name="bottom"/>
  <anchor x="357" y="526" name="top"/>
  <outline>
    <contour>
      <point x="691" y="526" type="line"/>
      <point x="611" y="526" type="line"/>
      <point x="511" y="59" type="line"/>
      <point x="407" y="526" type="line"/>
      <point x="313" y="526" type="line"/>
      <point x="205" y="59" type="line"/>
      <point x="106" y="526" type="line"/>
      <point x="21" y="526" type="line"/>
      <point x="146" y="0" type="line"/>
      <point x="258" y="0" type="line"/>
      <point x="358" y="450" type="line"/>
      <point x="455" y="0" type="line"/>
      <point x="570" y="0" type="line"/>
    </contour>
  </outline>
</glyph>
<glyph name="x" format="2">
  <advance width="479"/>
  <unicode hex="0078"/>
  <anchor x="236" y="0" name="bottom"/>
  <anchor x="433" y="0" name="bottomright"/>
  <anchor x="242" y="526" name="top"/>
  <outline>
    <contour>
      <point x="126" y="526" type="line"/>
      <point x="28" y="526" type="line"/>
      <point x="190" y="278" type="line"/>
      <point x="237" y="228" type="line"/>
      <point x="371" y="0" type="line"/>
      <point x="473" y="0" type="line"/>
      <point x="289" y="282" type="line"/>
      <point x="241" y="329" type="line"/>
    </contour>
    <contour>
      <point x="451" y="526" type="line"/>
      <point x="356" y="526" type="line"/>
      <point x="241" y="329" type="line"/>
      <point x="190" y="278" type="line"/>
      <point x="6" y="0" type="line"/>
      <point x="101" y="0" type="line"/>
      <point x="237" y="228" type="line"/>
      <point x="289" y="282" type="line"/>
    </contour>
  </outline>
</glyph>
<glyph name="y" format="2">
  <advance width="486"/>
  <unicode hex="0079"/>
  <anchor x="246" y="-201" name="bottom"/>
  <anchor x="243" y="526" name="top"/>
  <outline>
    <contour>
      <point x="475" y="526" type="line"/>
      <point x="388" y="526" type="line"/>
      <point x="246" y="61" type="line"/>
      <point x="101" y="526" type="line"/>
      <point x="11" y="526" type="line"/>
      <point x="189" y="0" type="line"/>
      <point x="218" y="0" type="line"/>
      <point x="187" y="-84"/>
      <point x="158" y="-125"/>
      <point x="51" y="-145" type="curve"/>
      <point x="61" y="-211" type="line"/>
      <point x="202" y="-193"/>
      <point x="261" y="-115"/>
      <point x="298" y="-3" type="curve" smooth="yes"/>
    </contour>
  </outline>
</glyph>
<glyph name="z" format="2">
  <advance width="434"/>
  <unicode hex="007A"/>
  <anchor x="214" y="0" name="bottom"/>
  <anchor x="218" y="526" name="top"/>
  <outline>
    <contour>
      <point x="400" y="526" type="line"/>
      <point x="49" y="526" type="line"/>
      <point x="49" y="455" type="line"/>
      <point x="304" y="455" type="line"/>
      <point x="26" y="63" type="line"/>
      <point x="26" y="0" type="line"/>
      <point x="392" y="0" type="line"/>
      <point x="402" y="71" type="line"/>
      <point x="121" y="71" type="line"/>
      <point x="400" y="462" type="line"/>
    </contour>
  </outline>
</glyph>
<glyph name="braceleft" format="2">
  <advance width="323"/>
  <unicode hex="007B"/>
  <outline>
    <contour>
      <point x="273" y="834" type="line"/>
      <point x="147" y="834"/>
      <point x="101" y="792"/>
      <point x="101" y="691" type="curve" smooth="yes"/>
      <point x="101" y="461" type="line" smooth="yes"/>
      <point x="101" y="406"/>
      <point x="82" y="384"/>
      <point x="30" y="384" type="curve"/>
      <point x="30" y="314" type="line"/>
      <point x="82" y="314"/>
      <point x="101" y="293"/>
      <point x="101" y="239" type="curve" smooth="yes"/>
      <point x="101" y="9" type="line" smooth="yes"/>
      <point x="101" y="-92"/>
      <point x="147" y="-134"/>
      <point x="273" y="-134" type="curve"/>
      <point x="273" y="-70" type="line"/>
      <point x="207" y="-70"/>
      <point x="180" y="-50"/>
      <point x="180" y="1" type="curve" smooth="yes"/>
      <point x="180" y="243" type="line" smooth="yes"/>
      <point x="180" y="315"/>
      <point x="153" y="334"/>
      <point x="105" y="349" type="curve"/>
      <point x="153" y="364"/>
      <point x="180" y="384"/>
      <point x="180" y="456" type="curve" smooth="yes"/>
      <point x="180" y="699" type="line" smooth="yes"/>
      <point x="180" y="750"/>
      <point x="207" y="769"/>
      <point x="273" y="769" type="curve"/>
    </contour>
  </outline>
</glyph>
<glyph name="braceright" format="2">
  <advance width="323"/>
  <unicode hex="007D"/>
  <outline>
    <contour>
      <point x="50" y="834" type="curve"/>
      <point x="50" y="769" type="line"/>
      <point x="116" y="769"/>
      <point x="143" y="750"/>
      <point x="143" y="699" type="curve" smooth="yes"/>
      <point x="143" y="456" type="line" smooth="yes"/>
      <point x="143" y="384"/>
      <point x="170" y="364"/>
      <point x="218" y="349" type="curve"/>
      <point x="170" y="334"/>
      <point x="143" y="315"/>
      <point x="143" y="243" type="curve" smooth="yes"/>
      <point x="143" y="1" type="line" smooth="yes"/>
      <point x="143" y="-50"/>
      <point x="116" y="-70"/>
      <point x="50" y="-70" type="curve"/>
      <point x="50" y="-134" type="line"/>
      <point x="176" y="-134"/>
      <point x="222" y="-92"/>
      <point x="222" y="9" type="curve" smooth="yes"/>
      <point x="222" y="239" type="line" smooth="yes"/>
      <point x="222" y="293"/>
      <point x="241" y="314"/>
      <point x="293" y="314" type="curve"/>
      <point x="293" y="384" type="line"/>
      <point x="241" y="384"/>
      <point x="222" y="406"/>
      <point x="222" y="461" type="curve" smooth="yes"/>
      <point x="222" y="691" type="line" smooth="yes"/>
      <point x="222" y="792"/>
      <point x="176" y="834"/>
    </contour>
  </outline>
</glyph>
<glyph name="asciitilde" format="2">
  <advance width="484"/>
  <unicode hex="007E"/>
  <anchor x="395" y="332" name="_center"/>
  <outline>
    <contour>
      <point x="317" y="253" type="curve" smooth="yes"/>
      <point x="386" y="253"/>
      <point x="424" y="300"/>
      <point x="445" y="340" type="curve"/>
      <point x="395" y="368" type="line"/>
      <point x="378" y="342"/>
      <point x="356" y="321"/>
      <point x="323" y="321" type="curve" smooth="yes"/>
      <point x="280" y="321"/>
      <point x="244" y="381"/>
      <point x="170" y="381" type="curve"/>
      <point x="99" y="381"/>
      <point x="60" y="329"/>
      <point x="39" y="289" type="curve"/>
      <point x="90" y="262" type="line"/>
      <point x="107" y="288"/>
      <point x="129" y="314"/>
      <point x="164" y="314" type="curve"/>
      <point x="204" y="314"/>
      <point x="241" y="253"/>
    </contour>
  </outline>
</glyph>
<glyph name="exclamdown" format="2">
  <advance width="241"/>
  <unicode hex="00A1"/>
  <outline>
    <contour>
      <point x="159" y="248" type="line"/>
      <point x="84" y="248" type="line"/>
      <point x="76" y="-201" type="line"/>
      <point x="168" y="-201" type="line"/>
    </contour>
    <contour>
      <point x="121" y="490" type="curve" smooth="yes"/>
      <point x="84" y="490"/>
      <point x="56" y="462"/>
      <point x="56" y="426" type="curve" smooth="yes"/>
      <point x="56" y="390"/>
      <point x="84" y="362"/>
      <point x="121" y="362" type="curve" smooth="yes"/>
      <point x="157" y="362"/>
      <point x="185" y="390"/>
      <point x="185" y="426" type="curve" smooth="yes"/>
      <point x="185" y="462"/>
      <point x="157" y="490"/>
    </contour>
  </outline>
</glyph>
<glyph name="cent" format="2">
  <advance width="476"/>
  <unicode hex="00A2"/>
  <anchor x="288" y="526" name="top"/>
  <anchor x="284" y="0" name="bottom"/>
  <outline>
    <contour>
      <point x="325" y="683" type="line"/>
      <point x="253" y="683" type="line"/>
      <point x="253" y="532" type="line"/>
      <point x="325" y="533" type="line"/>
    </contour>
    <contour>
      <point x="252" y="-6" type="line"/>
      <point x="252" y="-153" type="line"/>
      <point x="325" y="-153" type="line"/>
      <point x="325" y="-7" type="line"/>
    </contour>
    <component base="c"/>
  </outline>
</glyph>
<glyph name="currency" format="2">
  <advance width="560"/>
  <unicode hex="00A4"/>
  <outline>
    <contour>
      <point x="278" y="546" type="curve" smooth="yes"/>
      <point x="159" y="546"/>
      <point x="75" y="454"/>
      <point x="75" y="341" type="curve" smooth="yes"/>
      <point x="75" y="227"/>
      <point x="159" y="135"/>
      <point x="278" y="135" type="curve" smooth="yes"/>
      <point x="407" y="135"/>
      <point x="487" y="227"/>
      <point x="487" y="341" type="curve" smooth="yes"/>
      <point x="487" y="454"/>
      <point x="407" y="546"/>
    </contour>
    <contour>
      <point x="123" y="231" type="line"/>
      <point x="34" y="142" type="line"/>
      <point x="84" y="91" type="line"/>
      <point x="172" y="180" type="line"/>
    </contour>
    <contour>
      <point x="439" y="228" type="line"/>
      <point x="387" y="178" type="line"/>
      <point x="476" y="91" type="line"/>
      <point x="526" y="142" type="line"/>
    </contour>
    <contour>
      <point x="84" y="591" type="line"/>
      <point x="34" y="541" type="line"/>
      <point x="121" y="451" type="line"/>
      <point x="172" y="501" type="line"/>
    </contour>
    <contour>
      <point x="476" y="591" type="line"/>
      <point x="388" y="503" type="line"/>
      <point x="440" y="454" type="line"/>
      <point x="526" y="541" type="line"/>
    </contour>
    <contour>
      <point x="281" y="481" type="curve" smooth="yes"/>
      <point x="363" y="481"/>
      <point x="406" y="428"/>
      <point x="406" y="342" type="curve" smooth="yes"/>
      <point x="406" y="255"/>
      <point x="363" y="202"/>
      <point x="281" y="202" type="curve" smooth="yes"/>
      <point x="199" y="202"/>
      <point x="155" y="255"/>
      <point x="155" y="342" type="curve" smooth="yes"/>
      <point x="155" y="428"/>
      <point x="199" y="481"/>
    </contour>
  </outline>
</glyph>
<glyph name="yen" format="2">
  <advance width="530"/>
  <unicode hex="00A5"/>
  <outline>
    <contour>
      <point x="523" y="668" type="line"/>
      <point x="434" y="668" type="line"/>
      <point x="268" y="369" type="line"/>
      <point x="100" y="668" type="line"/>
      <point x="7" y="668" type="line"/>
      <point x="222" y="304" type="line"/>
      <point x="222" y="0" type="line"/>
      <point x="308" y="0" type="line"/>
      <point x="308" y="305" type="line"/>
    </contour>
    <contour>
      <point x="446" y="194" type="line"/>
      <point x="84" y="194" type="line"/>
      <point x="84" y="137" type="line"/>
      <point x="446" y="137" type="line"/>
    </contour>
    <contour>
      <point x="446" y="344" type="line"/>
      <point x="84" y="344" type="line"/>
      <point x="84" y="287" type="line"/>
      <point x="446" y="287" type="line"/>
    </contour>
  </outline>
</glyph>
<glyph name="brokenbar" format="2">
  <advance width="404"/>
  <unicode hex="00A6"/>
  <outline>
    <contour>
      <point x="240" y="737" type="line"/>
      <point x="164" y="737" type="line"/>
      <point x="164" y="373" type="line"/>
      <point x="240" y="373" type="line"/>
    </contour>
    <contour>
      <point x="240" y="332" type="line"/>
      <point x="164" y="332" type="line"/>
      <point x="164" y="-32" type="line"/>
      <point x="240" y="-32" type="line"/>
    </contour>
  </outline>
</glyph>
<glyph name="section" format="2">
  <advance width="533"/>
  <unicode hex="00A7"/>
  <outline>
    <contour>
      <point x="280" y="676" type="curve" smooth="yes"/>
      <point x="179" y="676"/>
      <point x="98" y="624"/>
      <point x="98" y="535" type="curve" smooth="yes"/>
      <point x="98" y="453"/>
      <point x="154" y="421"/>
      <point x="269" y="380" type="curve" smooth="yes"/>
      <point x="358" y="348"/>
      <point x="379" y="328"/>
      <point x="379" y="281" type="curve" smooth="yes"/>
      <point x="379" y="250"/>
      <point x="358" y="217"/>
      <point x="322" y="190" type="curve"/>
      <point x="370" y="163" type="line"/>
      <point x="421" y="193"/>
      <point x="460" y="236"/>
      <point x="460" y="289" type="curve" smooth="yes"/>
      <point x="460" y="368"/>
      <point x="411" y="404"/>
      <point x="305" y="440" type="curve" smooth="yes"/>
      <point x="202" y="474"/>
      <point x="181" y="494"/>
      <point x="181" y="541" type="curve" smooth="yes"/>
      <point x="181" y="583"/>
      <point x="221" y="611"/>
      <point x="279" y="611" type="curve" smooth="yes"/>
      <point x="334" y="611"/>
      <point x="373" y="597"/>
      <point x="415" y="570" type="curve"/>
      <point x="448" y="624" type="line"/>
      <point x="404" y="655"/>
      <point x="353" y="676"/>
    </contour>
    <contour>
      <point x="163" y="445" type="line"/>
      <point x="113" y="417"/>
      <point x="73" y="369"/>
      <point x="73" y="312" type="curve" smooth="yes"/>
      <point x="73" y="232"/>
      <point x="124" y="199"/>
      <point x="229" y="165" type="curve" smooth="yes"/>
      <point x="332" y="131"/>
      <point x="353" y="113"/>
      <point x="353" y="65" type="curve" smooth="yes"/>
      <point x="353" y="22"/>
      <point x="309" y="-4"/>
      <point x="250" y="-4" type="curve" smooth="yes"/>
      <point x="196" y="-4"/>
      <point x="153" y="8"/>
      <point x="112" y="36" type="curve"/>
      <point x="80" y="-21" type="line"/>
      <point x="122" y="-50"/>
      <point x="177" y="-70"/>
      <point x="247" y="-70" type="curve" smooth="yes"/>
      <point x="358" y="-70"/>
      <point x="437" y="-15"/>
      <point x="437" y="73" type="curve" smooth="yes"/>
      <point x="437" y="152"/>
      <point x="378" y="188"/>
      <point x="255" y="228" type="curve" smooth="yes"/>
      <point x="176" y="254"/>
      <point x="155" y="273"/>
      <point x="155" y="323" type="curve" smooth="yes"/>
      <point x="155" y="353"/>
      <point x="174" y="389"/>
      <point x="211" y="416" type="curve"/>
    </contour>
  </outline>
</glyph>
<glyph name="dieresis" format="2">
  <advance width="372"/>
  <unicode hex="00A8"/>
  <outline>
    <contour>
      <point x="288" y="762" type="curve" smooth="yes"/>
      <point x="258" y="762"/>
      <point x="235" y="739"/>
      <point x="235" y="709" type="curve" smooth="yes"/>
      <point x="235" y="679"/>
      <point x="258" y="656"/>
      <point x="288" y="656" type="curve" smooth="yes"/>
      <point x="319" y="656"/>
      <point x="342" y="679"/>
      <point x="342" y="709" type="curve" smooth="yes"/>
      <point x="342" y="739"/>
      <point x="319" y="762"/>
    </contour>
    <contour>
      <point x="84" y="762" type="curve" smooth="yes"/>
      <point x="53" y="762"/>
      <point x="30" y="739"/>
      <point x="30" y="709" type="curve" smooth="yes"/>
      <point x="30" y="679"/>
      <point x="53" y="656"/>
      <point x="84" y="656" type="curve" smooth="yes"/>
      <point x="114" y="656"/>
      <point x="137" y="679"/>
      <point x="137" y="709" type="curve" smooth="yes"/>
      <point x="137" y="739"/>
      <point x="114" y="762"/>
    </contour>
  </outline>
</glyph>
<glyph name="copyright" format="2">
  <advance width="810"/>
  <unicode hex="00A9"/>
  <outline>
    <contour>
      <point x="406" y="745" type="curve"/>
      <point x="233" y="745"/>
      <point x="96" y="608"/>
      <point x="96" y="434" type="curve" smooth="yes"/>
      <point x="96" y="261"/>
      <point x="233" y="124"/>
      <point x="406" y="124" type="curve"/>
      <point x="577" y="124"/>
      <point x="714" y="262"/>
      <point x="714" y="434" type="curve" smooth="yes"/>
      <point x="714" y="608"/>
      <point x="577" y="745"/>
    </contour>
    <contour>
      <point x="408" y="623" type="curve" smooth="yes"/>
      <point x="323" y="623"/>
      <point x="248" y="559"/>
      <point x="248" y="435" type="curve" smooth="yes"/>
      <point x="248" y="314"/>
      <point x="315" y="247"/>
      <point x="409" y="247" type="curve" smooth="yes"/>
      <point x="462" y="247"/>
      <point x="498" y="268"/>
      <point x="525" y="292" type="curve"/>
      <point x="495" y="336" type="line"/>
      <point x="471" y="318"/>
      <point x="447" y="306"/>
      <point x="411" y="306" type="curve" smooth="yes"/>
      <point x="357" y="306"/>
      <point x="318" y="347"/>
      <point x="318" y="435" type="curve" smooth="yes"/>
      <point x="318" y="531"/>
      <point x="361" y="567"/>
      <point x="411" y="567" type="curve" smooth="yes"/>
      <point x="440" y="567"/>
      <point x="464" y="558"/>
      <point x="487" y="539" type="curve"/>
      <point x="521" y="584" type="line"/>
      <point x="489" y="608"/>
      <point x="457" y="623"/>
    </contour>
    <contour>
      <point x="406" y="696" type="curve"/>
      <point x="550" y="696"/>
      <point x="658" y="581"/>
      <point x="658" y="434" type="curve" smooth="yes"/>
      <point x="658" y="289"/>
      <point x="550" y="174"/>
      <point x="406" y="174" type="curve"/>
      <point x="261" y="174"/>
      <point x="153" y="288"/>
      <point x="153" y="434" type="curve" smooth="yes"/>
      <point x="153" y="580"/>
      <point x="261" y="696"/>
    </contour>
  </outline>
</glyph>
<glyph name="ordfeminine" format="2">
  <advance width="500"/>
  <unicode hex="00AA"/>
  <outline>
    <contour>
      <point x="245" y="688" type="curve" smooth="yes"/>
      <point x="198" y="688"/>
      <point x="150" y="679"/>
      <point x="99" y="660" type="curve"/>
      <point x="119" y="603" type="line"/>
      <point x="161" y="617"/>
      <point x="201" y="624"/>
      <point x="232" y="624" type="curve" smooth="yes"/>
      <point x="291" y="624"/>
      <point x="317" y="605"/>
      <point x="317" y="550" type="curve"/>
      <point x="317" y="376" type="line"/>
      <point x="326" y="345" type="line"/>
      <point x="338" y="296"/>
      <point x="366" y="278"/>
      <point x="414" y="273" type="curve"/>
      <point x="432" y="328" type="line"/>
      <point x="411" y="336"/>
      <point x="399" y="347"/>
      <point x="399" y="382" type="curve" smooth="yes"/>
      <point x="399" y="555" type="line" smooth="yes"/>
      <point x="399" y="640"/>
      <point x="352" y="688"/>
    </contour>
    <contour>
      <point x="329" y="524" type="line"/>
      <point x="255" y="524" type="line" smooth="yes"/>
      <point x="137" y="524"/>
      <point x="68" y="478"/>
      <point x="68" y="393" type="curve" smooth="yes"/>
      <point x="68" y="321"/>
      <point x="119" y="272"/>
      <point x="203" y="272" type="curve" smooth="yes"/>
      <point x="259" y="272"/>
      <point x="307" y="293"/>
      <point x="337" y="342" type="curve"/>
      <point x="324" y="400" type="line"/>
      <point x="301" y="357"/>
      <point x="270" y="333"/>
      <point x="223" y="333" type="curve" smooth="yes"/>
      <point x="179" y="333"/>
      <point x="154" y="356"/>
      <point x="154" y="397" type="curve" smooth="yes"/>
      <point x="154" y="449"/>
      <point x="192" y="473"/>
      <point x="264" y="473" type="curve" smooth="yes"/>
      <point x="329" y="473" type="line"/>
    </contour>
    <component base="minus" xOffset="10" yOffset="-297"/>
  </outline>
</glyph>
<glyph name="logicalnot" format="2">
  <advance width="500"/>
  <unicode hex="00AC"/>
  <outline>
    <contour>
      <point x="436" y="358" type="line"/>
      <point x="64" y="358" type="line"/>
      <point x="64" y="287" type="line"/>
      <point x="360" y="287" type="line"/>
      <point x="360" y="147" type="line"/>
      <point x="436" y="147" type="line"/>
    </contour>
  </outline>
</glyph>
<glyph name="registered" format="2">
  <advance width="641"/>
  <unicode hex="00AE"/>
  <outline>
    <contour>
      <point x="319" y="747" type="curve"/>
      <point x="180" y="747"/>
      <point x="70" y="633"/>
      <point x="70" y="494" type="curve" smooth="yes"/>
      <point x="70" y="353"/>
      <point x="180" y="242"/>
      <point x="319" y="242" type="curve"/>
      <point x="462" y="242"/>
      <point x="571" y="354"/>
      <point x="571" y="494" type="curve" smooth="yes"/>
      <point x="571" y="634"/>
      <point x="462" y="747"/>
    </contour>
    <contour>
      <point x="354" y="487" type="line"/>
      <point x="304" y="478" type="line"/>
      <point x="372" y="360" type="line"/>
      <point x="435" y="360" type="line"/>
    </contour>
    <contour>
      <point x="319" y="701" type="curve"/>
      <point x="436" y="701"/>
      <point x="519" y="609"/>
      <point x="519" y="494" type="curve" smooth="yes"/>
      <point x="519" y="379"/>
      <point x="436" y="288"/>
      <point x="319" y="288" type="curve"/>
      <point x="206" y="288"/>
      <point x="121" y="379"/>
      <point x="121" y="494" type="curve" smooth="yes"/>
      <point x="121" y="608"/>
      <point x="206" y="701"/>
    </contour>
    <contour>
      <point x="306" y="635" type="curve" smooth="yes"/>
      <point x="230" y="635" type="line"/>
      <point x="230" y="360" type="line"/>
      <point x="283" y="360" type="line"/>
      <point x="283" y="593" type="line"/>
      <point x="313" y="593" type="line" smooth="yes"/>
      <point x="352" y="593"/>
      <point x="371" y="582"/>
      <point x="371" y="552" type="curve" smooth="yes"/>
      <point x="371" y="521"/>
      <point x="349" y="509"/>
      <point x="316" y="509" type="curve" smooth="yes"/>
      <point x="273" y="509" type="line"/>
      <point x="273" y="467" type="line"/>
      <point x="320" y="467" type="line"/>
      <point x="347" y="473" type="line"/>
      <point x="391" y="481"/>
      <point x="426" y="507"/>
      <point x="426" y="552" type="curve" smooth="yes"/>
      <point x="426" y="608"/>
      <point x="387" y="635"/>
    </contour>
  </outline>
</glyph>
<glyph name="macron" format="2">
  <advance width="325"/>
  <unicode hex="00AF"/>
  <outline>
    <contour>
      <point x="295" y="669" type="line"/>
      <point x="295" y="733" type="line"/>
      <point x="30" y="733" type="line"/>
      <point x="30" y="669" type="line"/>
    </contour>
  </outline>
</glyph>
<glyph name="degree" format="2">
  <advance width="522"/>
  <unicode hex="00B0"/>
  <outline>
    <contour>
      <point x="219" y="442" type="curve" smooth="yes"/>
      <point x="172" y="442"/>
      <point x="129" y="475"/>
      <point x="129" y="542" type="curve" smooth="yes"/>
      <point x="129" y="609"/>
      <point x="172" y="641"/>
      <point x="219" y="641" type="curve" smooth="yes"/>
      <point x="268" y="641"/>
      <point x="309" y="607"/>
      <point x="309" y="541" type="curve" smooth="yes"/>
      <point x="309" y="475"/>
      <point x="268" y="442"/>
    </contour>
    <contour>
      <point x="219" y="384" type="curve" smooth="yes"/>
      <point x="302" y="384"/>
      <point x="380" y="440"/>
      <point x="380" y="541" type="curve" smooth="yes"/>
      <point x="380" y="642"/>
      <point x="302" y="700"/>
      <point x="219" y="700" type="curve" smooth="yes"/>
      <point x="138" y="700"/>
      <point x="58" y="643"/>
      <point x="58" y="542" type="curve" smooth="yes"/>
      <point x="58" y="441"/>
      <point x="138" y="384"/>
    </contour>
  </outline>
</glyph>
<glyph name="paragraph" format="2">
  <advance width="728"/>
  <unicode hex="00B6"/>
  <outline>
    <contour>
      <point x="585" y="688" type="line"/>
      <point x="335" y="687" type="line"/>
      <point x="316" y="643" type="line"/>
      <point x="316" y="-213" type="line"/>
      <point x="392" y="-201" type="line"/>
      <point x="392" y="620" type="line"/>
      <point x="509" y="620" type="line"/>
      <point x="509" y="-213" type="line"/>
      <point x="585" y="-201" type="line"/>
    </contour>
    <contour>
      <point x="335" y="687" type="line"/>
      <point x="186" y="687"/>
      <point x="93" y="615"/>
      <point x="93" y="486" type="curve" smooth="yes"/>
      <point x="93" y="372"/>
      <point x="163" y="285"/>
      <point x="337" y="285" type="curve"/>
    </contour>
  </outline>
</glyph>
<glyph name="ordmasculine" format="2">
  <advance width="500"/>
  <unicode hex="00BA"/>
  <outline>
    <contour>
      <point x="251" y="688" type="curve" smooth="yes"/>
      <point x="130" y="688"/>
      <point x="59" y="605"/>
      <point x="59" y="480" type="curve" smooth="yes"/>
      <point x="59" y="351"/>
      <point x="129" y="272"/>
      <point x="250" y="272" type="curve" smooth="yes"/>
      <point x="370" y="272"/>
      <point x="441" y="355"/>
      <point x="441" y="480" type="curve" smooth="yes"/>
      <point x="441" y="610"/>
      <point x="371" y="688"/>
    </contour>
    <contour>
      <point x="251" y="624" type="curve" smooth="yes"/>
      <point x="318" y="624"/>
      <point x="354" y="579"/>
      <point x="354" y="480" type="curve" smooth="yes"/>
      <point x="354" y="381"/>
      <point x="317" y="335"/>
      <point x="250" y="335" type="curve" smooth="yes"/>
      <point x="183" y="335"/>
      <point x="146" y="382"/>
      <point x="146" y="480" type="curve" smooth="yes"/>
      <point x="146" y="579"/>
      <point x="183" y="624"/>
    </contour>
    <component base="minus" xOffset="1" yOffset="-297"/>
  </outline>
</glyph>
<glyph name="questiondown" format="2">
  <advance width="456"/>
  <unicode hex="00BF"/>
  <outline>
    <contour>
      <point x="219" y="-213" type="curve" smooth="yes"/>
      <point x="301" y="-213"/>
      <point x="367" y="-181"/>
      <point x="424" y="-115" type="curve"/>
      <point x="366" y="-71" type="line"/>
      <point x="324" y="-121"/>
      <point x="277" y="-143"/>
      <point x="224" y="-143" type="curve" smooth="yes"/>
      <point x="161" y="-143"/>
      <point x="120" y="-110"/>
      <point x="120" y="-55" type="curve" smooth="yes"/>
      <point x="120" y="56"/>
      <point x="297" y="39"/>
      <point x="297" y="201" type="curve" smooth="yes"/>
      <point x="297" y="248" type="line"/>
      <point x="214" y="248" type="line"/>
      <point x="214" y="205" type="line" smooth="yes"/>
      <point x="214" y="78"/>
      <point x="33" y="98"/>
      <point x="33" y="-60" type="curve" smooth="yes"/>
      <point x="33" y="-139"/>
      <point x="97" y="-213"/>
    </contour>
    <contour>
      <point x="253" y="362" type="curve" smooth="yes"/>
      <point x="289" y="362"/>
      <point x="317" y="390"/>
      <point x="317" y="426" type="curve" smooth="yes"/>
      <point x="317" y="462"/>
      <point x="289" y="490"/>
      <point x="253" y="490" type="curve" smooth="yes"/>
      <point x="216" y="490"/>
      <point x="188" y="462"/>
      <point x="188" y="426" type="curve" smooth="yes"/>
      <point x="188" y="390"/>
      <point x="216" y="362"/>
    </contour>
  </outline>
</glyph>
<glyph name="AE" format="2">
  <advance width="808"/>
  <unicode hex="00C6"/>
  <anchor x="404" y="0" name="bottom"/>
  <anchor x="470" y="688" name="top"/>
  <outline>
    <contour>
      <point x="714" y="688" type="line"/>
      <point x="263" y="688" type="line"/>
      <point x="-9" y="0" type="line"/>
      <point x="79" y="0" type="line"/>
      <point x="313" y="619" type="line"/>
      <point x="459" y="0" type="line"/>
      <point x="756" y="0" type="line"/>
      <point x="756" y="70" type="line"/>
      <point x="529" y="70" type="line"/>
      <point x="391" y="618" type="line"/>
      <point x="704" y="618" type="line"/>
    </contour>
    <contour>
      <point x="416" y="246" type="line"/>
      <point x="156" y="246" type="line"/>
      <point x="130" y="176" type="line"/>
      <point x="431" y="176" type="line"/>
    </contour>
    <contour>
      <point x="705" y="385" type="line"/>
      <point x="434" y="385" type="line"/>
      <point x="453" y="315" type="line"/>
      <point x="705" y="315" type="line"/>
    </contour>
  </outline>
</glyph>
<glyph name="Eth" format="2">
  <advance width="651"/>
  <unicode hex="00D0"/>
  <anchor x="312" y="688" name="top"/>
  <anchor x="332" y="344" name="center"/>
  <anchor x="310" y="0" name="bottom"/>
  <outline>
    <contour>
      <point x="361" y="385" type="line"/>
      <point x="113" y="385" type="line"/>
      <point x="21" y="385" type="line"/>
      <point x="21" y="320" type="line"/>
      <point x="361" y="320" type="line"/>
    </contour>
    <component base="D" xOffset="10"/>
  </outline>
</glyph>
<glyph name="multiply" format="2">
  <advance width="498"/>
  <unicode hex="00D7"/>
  <outline>
    <contour>
      <point x="372" y="483" type="line"/>
      <point x="249" y="358" type="line"/>
      <point x="127" y="483" type="line"/>
      <point x="75" y="430" type="line"/>
      <point x="198" y="307" type="line"/>
      <point x="75" y="184" type="line"/>
      <point x="127" y="132" type="line"/>
      <point x="249" y="256" type="line"/>
      <point x="372" y="132" type="line"/>
      <point x="423" y="184" type="line"/>
      <point x="300" y="307" type="line"/>
      <point x="423" y="430" type="line"/>
    </contour>
  </outline>
</glyph>
<glyph name="Oslash" format="2">
  <advance width="692"/>
  <unicode hex="00D8"/>
  <anchor x="346" y="0" name="bottom"/>
  <anchor x="340" y="702" name="top"/>
  <outline>
    <contour>
      <point x="346" y="700" type="curve" smooth="yes"/>
      <point x="176" y="700"/>
      <point x="58" y="569"/>
      <point x="58" y="342" type="curve" smooth="yes"/>
      <point x="58" y="112"/>
      <point x="175" y="-12"/>
      <point x="346" y="-12" type="curve" smooth="yes"/>
      <point x="518" y="-12"/>
      <point x="634" y="116"/>
      <point x="634" y="343" type="curve" smooth="yes"/>
      <point x="634" y="575"/>
      <point x="517" y="700"/>
    </contour>
    <contour>
      <point x="346" y="628" type="curve"/>
      <point x="467" y="628"/>
      <point x="542" y="553"/>
      <point x="542" y="343" type="curve" smooth="yes"/>
      <point x="542" y="142"/>
      <point x="466" y="60"/>
      <point x="346" y="60" type="curve" smooth="yes"/>
      <point x="230" y="60"/>
      <point x="150" y="133"/>
      <point x="150" y="342" type="curve" smooth="yes"/>
      <point x="150" y="544"/>
      <point x="228" y="628"/>
    </contour>
    <contour>
      <point x="451" y="817" type="line"/>
      <point x="412" y="688" type="line"/>
      <point x="401" y="630" type="line"/>
      <point x="236" y="79" type="line"/>
      <point x="211" y="30" type="line"/>
      <point x="169" y="-106" type="line"/>
      <point x="242" y="-125" type="line"/>
      <point x="278" y="0" type="line"/>
      <point x="289" y="58" type="line"/>
      <point x="455" y="612" type="line"/>
      <point x="479" y="659" type="line"/>
      <point x="523" y="797" type="line"/>
    </contour>
  </outline>
</glyph>
<glyph name="Thorn" format="2">
  <advance width="578"/>
  <unicode hex="00DE"/>
  <anchor x="289" y="0" name="bottom"/>
  <anchor x="289" y="688" name="top"/>
  <outline>
    <contour>
      <point x="279" y="569" type="curve" smooth="yes"/>
      <point x="174" y="569" type="line"/>
      <point x="189" y="501" type="line"/>
      <point x="278" y="501" type="line" smooth="yes"/>
      <point x="384" y="501"/>
      <point x="451" y="463"/>
      <point x="451" y="353" type="curve" smooth="yes"/>
      <point x="451" y="230"/>
      <point x="381" y="198"/>
      <point x="276" y="198" type="curve" smooth="yes"/>
      <point x="174" y="198" type="line"/>
      <point x="174" y="129" type="line"/>
      <point x="279" y="129" type="line" smooth="yes"/>
      <point x="430" y="129"/>
      <point x="543" y="193"/>
      <point x="543" y="354" type="curve" smooth="yes"/>
      <point x="543" y="502"/>
      <point x="443" y="569"/>
    </contour>
    <contour>
      <point x="189" y="688" type="line"/>
      <point x="103" y="688" type="line"/>
      <point x="103" y="0" type="line"/>
      <point x="189" y="0" type="line"/>
    </contour>
  </outline>
</glyph>
<glyph name="germandbls" format="2">
  <advance width="590"/>
  <unicode hex="00DF"/>
  <outline>
    <contour>
      <point x="295" y="748" type="curve" smooth="yes"/>
      <point x="171" y="748"/>
      <point x="98" y="672"/>
      <point x="98" y="539" type="curve" smooth="yes"/>
      <point x="98" y="0" type="line"/>
      <point x="182" y="0" type="line"/>
      <point x="182" y="539" type="line" smooth="yes"/>
      <point x="182" y="637"/>
      <point x="224" y="682"/>
      <point x="295" y="682" type="curve" smooth="yes"/>
      <point x="348" y="682"/>
      <point x="391" y="655"/>
      <point x="391" y="603" type="curve" smooth="yes"/>
      <point x="391" y="513"/>
      <point x="280" y="514"/>
      <point x="280" y="420" type="curve" smooth="yes"/>
      <point x="280" y="299"/>
      <point x="463" y="298"/>
      <point x="463" y="161" type="curve" smooth="yes"/>
      <point x="463" y="91"/>
      <point x="422" y="56"/>
      <point x="366" y="56" type="curve" smooth="yes"/>
      <point x="333" y="56"/>
      <point x="313" y="63"/>
      <point x="298" y="70" type="curve"/>
      <point x="273" y="11" type="line"/>
      <point x="299" y="-3"/>
      <point x="328" y="-12"/>
      <point x="374" y="-12" type="curve" smooth="yes"/>
      <point x="467" y="-12"/>
      <point x="548" y="54"/>
      <point x="548" y="160" type="curve" smooth="yes"/>
      <point x="548" y="335"/>
      <point x="359" y="342"/>
      <point x="359" y="426" type="curve" smooth="yes"/>
      <point x="359" y="491"/>
      <point x="472" y="499"/>
      <point x="472" y="607" type="curve" smooth="yes"/>
      <point x="472" y="687"/>
      <point x="404" y="748"/>
    </contour>
  </outline>
</glyph>
<glyph name="ae" format="2">
  <advance width="853"/>
  <unicode hex="00E6"/>
  <anchor x="417" y="0" name="bottom"/>
  <anchor x="426" y="526" name="top"/>
  <outline>
    <contour>
      <point x="585" y="538" type="curve" smooth="yes"/>
      <point x="449" y="538"/>
      <point x="389" y="427"/>
      <point x="365" y="265" type="curve"/>
      <point x="364" y="257" type="line"/>
      <point x="365" y="89"/>
      <point x="451" y="-12"/>
      <point x="595" y="-12" type="curve" smooth="yes"/>
      <point x="667" y="-12"/>
      <point x="724" y="13"/>
      <point x="776" y="54" type="curve"/>
      <point x="739" y="104" type="line"/>
      <point x="693" y="72"/>
      <point x="654" y="57"/>
      <point x="601" y="57" type="curve" smooth="yes"/>
      <point x="515" y="57"/>
      <point x="453" y="115"/>
      <point x="453" y="264" type="curve"/>
      <point x="453" y="410"/>
      <point x="504" y="471"/>
      <point x="583" y="471" type="curve" smooth="yes"/>
      <point x="670" y="471"/>
      <point x="712" y="410"/>
      <point x="712" y="304" type="curve" smooth="yes"/>
      <point x="712" y="301"/>
      <point x="712" y="299"/>
      <point x="712" y="296" type="curve"/>
      <point x="439" y="296" type="line"/>
      <point x="439" y="234" type="line"/>
      <point x="793" y="234" type="line"/>
      <point x="794" y="245"/>
      <point x="795" y="262"/>
      <point x="795" y="280" type="curve" smooth="yes"/>
      <point x="795" y="439"/>
      <point x="721" y="538"/>
    </contour>
    <contour>
      <point x="378" y="320" type="line"/>
      <point x="279" y="320" type="line" smooth="yes"/>
      <point x="135" y="320"/>
      <point x="48" y="259"/>
      <point x="48" y="147" type="curve" smooth="yes"/>
      <point x="48" y="53"/>
      <point x="112" y="-12"/>
      <point x="217" y="-12" type="curve" smooth="yes"/>
      <point x="301" y="-12"/>
      <point x="361" y="18"/>
      <point x="414" y="99" type="curve"/>
      <point x="387" y="160" type="line"/>
      <point x="343" y="85"/>
      <point x="298" y="52"/>
      <point x="235" y="52" type="curve" smooth="yes"/>
      <point x="173" y="52"/>
      <point x="140" y="87"/>
      <point x="140" y="151" type="curve" smooth="yes"/>
      <point x="140" y="226"/>
      <point x="191" y="263"/>
      <point x="290" y="263" type="curve" smooth="yes"/>
      <point x="378" y="263" type="line"/>
    </contour>
    <contour>
      <point x="266" y="538" type="curve"/>
      <point x="208" y="538"/>
      <point x="152" y="526"/>
      <point x="88" y="502" type="curve"/>
      <point x="110" y="440" type="line"/>
      <point x="163" y="459"/>
      <point x="212" y="469"/>
      <point x="252" y="469" type="curve"/>
      <point x="328" y="469"/>
      <point x="364" y="439"/>
      <point x="364" y="361" type="curve"/>
      <point x="364" y="260" type="line"/>
      <point x="448" y="261" type="line"/>
      <point x="448" y="365" type="line"/>
      <point x="434" y="466"/>
      <point x="392" y="538"/>
    </contour>
  </outline>
</glyph>
<glyph name="eth" format="2">
  <advance width="568"/>
  <unicode hex="00F0"/>
  <anchor x="277" y="0" name="bottom"/>
  <anchor x="293" y="738" name="top"/>
  <outline>
    <contour>
      <point x="134" y="749" type="curve"/>
      <point x="116" y="684" type="line"/>
      <point x="168" y="674"/>
      <point x="210" y="659"/>
      <point x="260" y="631" type="curve"/>
      <point x="351" y="570"/>
      <point x="395" y="494"/>
      <point x="411" y="391" type="curve"/>
      <point x="414" y="346" type="line"/>
      <point x="416" y="322"/>
      <point x="418" y="299"/>
      <point x="418" y="270" type="curve" smooth="yes"/>
      <point x="418" y="129"/>
      <point x="360" y="55"/>
      <point x="276" y="55" type="curve" smooth="yes"/>
      <point x="197" y="55"/>
      <point x="145" y="119"/>
      <point x="145" y="238" type="curve" smooth="yes"/>
      <point x="145" y="329"/>
      <point x="176" y="407"/>
      <point x="271" y="407" type="curve" smooth="yes"/>
      <point x="339" y="407"/>
      <point x="388" y="374"/>
      <point x="424" y="313" type="curve"/>
      <point x="418" y="392" type="line"/>
      <point x="380" y="442"/>
      <point x="330" y="473"/>
      <point x="258" y="473" type="curve" smooth="yes"/>
      <point x="123" y="473"/>
      <point x="59" y="353"/>
      <point x="59" y="234" type="curve" smooth="yes"/>
      <point x="59" y="78"/>
      <point x="153" y="-12"/>
      <point x="277" y="-12" type="curve" smooth="yes"/>
      <point x="411" y="-12"/>
      <point x="503" y="95"/>
      <point x="503" y="268" type="curve" smooth="yes"/>
      <point x="503" y="465"/>
      <point x="452" y="592"/>
      <point x="306" y="686" type="curve"/>
      <point x="251" y="718"/>
      <point x="198" y="736"/>
    </contour>
    <contour>
      <point x="352" y="773" type="line"/>
      <point x="271" y="687" type="line"/>
      <point x="242" y="657" type="line"/>
      <point x="155" y="569" type="line"/>
      <point x="213" y="540" type="line"/>
      <point x="298" y="623" type="line"/>
      <point x="329" y="655" type="line"/>
      <point x="402" y="730" type="line"/>
    </contour>
  </outline>
</glyph>
<glyph name="dcroat" format="2">
  <advance width="604"/>
  <unicode hex="0111"/>
  <anchor x="298" y="738" name="top"/>
  <anchor x="302" y="263" name="center"/>
  <anchor x="510" y="738" name="topright"/>
  <anchor x="307" y="0" name="bottom"/>
  <outline>
    <contour>
      <point x="576" y="673" type="line"/>
      <point x="254" y="673" type="line"/>
      <point x="254" y="608" type="line"/>
      <point x="497" y="608" type="line"/>
      <point x="576" y="608" type="line"/>
    </contour>
    <component base="d"/>
  </outline>
</glyph>
<glyph name="Hbar" format="2">
  <advance width="685"/>
  <unicode hex="0126"/>
  <anchor x="93" y="688" name="topleft"/>
  <anchor x="342" y="688" name="top"/>
  <anchor x="342" y="344" name="center"/>
  <anchor x="588" y="0" name="bottomright"/>
  <anchor x="342" y="0" name="bottom"/>
  <outline>
    <contour>
      <point x="647" y="572" type="line"/>
      <point x="579" y="572" type="line"/>
      <point x="38" y="572" type="line"/>
      <point x="38" y="509" type="line"/>
      <point x="106" y="509" type="line"/>
      <point x="647" y="509" type="line"/>
    </contour>
    <component base="H" xOffset="3"/>
  </outline>
</glyph>
<glyph name="dotlessi" format="2">
  <advance width="279"/>
  <unicode hex="0131"/>
  <anchor x="140" y="0" name="bottom"/>
  <anchor x="192" y="0" name="ogonek"/>
  <anchor x="140" y="526" name="top"/>
  <outline>
    <contour>
      <point x="182" y="526" type="line"/>
      <point x="98" y="526" type="line"/>
      <point x="98" y="0" type="line"/>
      <point x="182" y="0" type="line"/>
    </contour>
  </outline>
</glyph>
<glyph name="kgreenlandic" format="2">
  <advance width="504"/>
  <unicode hex="0138"/>
  <anchor x="252" y="0" name="bottom"/>
  <anchor x="252" y="526" name="top"/>
  <outline>
    <contour>
      <point x="480" y="526" type="line"/>
      <point x="385" y="526" type="line"/>
      <point x="185" y="277" type="line"/>
      <point x="401" y="0" type="line"/>
      <point x="502" y="0" type="line"/>
      <point x="280" y="283" type="line"/>
    </contour>
    <contour>
      <point x="182" y="526" type="line"/>
      <point x="98" y="526" type="line"/>
      <point x="98" y="0" type="line"/>
      <point x="182" y="0" type="line"/>
    </contour>
  </outline>
</glyph>
<glyph name="Lslash" format="2">
  <advance width="508"/>
  <unicode hex="0141"/>
  <anchor x="161" y="688" name="top"/>
  <anchor x="400" y="385" name="center"/>
  <anchor x="226" y="688" name="topright"/>
  <anchor x="299" y="0" name="bottom"/>
  <outline>
    <contour>
      <point x="369" y="495" type="line"/>
      <point x="117" y="339" type="line"/>
      <point x="25" y="282" type="line"/>
      <point x="59" y="227" type="line"/>
      <point x="404" y="440" type="line"/>
    </contour>
    <component base="L" xOffset="15"/>
  </outline>
</glyph>
<glyph name="lslash" format="2">
  <advance width="309"/>
  <unicode hex="0142"/>
  <anchor x="141" y="738" name="top"/>
  <anchor x="298" y="379" name="center"/>
  <anchor x="196" y="738" name="topright"/>
  <anchor x="184" y="0" name="bottom"/>
  <outline>
    <contour>
      <point x="46" y="273" type="line"/>
      <point x="306" y="432" type="line"/>
      <point x="275" y="487" type="line"/>
      <point x="99" y="380" type="line"/>
      <point x="14" y="327" type="line"/>
    </contour>
    <component base="l" xOffset="6"/>
  </outline>
</glyph>
<glyph name="napostrophe" format="2">
  <advance width="688"/>
  <unicode hex="0149"/>
  <anchor x="191" y="526" name="topleft"/>
  <anchor x="401" y="526" name="top"/>
  <anchor x="395" y="0" name="bottom"/>
  <outline>
    <contour>
      <point x="102" y="751" type="curve" smooth="yes"/>
      <point x="71" y="751"/>
      <point x="47" y="728"/>
      <point x="47" y="698" type="curve" smooth="yes"/>
      <point x="47" y="680"/>
      <point x="56" y="665"/>
      <point x="71" y="653" type="curve"/>
      <point x="42" y="537" type="line"/>
      <point x="91" y="537" type="line"/>
      <point x="131" y="624" type="line" smooth="yes"/>
      <point x="150" y="666"/>
      <point x="156" y="681"/>
      <point x="156" y="698" type="curve" smooth="yes"/>
      <point x="156" y="728"/>
      <point x="133" y="751"/>
    </contour>
    <component base="n" xOffset="103"/>
  </outline>
</glyph>
<glyph name="OE" format="2">
  <advance width="900"/>
  <unicode hex="0152"/>
  <anchor x="450" y="0" name="bottom"/>
  <anchor x="450" y="688" name="top"/>
  <outline>
    <contour>
      <point x="333" y="700" type="curve" smooth="yes"/>
      <point x="176" y="700"/>
      <point x="58" y="569"/>
      <point x="58" y="342" type="curve" smooth="yes"/>
      <point x="58" y="112"/>
      <point x="175" y="-12"/>
      <point x="333" y="-12" type="curve" smooth="yes"/>
      <point x="382" y="-12"/>
      <point x="431" y="3"/>
      <point x="464" y="35" type="curve"/>
      <point x="561" y="88"/>
      <point x="614" y="200"/>
      <point x="614" y="345" type="curve" smooth="yes"/>
      <point x="614" y="487"/>
      <point x="567" y="595"/>
      <point x="480" y="647" type="curve"/>
      <point x="440" y="683"/>
      <point x="388" y="700"/>
    </contour>
    <contour>
      <point x="838" y="70" type="line"/>
      <point x="493" y="70" type="line"/>
      <point x="404" y="0" type="line"/>
      <point x="838" y="0" type="line"/>
    </contour>
    <contour>
      <point x="785" y="386" type="line"/>
      <point x="555" y="386" type="line"/>
      <point x="555" y="316" type="line"/>
      <point x="785" y="316" type="line"/>
    </contour>
    <contour>
      <point x="831" y="688" type="line"/>
      <point x="405" y="688" type="line"/>
      <point x="501" y="618" type="line"/>
      <point x="821" y="618" type="line"/>
    </contour>
    <contour>
      <point x="336" y="628" type="curve"/>
      <point x="447" y="628"/>
      <point x="522" y="544"/>
      <point x="522" y="345" type="curve" smooth="yes"/>
      <point x="522" y="142"/>
      <point x="446" y="60"/>
      <point x="336" y="60" type="curve" smooth="yes"/>
      <point x="230" y="60"/>
      <point x="150" y="142"/>
      <point x="150" y="342" type="curve" smooth="yes"/>
      <point x="150" y="544"/>
      <point x="228" y="628"/>
    </contour>
  </outline>
</glyph>
<glyph name="Tbar" format="2">
  <advance width="515"/>
  <unicode hex="0166"/>
  <anchor x="256" y="686" name="top"/>
  <anchor x="256" y="343" name="center"/>
  <anchor x="309" y="-2" name="bottomright"/>
  <anchor x="256" y="-2" name="bottom"/>
  <outline>
    <contour>
      <point x="424" y="386" type="line"/>
      <point x="89" y="386" type="line"/>
      <point x="89" y="322" type="line"/>
      <point x="213" y="322" type="line"/>
      <point x="424" y="322" type="line"/>
    </contour>
    <component base="T" yOffset="-2"/>
  </outline>
</glyph>
<glyph name="tbar" format="2">
  <advance width="356"/>
  <unicode hex="0167"/>
  <anchor x="144" y="647" name="top"/>
  <anchor x="177" y="263" name="center"/>
  <anchor x="185" y="746" name="topright"/>
  <anchor x="232" y="0" name="bottom"/>
  <outline>
    <contour>
      <point x="299" y="355" type="line"/>
      <point x="102" y="355" type="line"/>
      <point x="21" y="355" type="line"/>
      <point x="21" y="290" type="line"/>
      <point x="299" y="290" type="line"/>
    </contour>
    <component base="t"/>
  </outline>
</glyph>
<glyph name="bstroke" format="2">
  <advance width="599"/>
  <unicode hex="0180"/>
  <anchor x="319" y="738" name="top"/>
  <anchor x="315" y="0" name="bottom"/>
  <outline>
    <contour>
      <point x="342" y="673" type="line"/>
      <point x="28" y="673" type="line"/>
      <point x="28" y="608" type="line"/>
      <point x="106" y="608" type="line"/>
      <point x="342" y="608" type="line"/>
    </contour>
    <component base="b" xOffset="8"/>
  </outline>
</glyph>
<glyph name="btopbar" format="2">
  <advance width="591"/>
  <unicode hex="0183"/>
  <anchor x="295" y="0" name="bottom"/>
  <anchor x="295" y="738" name="top"/>
  <outline>
    <contour>
      <point x="322" y="-12" type="curve" smooth="yes"/>
      <point x="450" y="-12"/>
      <point x="527" y="98"/>
      <point x="527" y="264" type="curve" smooth="yes"/>
      <point x="527" y="439"/>
      <point x="452" y="538"/>
      <point x="333" y="538" type="curve" smooth="yes"/>
      <point x="262" y="538"/>
      <point x="209" y="502"/>
      <point x="172" y="444" type="curve"/>
      <point x="174" y="374" type="line"/>
      <point x="203" y="423"/>
      <point x="244" y="471"/>
      <point x="310" y="471" type="curve" smooth="yes"/>
      <point x="387" y="471"/>
      <point x="437" y="415"/>
      <point x="437" y="264" type="curve" smooth="yes"/>
      <point x="437" y="118"/>
      <point x="383" y="55"/>
      <point x="303" y="55" type="curve" smooth="yes"/>
      <point x="247" y="55"/>
      <point x="201" y="92"/>
      <point x="173" y="143" type="curve"/>
      <point x="167" y="76" type="line"/>
      <point x="204" y="23"/>
      <point x="255" y="-12"/>
    </contour>
    <contour>
      <point x="98" y="0" type="line"/>
      <point x="171" y="0" type="line"/>
      <point x="182" y="73" type="line"/>
      <point x="182" y="738" type="line"/>
      <point x="98" y="738" type="line"/>
    </contour>
    <contour>
      <point x="182" y="674" type="line"/>
      <point x="397" y="674" type="line"/>
      <point x="408" y="738" type="line"/>
      <point x="108" y="738" type="line"/>
    </contour>
  </outline>
</glyph>
<glyph name="Tonesix" format="2">
  <advance width="570"/>
  <unicode hex="0184"/>
  <anchor x="285" y="0" name="bottom"/>
  <anchor x="285" y="688" name="top"/>
  <outline>
    <contour>
      <point x="102" y="0" type="line"/>
      <point x="280" y="0" type="line" smooth="yes"/>
      <point x="434" y="0"/>
      <point x="543" y="61"/>
      <point x="543" y="222" type="curve" smooth="yes"/>
      <point x="543" y="365"/>
      <point x="443" y="433"/>
      <point x="284" y="433" type="curve" smooth="yes"/>
      <point x="174" y="433" type="line"/>
      <point x="174" y="365" type="line"/>
      <point x="285" y="365" type="line" smooth="yes"/>
      <point x="389" y="365"/>
      <point x="450" y="327"/>
      <point x="450" y="220" type="curve" smooth="yes"/>
      <point x="450" y="100"/>
      <point x="382" y="70"/>
      <point x="288" y="70" type="curve" smooth="yes"/>
      <point x="188" y="70" type="line"/>
      <point x="188" y="688" type="line"/>
      <point x="111" y="688" type="line"/>
      <point x="102" y="578" type="line"/>
    </contour>
    <contour>
      <point x="102" y="530" type="line"/>
      <point x="111" y="688" type="line"/>
      <point x="92" y="642"/>
      <point x="64" y="600"/>
      <point x="37" y="570" type="curve"/>
    </contour>
  </outline>
</glyph>
<glyph name="tonesix" format="2">
  <advance width="516"/>
  <unicode hex="0185"/>
  <anchor x="258" y="0" name="bottom"/>
  <anchor x="258" y="526" name="top"/>
  <outline>
    <contour>
      <point x="101" y="0" type="line"/>
      <point x="276" y="0" type="line"/>
      <point x="383" y="0"/>
      <point x="481" y="54"/>
      <point x="481" y="179" type="curve" smooth="yes"/>
      <point x="481" y="286"/>
      <point x="422" y="355"/>
      <point x="260" y="355" type="curve" smooth="yes"/>
      <point x="170" y="355" type="line"/>
      <point x="170" y="290" type="line"/>
      <point x="260" y="290" type="line" smooth="yes"/>
      <point x="360" y="290"/>
      <point x="391" y="251"/>
      <point x="391" y="179" type="curve" smooth="yes"/>
      <point x="391" y="94"/>
      <point x="342" y="66"/>
      <point x="269" y="66" type="curve" smooth="yes"/>
      <point x="185" y="66" type="line"/>
      <point x="185" y="526" type="line"/>
      <point x="110" y="526" type="line"/>
      <point x="101" y="456" type="line"/>
    </contour>
    <contour>
      <point x="101" y="378" type="line"/>
      <point x="110" y="526" type="line"/>
      <point x="90" y="483"/>
      <point x="65" y="448"/>
      <point x="36" y="418" type="curve"/>
    </contour>
  </outline>
</glyph>
<glyph name="Oopen" format="2">
  <advance width="558"/>
  <unicode hex="0186"/>
  <anchor x="228" y="0" name="bottom"/>
  <anchor x="218" y="346" name="center"/>
  <anchor x="228" y="688" name="top"/>
  <outline>
    <contour>
      <point x="236" y="700" type="curve" smooth="yes"/>
      <point x="149" y="700"/>
      <point x="86" y="676"/>
      <point x="29" y="633" type="curve"/>
      <point x="74" y="578" type="line"/>
      <point x="120" y="610"/>
      <point x="171" y="628"/>
      <point x="230" y="628" type="curve" smooth="yes"/>
      <point x="329" y="628"/>
      <point x="408" y="555"/>
      <point x="408" y="344" type="curve" smooth="yes"/>
      <point x="408" y="143"/>
      <point x="322" y="62"/>
      <point x="213" y="62" type="curve" smooth="yes"/>
      <point x="147" y="62"/>
      <point x="105" y="89"/>
      <point x="64" y="118" type="curve"/>
      <point x="21" y="64" type="line"/>
      <point x="63" y="25"/>
      <point x="124" y="-12"/>
      <point x="215" y="-12" type="curve" smooth="yes"/>
      <point x="380" y="-12"/>
      <point x="500" y="113"/>
      <point x="500" y="345" type="curve" smooth="yes"/>
      <point x="500" y="578"/>
      <point x="397" y="700"/>
    </contour>
  </outline>
</glyph>
<glyph name="Chook" format="2">
  <advance width="558"/>
  <unicode hex="0187"/>
  <anchor x="279" y="0" name="bottom"/>
  <anchor x="279" y="688" name="top"/>
  <outline>
    <contour>
      <point x="343" y="-12" type="curve" smooth="yes"/>
      <point x="434" y="-12"/>
      <point x="499" y="25"/>
      <point x="537" y="64" type="curve"/>
      <point x="493" y="120" type="line"/>
      <point x="454" y="90"/>
      <point x="412" y="62"/>
      <point x="346" y="62" type="curve" smooth="yes"/>
      <point x="236" y="62"/>
      <point x="150" y="143"/>
      <point x="150" y="344" type="curve" smooth="yes"/>
      <point x="150" y="555"/>
      <point x="239" y="628"/>
      <point x="347" y="628" type="curve" smooth="yes"/>
      <point x="397" y="628"/>
      <point x="442" y="613"/>
      <point x="489" y="585" type="curve"/>
      <point x="529" y="633" type="line"/>
      <point x="508" y="648"/>
      <point x="485" y="663"/>
      <point x="454" y="675" type="curve"/>
      <point x="425" y="690"/>
      <point x="388" y="700"/>
      <point x="342" y="700" type="curve" smooth="yes"/>
      <point x="186" y="700"/>
      <point x="58" y="578"/>
      <point x="58" y="344" type="curve" smooth="yes"/>
      <point x="58" y="113"/>
      <point x="178" y="-12"/>
    </contour>
    <contour>
      <point x="445" y="662" type="line"/>
      <point x="529" y="633" type="line"/>
      <point x="529" y="686" type="line" smooth="yes"/>
      <point x="529" y="741"/>
      <point x="555" y="762"/>
      <point x="594" y="762" type="curve" smooth="yes"/>
      <point x="627" y="762"/>
      <point x="646" y="753"/>
      <point x="669" y="739" type="curve"/>
      <point x="702" y="793" type="line"/>
      <point x="678" y="812"/>
      <point x="642" y="830"/>
      <point x="590" y="830" type="curve" smooth="yes"/>
      <point x="498" y="830"/>
      <point x="445" y="777"/>
      <point x="445" y="679" type="curve" smooth="yes"/>
    </contour>
  </outline>
</glyph>
<glyph name="chook" format="2">
  <advance width="476"/>
  <unicode hex="0188"/>
  <anchor x="238" y="0" name="bottom"/>
  <anchor x="238" y="738" name="top"/>
  <outline>
    <contour>
      <point x="505" y="748" type="curve" smooth="yes"/>
      <point x="417" y="748"/>
      <point x="361" y="698"/>
      <point x="361" y="597" type="curve" smooth="yes"/>
      <point x="361" y="522" type="line"/>
      <point x="445" y="482" type="line"/>
      <point x="445" y="604" type="line" smooth="yes"/>
      <point x="445" y="659"/>
      <point x="471" y="681"/>
      <point x="510" y="681" type="curve" smooth="yes"/>
      <point x="543" y="681"/>
      <point x="561" y="671"/>
      <point x="584" y="657" type="curve"/>
      <point x="617" y="711" type="line"/>
      <point x="593" y="730"/>
      <point x="557" y="748"/>
    </contour>
    <contour>
      <point x="287" y="538" type="curve" smooth="yes"/>
      <point x="146" y="538"/>
      <point x="59" y="427"/>
      <point x="59" y="259" type="curve" smooth="yes"/>
      <point x="59" y="89"/>
      <point x="147" y="-12"/>
      <point x="287" y="-12" type="curve" smooth="yes"/>
      <point x="347" y="-12"/>
      <point x="400" y="8"/>
      <point x="445" y="46" type="curve"/>
      <point x="405" y="103" type="line"/>
      <point x="367" y="74"/>
      <point x="335" y="60"/>
      <point x="290" y="60" type="curve" smooth="yes"/>
      <point x="204" y="60"/>
      <point x="149" y="120"/>
      <point x="149" y="260" type="curve" smooth="yes"/>
      <point x="149" y="401"/>
      <point x="204" y="468"/>
      <point x="290" y="468" type="curve" smooth="yes"/>
      <point x="344" y="468"/>
      <point x="377" y="455"/>
      <point x="409" y="436" type="curve"/>
      <point x="445" y="482" type="line"/>
      <point x="425" y="496"/>
      <point x="400" y="510"/>
      <point x="368" y="521" type="curve"/>
      <point x="345" y="532"/>
      <point x="319" y="538"/>
    </contour>
  </outline>
</glyph>
<glyph name="Dtopbar" format="2">
  <advance width="577"/>
  <unicode hex="018B"/>
  <anchor x="288" y="0" name="bottom"/>
  <anchor x="288" y="688" name="top"/>
  <outline>
    <contour>
      <point x="111" y="688" type="line"/>
      <point x="111" y="616" type="line"/>
      <point x="403" y="616" type="line"/>
      <point x="474" y="688" type="line"/>
    </contour>
    <component base="Komide-cy" xOffset="6"/>
  </outline>
</glyph>
<glyph name="deltaturned" format="2">
  <advance width="576"/>
  <unicode hex="018D"/>
  <anchor x="288" y="-201" name="bottom"/>
  <anchor x="288" y="526" name="top"/>
  <outline>
    <contour>
      <point x="114" y="-78" type="curve" smooth="yes"/>
      <point x="114" y="-147"/>
      <point x="174" y="-211"/>
      <point x="289" y="-211" type="curve" smooth="yes"/>
      <point x="363" y="-211"/>
      <point x="414" y="-191"/>
      <point x="462" y="-158" type="curve"/>
      <point x="419" y="-106" type="line"/>
      <point x="377" y="-134"/>
      <point x="343" y="-145"/>
      <point x="296" y="-145" type="curve" smooth="yes"/>
      <point x="228" y="-145"/>
      <point x="200" y="-113"/>
      <point x="200" y="-78" type="curve" smooth="yes"/>
      <point x="200" y="-36"/>
      <point x="223" y="-15"/>
      <point x="324" y="27" type="curve" smooth="yes"/>
      <point x="452" y="80"/>
      <point x="518" y="145"/>
      <point x="518" y="284" type="curve" smooth="yes"/>
      <point x="518" y="423"/>
      <point x="434" y="538"/>
      <point x="288" y="538" type="curve" smooth="yes"/>
      <point x="150" y="538"/>
      <point x="59" y="445"/>
      <point x="59" y="287" type="curve" smooth="yes"/>
      <point x="59" y="162"/>
      <point x="131" y="87"/>
      <point x="231" y="45" type="curve"/>
      <point x="279" y="69" type="line"/>
      <point x="199" y="111"/>
      <point x="149" y="173"/>
      <point x="149" y="287" type="curve" smooth="yes"/>
      <point x="149" y="404"/>
      <point x="195" y="470"/>
      <point x="288" y="470" type="curve" smooth="yes"/>
      <point x="378" y="470"/>
      <point x="427" y="406"/>
      <point x="427" y="284" type="curve" smooth="yes"/>
      <point x="427" y="172"/>
      <point x="386" y="123"/>
      <point x="253" y="72" type="curve" smooth="yes"/>
      <point x="146" y="31"/>
      <point x="114" y="-17"/>
    </contour>
  </outline>
</glyph>
<glyph name="Ereversed" format="2">
  <advance width="530"/>
  <unicode hex="018E"/>
  <outline>
    <contour>
      <point x="58" y="688" type="line"/>
      <point x="58" y="618" type="line"/>
      <point x="340" y="618" type="line"/>
      <point x="340" y="386" type="line"/>
      <point x="106" y="386" type="line"/>
      <point x="106" y="316" type="line"/>
      <point x="340" y="316" type="line"/>
      <point x="340" y="70" type="line"/>
      <point x="52" y="70" type="line"/>
      <point x="52" y="0" type="line"/>
      <point x="427" y="0" type="line"/>
      <point x="427" y="688" type="line"/>
    </contour>
  </outline>
</glyph>
<glyph name="Eopen" format="2">
  <advance width="521"/>
  <unicode hex="0190"/>
  <anchor x="261" y="0" name="bottom"/>
  <anchor x="261" y="688" name="top"/>
  <outline>
    <contour>
      <point x="278" y="700" type="curve" smooth="yes"/>
      <point x="143" y="700"/>
      <point x="70" y="623"/>
      <point x="70" y="525" type="curve" smooth="yes"/>
      <point x="70" y="438"/>
      <point x="125" y="387"/>
      <point x="204" y="369" type="curve"/>
      <point x="120" y="360"/>
      <point x="47" y="305"/>
      <point x="47" y="198" type="curve" smooth="yes"/>
      <point x="47" y="71"/>
      <point x="150" y="-12"/>
      <point x="290" y="-12" type="curve" smooth="yes"/>
      <point x="374" y="-12"/>
      <point x="451" y="18"/>
      <point x="508" y="81" type="curve"/>
      <point x="457" y="131" type="line"/>
      <point x="415" y="88"/>
      <point x="363" y="62"/>
      <point x="294" y="62" type="curve" smooth="yes"/>
      <point x="197" y="62"/>
      <point x="140" y="113"/>
      <point x="140" y="198" type="curve" smooth="yes"/>
      <point x="140" y="281"/>
      <point x="193" y="329"/>
      <point x="296" y="329" type="curve" smooth="yes"/>
      <point x="349" y="329" type="line"/>
      <point x="361" y="400" type="line"/>
      <point x="296" y="400" type="line" smooth="yes"/>
      <point x="214" y="400"/>
      <point x="160" y="444"/>
      <point x="160" y="518" type="curve" smooth="yes"/>
      <point x="160" y="580"/>
      <point x="198" y="628"/>
      <point x="284" y="628" type="curve" smooth="yes"/>
      <point x="343" y="628"/>
      <point x="396" y="605"/>
      <point x="443" y="563" type="curve"/>
      <point x="491" y="615" type="line"/>
      <point x="431" y="671"/>
      <point x="361" y="700"/>
    </contour>
  </outline>
</glyph>
<glyph name="florin" format="2">
  <advance width="337"/>
  <unicode hex="0192"/>
  <outline>
    <contour>
      <point x="271" y="748" type="curve" smooth="yes"/>
      <point x="168" y="748"/>
      <point x="111" y="688"/>
      <point x="111" y="601" type="curve" smooth="yes"/>
      <point x="111" y="24" type="line"/>
      <point x="195" y="113" type="line"/>
      <point x="195" y="602" type="line" smooth="yes"/>
      <point x="195" y="655"/>
      <point x="217" y="680"/>
      <point x="276" y="680" type="curve" smooth="yes"/>
      <point x="304" y="680"/>
      <point x="335" y="675"/>
      <point x="369" y="660" type="curve"/>
      <point x="396" y="721" type="line"/>
      <point x="355" y="739"/>
      <point x="320" y="748"/>
    </contour>
    <contour>
      <point x="325" y="526" type="line"/>
      <point x="26" y="526" type="line"/>
      <point x="26" y="461" type="line"/>
      <point x="316" y="461" type="line"/>
    </contour>
    <contour>
      <point x="195" y="465" type="line"/>
      <point x="111" y="465" type="line"/>
      <point x="111" y="24" type="line" smooth="yes"/>
      <point x="111" y="-90"/>
      <point x="79" y="-116"/>
      <point x="10" y="-149" type="curve"/>
      <point x="34" y="-210" type="line"/>
      <point x="142" y="-161"/>
      <point x="195" y="-118"/>
      <point x="195" y="29" type="curve" smooth="yes"/>
    </contour>
  </outline>
</glyph>
<glyph name="Ghook" format="2">
  <advance width="585"/>
  <unicode hex="0193"/>
  <anchor x="292" y="0" name="bottom"/>
  <anchor x="292" y="688" name="top"/>
  <outline>
    <contour>
      <point x="339" y="-12" type="curve" smooth="yes"/>
      <point x="432" y="-12"/>
      <point x="503" y="11"/>
      <point x="565" y="48" type="curve"/>
      <point x="565" y="379" type="line"/>
      <point x="344" y="379" type="line"/>
      <point x="354" y="308" type="line"/>
      <point x="479" y="308" type="line"/>
      <point x="479" y="93" type="line"/>
      <point x="439" y="70"/>
      <point x="394" y="60"/>
      <point x="345" y="60" type="curve" smooth="yes"/>
      <point x="221" y="60"/>
      <point x="150" y="144"/>
      <point x="150" y="345" type="curve" smooth="yes"/>
      <point x="150" y="551"/>
      <point x="252" y="628"/>
      <point x="353" y="628" type="curve" smooth="yes"/>
      <point x="414" y="628"/>
      <point x="461" y="611"/>
      <point x="511" y="578" type="curve"/>
      <point x="556" y="626" type="line"/>
      <point x="534" y="644"/>
      <point x="512" y="660"/>
      <point x="488" y="662" type="curve" smooth="yes"/>
      <point x="447" y="688"/>
      <point x="405" y="700"/>
      <point x="343" y="700" type="curve" smooth="yes"/>
      <point x="200" y="700"/>
      <point x="58" y="578"/>
      <point x="58" y="345" type="curve" smooth="yes"/>
      <point x="58" y="107"/>
      <point x="169" y="-12"/>
    </contour>
    <contour>
      <point x="472" y="662" type="line"/>
      <point x="556" y="626" type="line"/>
      <point x="556" y="686" type="line" smooth="yes"/>
      <point x="556" y="741"/>
      <point x="582" y="762"/>
      <point x="621" y="762" type="curve" smooth="yes"/>
      <point x="655" y="762"/>
      <point x="673" y="753"/>
      <point x="696" y="739" type="curve"/>
      <point x="729" y="793" type="line"/>
      <point x="705" y="812"/>
      <point x="669" y="830"/>
      <point x="617" y="830" type="curve" smooth="yes"/>
      <point x="525" y="830"/>
      <point x="472" y="777"/>
      <point x="472" y="679" type="curve" smooth="yes"/>
    </contour>
  </outline>
</glyph>
<glyph name="Gammaafrican" format="2">
  <advance width="552"/>
  <unicode hex="0194"/>
  <anchor x="276" y="-201" name="bottom"/>
  <anchor x="276" y="688" name="top"/>
  <outline>
    <contour>
      <point x="277" y="-211" type="curve" smooth="yes"/>
      <point x="352" y="-211"/>
      <point x="391" y="-174"/>
      <point x="391" y="-112" type="curve" smooth="yes"/>
      <point x="391" y="-56"/>
      <point x="370" y="-11"/>
      <point x="329" y="67" type="curve"/>
      <point x="278" y="127" type="line"/>
      <point x="102" y="688" type="line"/>
      <point x="8" y="688" type="line"/>
      <point x="225" y="67" type="line"/>
      <point x="277" y="10" type="line"/>
      <point x="297" y="-38"/>
      <point x="310" y="-75"/>
      <point x="310" y="-106" type="curve" smooth="yes"/>
      <point x="310" y="-130"/>
      <point x="299" y="-144"/>
      <point x="277" y="-144" type="curve" smooth="yes"/>
      <point x="255" y="-144"/>
      <point x="243" y="-130"/>
      <point x="243" y="-106" type="curve" smooth="yes"/>
      <point x="243" y="-75"/>
      <point x="257" y="-38"/>
      <point x="277" y="10" type="curve"/>
      <point x="329" y="67" type="line"/>
      <point x="543" y="688" type="line"/>
      <point x="456" y="688" type="line"/>
      <point x="278" y="127" type="line"/>
      <point x="225" y="67" type="line"/>
      <point x="184" y="-17"/>
      <point x="163" y="-65"/>
      <point x="163" y="-113" type="curve" smooth="yes"/>
      <point x="163" y="-174"/>
      <point x="201" y="-211"/>
    </contour>
  </outline>
</glyph>
<glyph name="hv" format="2">
  <advance width="886"/>
  <unicode hex="0195"/>
  <anchor x="443" y="0" name="bottom"/>
  <anchor x="443" y="738" name="top"/>
  <outline>
    <contour>
      <point x="586" y="-12" type="curve" smooth="yes"/>
      <point x="697" y="-12"/>
      <point x="813" y="67"/>
      <point x="813" y="256" type="curve" smooth="yes"/>
      <point x="813" y="358"/>
      <point x="803" y="441"/>
      <point x="787" y="526" type="curve"/>
      <point x="702" y="526" type="line"/>
      <point x="720" y="430"/>
      <point x="728" y="340"/>
      <point x="728" y="263" type="curve" smooth="yes"/>
      <point x="728" y="102"/>
      <point x="651" y="56"/>
      <point x="589" y="56" type="curve" smooth="yes"/>
      <point x="529" y="56"/>
      <point x="493" y="92"/>
      <point x="493" y="169" type="curve" smooth="yes"/>
      <point x="493" y="343" type="line"/>
      <point x="409" y="343" type="line"/>
      <point x="409" y="162" type="line" smooth="yes"/>
      <point x="409" y="48"/>
      <point x="488" y="-12"/>
    </contour>
    <contour>
      <point x="98" y="0" type="line"/>
      <point x="182" y="0" type="line"/>
      <point x="182" y="747" type="line"/>
      <point x="98" y="737" type="line"/>
    </contour>
    <contour>
      <point x="409" y="221" type="line"/>
      <point x="493" y="221" type="line"/>
      <point x="493" y="377" type="line" smooth="yes"/>
      <point x="493" y="476"/>
      <point x="437" y="538"/>
      <point x="342" y="538" type="curve" smooth="yes"/>
      <point x="264" y="538"/>
      <point x="206" y="493"/>
      <point x="166" y="427" type="curve"/>
      <point x="182" y="376" type="line"/>
      <point x="218" y="433"/>
      <point x="261" y="472"/>
      <point x="321" y="472" type="curve" smooth="yes"/>
      <point x="375" y="472"/>
      <point x="409" y="446"/>
      <point x="409" y="365" type="curve" smooth="yes"/>
    </contour>
  </outline>
</glyph>
<glyph name="Khook" format="2">
  <advance width="608"/>
  <unicode hex="0198"/>
  <anchor x="304" y="0" name="bottom"/>
  <anchor x="304" y="688" name="top"/>
  <outline>
    <contour>
      <point x="189" y="688" type="line"/>
      <point x="103" y="688" type="line"/>
      <point x="103" y="0" type="line"/>
      <point x="189" y="0" type="line"/>
    </contour>
    <contour>
      <point x="428" y="570" type="line" smooth="yes"/>
      <point x="464" y="622"/>
      <point x="484" y="629"/>
      <point x="515" y="629" type="curve" smooth="yes"/>
      <point x="544" y="629"/>
      <point x="561" y="620"/>
      <point x="576" y="609" type="curve"/>
      <point x="608" y="664" type="line"/>
      <point x="584" y="684"/>
      <point x="555" y="700"/>
      <point x="510" y="700" type="curve" smooth="yes"/>
      <point x="445" y="700"/>
      <point x="410" y="673"/>
      <point x="366" y="611" type="curve" smooth="yes"/>
      <point x="194" y="368" type="line"/>
      <point x="472" y="0" type="line"/>
      <point x="579" y="0" type="line"/>
      <point x="293" y="373" type="line"/>
    </contour>
  </outline>
</glyph>
<glyph name="khook" format="2">
  <advance width="506"/>
  <unicode hex="0199"/>
  <outline>
    <contour>
      <point x="482" y="526" type="line"/>
      <point x="388" y="526" type="line"/>
      <point x="188" y="287" type="line"/>
      <point x="404" y="0" type="line"/>
      <point x="505" y="0" type="line"/>
      <point x="282" y="293" type="line"/>
    </contour>
    <contour>
      <point x="182" y="536" type="line"/>
      <point x="98" y="526" type="line"/>
      <point x="98" y="0" type="line"/>
      <point x="182" y="0" type="line"/>
    </contour>
    <component base="hookaboveHELPER" xOffset="66"/>
  </outline>
</glyph>
<glyph name="lambdastroke" format="2">
  <advance width="485"/>
  <unicode hex="019B"/>
  <anchor x="243" y="0" name="bottom"/>
  <anchor x="243" y="738" name="top"/>
  <outline>
    <contour>
      <point x="104" y="-11" type="line"/>
      <point x="247" y="440" type="line"/>
      <point x="303" y="170"/>
      <point x="351" y="84"/>
      <point x="421" y="-11" type="curve"/>
      <point x="499" y="20" type="line"/>
      <point x="428" y="106"/>
      <point x="386" y="188"/>
      <point x="320" y="478" type="curve" smooth="yes"/>
      <point x="277" y="660"/>
      <point x="228" y="722"/>
      <point x="83" y="750" type="curve"/>
      <point x="70" y="685" type="line"/>
      <point x="174" y="666"/>
      <point x="208" y="621"/>
      <point x="233" y="500" type="curve"/>
      <point x="190" y="500" type="line"/>
      <point x="23" y="9" type="line"/>
    </contour>
    <contour>
      <point x="133" y="540" type="line"/>
      <point x="217" y="623" type="line"/>
      <point x="248" y="655" type="line"/>
      <point x="321" y="730" type="line"/>
      <point x="271" y="773" type="line"/>
      <point x="191" y="687" type="line"/>
      <point x="161" y="657" type="line"/>
      <point x="75" y="569" type="line"/>
    </contour>
  </outline>
</glyph>
<glyph name="Mturned" format="2">
  <advance width="932"/>
  <unicode hex="019C"/>
  <anchor x="466" y="0" name="bottom"/>
  <anchor x="466" y="688" name="top"/>
  <outline>
    <contour>
      <point x="584" y="-12" type="curve" smooth="yes"/>
      <point x="657" y="-12"/>
      <point x="713" y="26"/>
      <point x="758" y="98" type="curve"/>
      <point x="743" y="158" type="line"/>
      <point x="699" y="91"/>
      <point x="661" y="60"/>
      <point x="599" y="60" type="curve" smooth="yes"/>
      <point x="538" y="60"/>
      <point x="504" y="107"/>
      <point x="504" y="189" type="curve" smooth="yes"/>
      <point x="504" y="688" type="line"/>
      <point x="418" y="688" type="line"/>
      <point x="418" y="188" type="line" smooth="yes"/>
      <point x="418" y="70"/>
      <point x="477" y="-12"/>
    </contour>
    <contour>
      <point x="754" y="0" type="line"/>
      <point x="829" y="0" type="line"/>
      <point x="829" y="688" type="line"/>
      <point x="743" y="688" type="line"/>
      <point x="743" y="131" type="line"/>
    </contour>
    <contour>
      <point x="259" y="-12" type="curve" smooth="yes"/>
      <point x="332" y="-12"/>
      <point x="388" y="26"/>
      <point x="441" y="99" type="curve"/>
      <point x="421" y="160" type="line"/>
      <point x="374" y="91"/>
      <point x="336" y="60"/>
      <point x="274" y="60" type="curve" smooth="yes"/>
      <point x="213" y="60"/>
      <point x="179" y="107"/>
      <point x="179" y="189" type="curve" smooth="yes"/>
      <point x="179" y="688" type="line"/>
      <point x="93" y="688" type="line"/>
      <point x="93" y="188" type="line" smooth="yes"/>
      <point x="93" y="70"/>
      <point x="152" y="-12"/>
    </contour>
  </outline>
</glyph>
<glyph name="Nhookleft" format="2">
  <advance width="681"/>
  <unicode hex="019D"/>
  <anchor x="351" y="688" name="top"/>
  <anchor x="342" y="0" name="bottom"/>
  <outline>
    <contour>
      <point x="42" y="-211" type="curve" smooth="yes"/>
      <point x="127" y="-211"/>
      <point x="184" y="-161"/>
      <point x="184" y="-62" type="curve" smooth="yes"/>
      <point x="184" y="1" type="line"/>
      <point x="103" y="1" type="line"/>
      <point x="103" y="-67" type="line" smooth="yes"/>
      <point x="103" y="-122"/>
      <point x="76" y="-143"/>
      <point x="37" y="-143" type="curve" smooth="yes"/>
      <point x="4" y="-143"/>
      <point x="-14" y="-134"/>
      <point x="-37" y="-120" type="curve"/>
      <point x="-70" y="-174" type="line"/>
      <point x="-46" y="-193"/>
      <point x="-10" y="-211"/>
    </contour>
    <component base="N"/>
  </outline>
</glyph>
<glyph name="Oi" format="2">
  <advance width="921"/>
  <unicode hex="01A2"/>
  <anchor x="460" y="-201" name="bottom"/>
  <anchor x="460" y="688" name="top"/>
  <outline>
    <contour>
      <point x="660" y="702" type="curve" smooth="yes"/>
      <point x="599" y="702"/>
      <point x="553" y="682"/>
      <point x="503" y="646" type="curve"/>
      <point x="549" y="604" type="line"/>
      <point x="585" y="623"/>
      <point x="614" y="634"/>
      <point x="654" y="634" type="curve" smooth="yes"/>
      <point x="703" y="634"/>
      <point x="731" y="608"/>
      <point x="731" y="548" type="curve" smooth="yes"/>
      <point x="731" y="-201" type="line"/>
      <point x="818" y="-201" type="line"/>
      <point x="818" y="545" type="line" smooth="yes"/>
      <point x="818" y="647"/>
      <point x="764" y="702"/>
    </contour>
    <contour>
      <point x="346" y="700" type="curve" smooth="yes"/>
      <point x="176" y="700"/>
      <point x="58" y="569"/>
      <point x="58" y="342" type="curve" smooth="yes"/>
      <point x="58" y="112"/>
      <point x="175" y="-12"/>
      <point x="346" y="-12" type="curve" smooth="yes"/>
      <point x="518" y="-12"/>
      <point x="634" y="116"/>
      <point x="634" y="343" type="curve" smooth="yes"/>
      <point x="634" y="575"/>
      <point x="513" y="700"/>
    </contour>
    <contour>
      <point x="346" y="628" type="curve"/>
      <point x="467" y="628"/>
      <point x="542" y="544"/>
      <point x="542" y="343" type="curve" smooth="yes"/>
      <point x="542" y="142"/>
      <point x="466" y="60"/>
      <point x="346" y="60" type="curve" smooth="yes"/>
      <point x="230" y="60"/>
      <point x="150" y="142"/>
      <point x="150" y="342" type="curve" smooth="yes"/>
      <point x="150" y="544"/>
      <point x="228" y="628"/>
    </contour>
  </outline>
</glyph>
<glyph name="oi" format="2">
  <advance width="786"/>
  <unicode hex="01A3"/>
  <anchor x="393" y="-201" name="bottom"/>
  <anchor x="393" y="526" name="top"/>
  <outline>
    <contour>
      <point x="604" y="-201" type="line"/>
      <point x="688" y="-211" type="line"/>
      <point x="688" y="381" type="line" smooth="yes"/>
      <point x="688" y="483"/>
      <point x="636" y="538"/>
      <point x="537" y="538" type="curve" smooth="yes"/>
      <point x="480" y="538"/>
      <point x="434" y="519"/>
      <point x="386" y="487" type="curve"/>
      <point x="434" y="445" type="line"/>
      <point x="466" y="461"/>
      <point x="494" y="470"/>
      <point x="529" y="470" type="curve" smooth="yes"/>
      <point x="576" y="470"/>
      <point x="604" y="444"/>
      <point x="604" y="384" type="curve" smooth="yes"/>
    </contour>
    <contour>
      <point x="291" y="538" type="curve" smooth="yes"/>
      <point x="144" y="538"/>
      <point x="59" y="427"/>
      <point x="59" y="262" type="curve" smooth="yes"/>
      <point x="59" y="95"/>
      <point x="143" y="-12"/>
      <point x="290" y="-12" type="curve" smooth="yes"/>
      <point x="437" y="-12"/>
      <point x="522" y="99"/>
      <point x="522" y="264" type="curve" smooth="yes"/>
      <point x="522" y="432"/>
      <point x="432" y="538"/>
    </contour>
    <contour>
      <point x="291" y="470" type="curve" smooth="yes"/>
      <point x="382" y="470"/>
      <point x="432" y="403"/>
      <point x="432" y="264" type="curve" smooth="yes"/>
      <point x="432" y="123"/>
      <point x="381" y="56"/>
      <point x="290" y="56" type="curve" smooth="yes"/>
      <point x="199" y="56"/>
      <point x="149" y="123"/>
      <point x="149" y="262" type="curve" smooth="yes"/>
      <point x="149" y="403"/>
      <point x="201" y="470"/>
    </contour>
  </outline>
</glyph>
<glyph name="phook" format="2">
  <advance width="591"/>
  <unicode hex="01A5"/>
  <anchor x="295" y="-201" name="bottom"/>
  <anchor x="295" y="738" name="top"/>
  <outline>
    <contour>
      <point x="333" y="538" type="curve" smooth="yes"/>
      <point x="266" y="538"/>
      <point x="206" y="502"/>
      <point x="167" y="433" type="curve"/>
      <point x="174" y="374" type="line"/>
      <point x="203" y="423"/>
      <point x="249" y="471"/>
      <point x="313" y="471" type="curve" smooth="yes"/>
      <point x="395" y="471"/>
      <point x="437" y="404"/>
      <point x="437" y="264" type="curve" smooth="yes"/>
      <point x="437" y="123"/>
      <point x="390" y="57"/>
      <point x="303" y="57" type="curve" smooth="yes"/>
      <point x="246" y="57"/>
      <point x="201" y="88"/>
      <point x="173" y="139" type="curve"/>
      <point x="172" y="64" type="line"/>
      <point x="205" y="14"/>
      <point x="257" y="-12"/>
      <point x="322" y="-12" type="curve" smooth="yes"/>
      <point x="457" y="-12"/>
      <point x="527" y="103"/>
      <point x="527" y="264" type="curve" smooth="yes"/>
      <point x="527" y="431"/>
      <point x="471" y="538"/>
    </contour>
    <contour>
      <point x="182" y="526" type="line"/>
      <point x="98" y="526" type="line"/>
      <point x="98" y="-211" type="line"/>
      <point x="182" y="-201" type="line"/>
      <point x="182" y="402" type="line"/>
    </contour>
    <component base="hookaboveHELPER" xOffset="66"/>
  </outline>
</glyph>
<glyph name="Yr" format="2">
  <advance width="601"/>
  <unicode hex="01A6"/>
  <anchor x="301" y="-201" name="bottom"/>
  <anchor x="301" y="688" name="top"/>
  <outline>
    <contour>
      <point x="189" y="688" type="line"/>
      <point x="103" y="688" type="line"/>
      <point x="103" y="0" type="line"/>
      <point x="189" y="0" type="line"/>
    </contour>
    <contour>
      <point x="383" y="196" type="line"/>
      <point x="296" y="186" type="line"/>
      <point x="471" y="-123" type="line"/>
      <point x="574" y="-123" type="line"/>
    </contour>
    <contour>
      <point x="174" y="565" type="line"/>
      <point x="174" y="497" type="line"/>
      <point x="279" y="497" type="line" smooth="yes"/>
      <point x="396" y="497"/>
      <point x="446" y="459"/>
      <point x="446" y="372" type="curve" smooth="yes"/>
      <point x="446" y="277"/>
      <point x="389" y="240"/>
      <point x="290" y="240" type="curve" smooth="yes"/>
      <point x="174" y="240" type="line"/>
      <point x="174" y="173" type="line"/>
      <point x="310" y="173" type="line"/>
      <point x="459" y="192"/>
      <point x="538" y="251"/>
      <point x="538" y="372" type="curve" smooth="yes"/>
      <point x="538" y="499"/>
      <point x="450" y="565"/>
      <point x="280" y="565" type="curve" smooth="yes"/>
    </contour>
  </outline>
</glyph>
<glyph name="Tonetwo" format="2">
  <advance width="535"/>
  <unicode hex="01A7"/>
  <anchor x="268" y="0" name="bottom"/>
  <anchor x="268" y="688" name="top"/>
  <outline>
    <contour>
      <point x="280" y="700" type="curve" smooth="yes"/>
      <point x="190" y="700"/>
      <point x="126" y="672"/>
      <point x="65" y="621" type="curve"/>
      <point x="113" y="569" type="line"/>
      <point x="165" y="610"/>
      <point x="213" y="628"/>
      <point x="277" y="628" type="curve" smooth="yes"/>
      <point x="347" y="628"/>
      <point x="397" y="598"/>
      <point x="397" y="529" type="curve" smooth="yes"/>
      <point x="397" y="463"/>
      <point x="368" y="432"/>
      <point x="246" y="394" type="curve" smooth="yes"/>
      <point x="133" y="359"/>
      <point x="43" y="310"/>
      <point x="43" y="184" type="curve" smooth="yes"/>
      <point x="43" y="71"/>
      <point x="135" y="-12"/>
      <point x="275" y="-12" type="curve" smooth="yes"/>
      <point x="374" y="-12"/>
      <point x="450" y="21"/>
      <point x="507" y="76" type="curve"/>
      <point x="459" y="129" type="line"/>
      <point x="409" y="87"/>
      <point x="351" y="60"/>
      <point x="277" y="60" type="curve" smooth="yes"/>
      <point x="199" y="60"/>
      <point x="134" y="102"/>
      <point x="134" y="184" type="curve" smooth="yes"/>
      <point x="134" y="254"/>
      <point x="167" y="294"/>
      <point x="286" y="331" type="curve" smooth="yes"/>
      <point x="418" y="372"/>
      <point x="487" y="422"/>
      <point x="487" y="529" type="curve" smooth="yes"/>
      <point x="487" y="632"/>
      <point x="404" y="700"/>
    </contour>
  </outline>
</glyph>
<glyph name="tonetwo" format="2">
  <advance width="456"/>
  <unicode hex="01A8"/>
  <anchor x="228" y="0" name="bottom"/>
  <anchor x="228" y="526" name="top"/>
  <outline>
    <contour>
      <point x="237" y="538" type="curve" smooth="yes"/>
      <point x="165" y="538"/>
      <point x="106" y="516"/>
      <point x="53" y="478" type="curve"/>
      <point x="88" y="426" type="line"/>
      <point x="136" y="456"/>
      <point x="177" y="471"/>
      <point x="231" y="471" type="curve" smooth="yes"/>
      <point x="293" y="471"/>
      <point x="327" y="442"/>
      <point x="327" y="400" type="curve" smooth="yes"/>
      <point x="327" y="353"/>
      <point x="301" y="328"/>
      <point x="212" y="305" type="curve" smooth="yes"/>
      <point x="100" y="277"/>
      <point x="38" y="237"/>
      <point x="38" y="144" type="curve" smooth="yes"/>
      <point x="38" y="39"/>
      <point x="135" y="-12"/>
      <point x="232" y="-12" type="curve" smooth="yes"/>
      <point x="320" y="-12"/>
      <point x="382" y="17"/>
      <point x="428" y="57" type="curve"/>
      <point x="385" y="107" type="line"/>
      <point x="340" y="76"/>
      <point x="292" y="56"/>
      <point x="233" y="56" type="curve" smooth="yes"/>
      <point x="173" y="56"/>
      <point x="128" y="87"/>
      <point x="128" y="141" type="curve" smooth="yes"/>
      <point x="128" y="195"/>
      <point x="153" y="220"/>
      <point x="257" y="248" type="curve" smooth="yes"/>
      <point x="369" y="278"/>
      <point x="416" y="319"/>
      <point x="416" y="398" type="curve" smooth="yes"/>
      <point x="416" y="478"/>
      <point x="347" y="538"/>
    </contour>
  </outline>
</glyph>
<glyph name="eshreversedloop" format="2">
  <advance width="311"/>
  <unicode hex="01AA"/>
  <anchor x="155" y="-201" name="bottom"/>
  <anchor x="155" y="738" name="top"/>
  <outline>
    <contour>
      <point x="70" y="748" type="curve" smooth="yes"/>
      <point x="-5" y="748"/>
      <point x="-62" y="696"/>
      <point x="-62" y="614" type="curve" smooth="yes"/>
      <point x="-62" y="532"/>
      <point x="-5" y="482"/>
      <point x="66" y="482" type="curve" smooth="yes"/>
      <point x="110" y="482"/>
      <point x="141" y="500"/>
      <point x="168" y="519" type="curve"/>
      <point x="138" y="562" type="line"/>
      <point x="117" y="553"/>
      <point x="97" y="548"/>
      <point x="78" y="548" type="curve" smooth="yes"/>
      <point x="41" y="548"/>
      <point x="22" y="569"/>
      <point x="22" y="616" type="curve" smooth="yes"/>
      <point x="22" y="656"/>
      <point x="38" y="682"/>
      <point x="72" y="682" type="curve" smooth="yes"/>
      <point x="102" y="682"/>
      <point x="121" y="660"/>
      <point x="121" y="615" type="curve" smooth="yes"/>
      <point x="121" y="0" type="line"/>
      <point x="205" y="0" type="line"/>
      <point x="205" y="608" type="line" smooth="yes"/>
      <point x="205" y="697"/>
      <point x="149" y="748"/>
    </contour>
    <component base="hookHELPER" xScale="-1" xOffset="409"/>
  </outline>
</glyph>
<glyph name="Thook" format="2">
  <advance width="548"/>
  <unicode hex="01AC"/>
  <anchor x="274" y="0" name="bottom"/>
  <anchor x="274" y="688" name="top"/>
  <outline>
    <contour>
      <point x="538" y="688" type="line"/>
      <point x="180" y="688" type="line"/>
      <point x="180" y="614" type="line"/>
      <point x="248" y="614" type="line"/>
      <point x="248" y="0" type="line"/>
      <point x="335" y="0" type="line"/>
      <point x="335" y="614" type="line"/>
      <point x="528" y="614" type="line"/>
    </contour>
    <contour>
      <point x="11" y="567" type="curve" smooth="yes"/>
      <point x="11" y="525"/>
      <point x="30" y="490"/>
      <point x="48" y="462" type="curve"/>
      <point x="113" y="495" type="line"/>
      <point x="102" y="518"/>
      <point x="93" y="537"/>
      <point x="93" y="564" type="curve" smooth="yes"/>
      <point x="93" y="593"/>
      <point x="111" y="614"/>
      <point x="151" y="614" type="curve" smooth="yes"/>
      <point x="181" y="614" type="line"/>
      <point x="181" y="688" type="line"/>
      <point x="157" y="688" type="line" smooth="yes"/>
      <point x="62" y="688"/>
      <point x="11" y="638"/>
    </contour>
  </outline>
</glyph>
<glyph name="Upsilonafrican" format="2">
  <advance width="692"/>
  <unicode hex="01B1"/>
  <anchor x="346" y="0" name="bottom"/>
  <anchor x="346" y="688" name="top"/>
  <outline>
    <contour>
      <point x="346" y="-12" type="curve" smooth="yes"/>
      <point x="516" y="-12"/>
      <point x="634" y="118"/>
      <point x="634" y="317" type="curve" smooth="yes"/>
      <point x="634" y="484"/>
      <point x="573" y="564"/>
      <point x="504" y="616" type="curve"/>
      <point x="613" y="616" type="line"/>
      <point x="613" y="688" type="line"/>
      <point x="415" y="688" type="line"/>
      <point x="415" y="617" type="line"/>
      <point x="490" y="554"/>
      <point x="542" y="471"/>
      <point x="542" y="317" type="curve" smooth="yes"/>
      <point x="542" y="144"/>
      <point x="464" y="60"/>
      <point x="346" y="60" type="curve" smooth="yes"/>
      <point x="225" y="60"/>
      <point x="150" y="144"/>
      <point x="150" y="316" type="curve" smooth="yes"/>
      <point x="150" y="472"/>
      <point x="196" y="553"/>
      <point x="277" y="617" type="curve"/>
      <point x="277" y="688" type="line"/>
      <point x="80" y="688" type="line"/>
      <point x="80" y="616" type="line"/>
      <point x="188" y="616" type="line"/>
      <point x="120" y="558"/>
      <point x="58" y="479"/>
      <point x="58" y="316" type="curve" smooth="yes"/>
      <point x="58" y="113"/>
      <point x="171" y="-12"/>
    </contour>
  </outline>
</glyph>
<glyph name="Vhook" format="2">
  <advance width="645"/>
  <unicode hex="01B2"/>
  <anchor x="322" y="0" name="bottom"/>
  <anchor x="322" y="688" name="top"/>
  <outline>
    <contour>
      <point x="567" y="577" type="line"/>
      <point x="479" y="576" type="line"/>
      <point x="479" y="306" type="line" smooth="yes"/>
      <point x="479" y="145"/>
      <point x="417" y="62"/>
      <point x="310" y="62" type="curve" smooth="yes"/>
      <point x="226" y="62"/>
      <point x="179" y="115"/>
      <point x="179" y="211" type="curve" smooth="yes"/>
      <point x="179" y="688" type="line"/>
      <point x="93" y="688" type="line"/>
      <point x="93" y="207" type="line" smooth="yes"/>
      <point x="93" y="81"/>
      <point x="174" y="-12"/>
      <point x="310" y="-12" type="curve" smooth="yes"/>
      <point x="465" y="-12"/>
      <point x="567" y="107"/>
      <point x="567" y="299" type="curve" smooth="yes"/>
    </contour>
    <contour>
      <point x="479" y="576" type="curve"/>
      <point x="567" y="577" type="line"/>
      <point x="567" y="660"/>
      <point x="525" y="700"/>
      <point x="453" y="700" type="curve" smooth="yes"/>
      <point x="424" y="700"/>
      <point x="399" y="693"/>
      <point x="379" y="682" type="curve"/>
      <point x="402" y="623" type="line"/>
      <point x="412" y="627"/>
      <point x="424" y="629"/>
      <point x="440" y="629" type="curve" smooth="yes"/>
      <point x="470" y="629"/>
      <point x="479" y="614"/>
    </contour>
  </outline>
</glyph>
<glyph name="Yhook" format="2">
  <advance width="577"/>
  <unicode hex="01B3"/>
  <anchor x="289" y="0" name="bottom"/>
  <anchor x="289" y="688" name="top"/>
  <anchor x="6" y="688" name="topleft"/>
  <outline>
    <contour>
      <point x="228" y="0" type="line"/>
      <point x="316" y="0" type="line"/>
      <point x="316" y="266" type="line"/>
      <point x="461" y="566" type="line" smooth="yes"/>
      <point x="487" y="619"/>
      <point x="505" y="634"/>
      <point x="536" y="634" type="curve" smooth="yes"/>
      <point x="563" y="634"/>
      <point x="583" y="624"/>
      <point x="599" y="611" type="curve"/>
      <point x="633" y="660" type="line"/>
      <point x="605" y="683"/>
      <point x="574" y="700"/>
      <point x="531" y="700" type="curve" smooth="yes"/>
      <point x="463" y="700"/>
      <point x="425" y="668"/>
      <point x="389" y="590" type="curve" smooth="yes"/>
      <point x="275" y="341" type="line"/>
      <point x="103" y="688" type="line"/>
      <point x="7" y="688" type="line"/>
      <point x="228" y="265" type="line"/>
    </contour>
  </outline>
</glyph>
<glyph name="yhook" format="2">
  <advance width="491"/>
  <unicode hex="01B4"/>
  <anchor x="246" y="-201" name="bottom"/>
  <anchor x="246" y="526" name="top"/>
  <outline>
    <contour>
      <point x="61" y="-211" type="line"/>
      <point x="202" y="-193"/>
      <point x="266" y="-116"/>
      <point x="302" y="5" type="curve" smooth="yes"/>
      <point x="435" y="459" type="line" smooth="yes"/>
      <point x="445" y="495"/>
      <point x="456" y="505"/>
      <point x="480" y="505" type="curve" smooth="yes"/>
      <point x="493" y="505"/>
      <point x="504" y="503"/>
      <point x="514" y="499" type="curve"/>
      <point x="536" y="556" type="line"/>
      <point x="517" y="566"/>
      <point x="495" y="573"/>
      <point x="469" y="573" type="curve" smooth="yes"/>
      <point x="407" y="573"/>
      <point x="377" y="544"/>
      <point x="356" y="466" type="curve" smooth="yes"/>
      <point x="246" y="61" type="line"/>
      <point x="101" y="526" type="line"/>
      <point x="11" y="526" type="line"/>
      <point x="189" y="0" type="line"/>
      <point x="218" y="0" type="line"/>
      <point x="188" y="-84"/>
      <point x="158" y="-125"/>
      <point x="51" y="-145" type="curve"/>
    </contour>
  </outline>
</glyph>
<glyph name="Zstroke" format="2">
  <advance width="521"/>
  <unicode hex="01B5"/>
  <anchor x="260" y="0" name="bottom"/>
  <anchor x="260" y="688" name="top"/>
  <outline>
    <contour>
      <point x="475" y="688" type="line"/>
      <point x="68" y="688" type="line"/>
      <point x="68" y="615" type="line"/>
      <point x="384" y="615" type="line"/>
      <point x="31" y="70" type="line"/>
      <point x="31" y="0" type="line"/>
      <point x="463" y="0" type="line"/>
      <point x="473" y="74" type="line"/>
      <point x="125" y="74" type="line"/>
      <point x="475" y="618" type="line"/>
    </contour>
    <component base="hyphen" xScale="1.1871" yScale="0.95645" xOffset="24" yOffset="47"/>
  </outline>
</glyph>
<glyph name="zstroke" format="2">
  <advance width="434"/>
  <unicode hex="01B6"/>
  <anchor x="217" y="0" name="bottom"/>
  <anchor x="217" y="526" name="top"/>
  <outline>
    <contour>
      <point x="400" y="526" type="line"/>
      <point x="49" y="526" type="line"/>
      <point x="49" y="455" type="line"/>
      <point x="307" y="455" type="line"/>
      <point x="26" y="63" type="line"/>
      <point x="26" y="0" type="line"/>
      <point x="392" y="0" type="line"/>
      <point x="402" y="71" type="line"/>
      <point x="119" y="71" type="line"/>
      <point x="400" y="462" type="line"/>
    </contour>
    <component base="hyphen" xScale="1.0871" yScale="0.9129" xOffset="-3" yOffset="-21"/>
  </outline>
</glyph>
<glyph name="Ezh" format="2">
  <advance width="511"/>
  <unicode hex="01B7"/>
  <anchor x="255" y="0" name="bottom"/>
  <anchor x="241" y="688" name="top"/>
  <outline>
    <contour>
      <point x="225" y="-12" type="curve" smooth="yes"/>
      <point x="374" y="-12"/>
      <point x="465" y="75"/>
      <point x="465" y="196" type="curve" smooth="yes"/>
      <point x="465" y="320"/>
      <point x="388" y="394"/>
      <point x="231" y="394" type="curve" smooth="yes"/>
      <point x="201" y="394" type="line"/>
      <point x="127" y="331" type="line"/>
      <point x="214" y="331" type="line" smooth="yes"/>
      <point x="322" y="331"/>
      <point x="375" y="293"/>
      <point x="375" y="198" type="curve" smooth="yes"/>
      <point x="375" y="113"/>
      <point x="323" y="60"/>
      <point x="222" y="60" type="curve" smooth="yes"/>
      <point x="152" y="60"/>
      <point x="106" y="80"/>
      <point x="62" y="127" type="curve"/>
      <point x="11" y="77" type="line"/>
      <point x="63" y="17"/>
      <point x="129" y="-12"/>
    </contour>
    <contour>
      <point x="127" y="393" type="line"/>
      <point x="127" y="331" type="line"/>
      <point x="193" y="362" type="line"/>
      <point x="441" y="618" type="line"/>
      <point x="441" y="688" type="line"/>
      <point x="40" y="688" type="line"/>
      <point x="40" y="617" type="line"/>
      <point x="338" y="617" type="line"/>
    </contour>
  </outline>
</glyph>
<glyph name="Ezhreversed" format="2">
  <advance width="511"/>
  <unicode hex="01B8"/>
  <anchor x="255" y="0" name="bottom"/>
  <anchor x="255" y="688" name="top"/>
  <outline>
    <contour>
      <point x="279" y="-12" type="curve" smooth="yes"/>
      <point x="382" y="-12"/>
      <point x="447" y="17"/>
      <point x="499" y="77" type="curve"/>
      <point x="449" y="127" type="line"/>
      <point x="405" y="80"/>
      <point x="358" y="60"/>
      <point x="281" y="60" type="curve" smooth="yes"/>
      <point x="188" y="60"/>
      <point x="136" y="112"/>
      <point x="136" y="191" type="curve" smooth="yes"/>
      <point x="136" y="284"/>
      <point x="189" y="331"/>
      <point x="296" y="331" type="curve" smooth="yes"/>
      <point x="384" y="331" type="line"/>
      <point x="310" y="394" type="line"/>
      <point x="279" y="394" type="line" smooth="yes"/>
      <point x="126" y="394"/>
      <point x="46" y="311"/>
      <point x="46" y="189" type="curve" smooth="yes"/>
      <point x="46" y="71"/>
      <point x="138" y="-12"/>
    </contour>
    <contour>
      <point x="384" y="393" type="line"/>
      <point x="173" y="617" type="line"/>
      <point x="470" y="617" type="line"/>
      <point x="470" y="688" type="line"/>
      <point x="70" y="688" type="line"/>
      <point x="70" y="618" type="line"/>
      <point x="318" y="362" type="line"/>
      <point x="384" y="331" type="line"/>
    </contour>
  </outline>
</glyph>
<glyph name="ezhreversed" format="2">
  <advance width="476"/>
  <unicode hex="01B9"/>
  <anchor x="238" y="-201" name="bottom"/>
  <anchor x="238" y="526" name="top"/>
  <outline>
    <contour>
      <point x="263" y="-211" type="curve" smooth="yes"/>
      <point x="356" y="-211"/>
      <point x="421" y="-180"/>
      <point x="474" y="-122" type="curve"/>
      <point x="426" y="-77" type="line"/>
      <point x="378" y="-122"/>
      <point x="332" y="-142"/>
      <point x="264" y="-142" type="curve" smooth="yes"/>
      <point x="172" y="-142"/>
      <point x="121" y="-89"/>
      <point x="121" y="-4" type="curve" smooth="yes"/>
      <point x="121" y="94"/>
      <point x="168" y="142"/>
      <point x="283" y="142" type="curve" smooth="yes"/>
      <point x="358" y="142" type="line"/>
      <point x="289" y="205" type="line"/>
      <point x="266" y="205" type="line" smooth="yes"/>
      <point x="115" y="205"/>
      <point x="31" y="125"/>
      <point x="31" y="-6" type="curve" smooth="yes"/>
      <point x="31" y="-125"/>
      <point x="124" y="-211"/>
    </contour>
    <contour>
      <point x="358" y="204" type="line"/>
      <point x="153" y="456" type="line"/>
      <point x="445" y="456" type="line"/>
      <point x="445" y="526" type="line"/>
      <point x="55" y="526" type="line"/>
      <point x="55" y="462" type="line"/>
      <point x="297" y="172" type="line"/>
      <point x="358" y="142" type="line"/>
    </contour>
  </outline>
</glyph>
<glyph name="ezhtail" format="2">
  <advance width="467"/>
  <unicode hex="01BA"/>
  <anchor x="233" y="-201" name="bottom"/>
  <anchor x="219" y="526" name="top"/>
  <outline>
    <contour>
      <point x="158" y="-213" type="curve"/>
      <point x="189" y="-158" type="line"/>
      <point x="141" y="-133"/>
      <point x="115" y="-111"/>
      <point x="115" y="-83" type="curve" smooth="yes"/>
      <point x="115" y="-52"/>
      <point x="142" y="-39"/>
      <point x="240" y="-27" type="curve" smooth="yes"/>
      <point x="357" y="-12"/>
      <point x="440" y="34"/>
      <point x="440" y="136" type="curve" smooth="yes"/>
      <point x="440" y="225"/>
      <point x="372" y="272"/>
      <point x="266" y="272" type="curve" smooth="yes"/>
      <point x="204" y="272" type="line"/>
      <point x="411" y="462" type="line"/>
      <point x="411" y="526" type="line"/>
      <point x="26" y="526" type="line"/>
      <point x="26" y="456" type="line"/>
      <point x="308" y="456" type="line"/>
      <point x="112" y="271" type="line"/>
      <point x="112" y="209" type="line"/>
      <point x="262" y="209" type="line" smooth="yes"/>
      <point x="316" y="209"/>
      <point x="350" y="187"/>
      <point x="350" y="137" type="curve" smooth="yes"/>
      <point x="350" y="71"/>
      <point x="300" y="51"/>
      <point x="196" y="39" type="curve" smooth="yes"/>
      <point x="82" y="25"/>
      <point x="29" y="-10"/>
      <point x="29" y="-76" type="curve" smooth="yes"/>
      <point x="29" y="-134"/>
      <point x="73" y="-177"/>
    </contour>
  </outline>
</glyph>
<glyph name="tonefive" format="2">
  <advance width="448"/>
  <unicode hex="01BD"/>
  <anchor x="224" y="0" name="bottom"/>
  <anchor x="224" y="526" name="top"/>
  <outline>
    <contour>
      <point x="377" y="526" type="line"/>
      <point x="68" y="526" type="line"/>
      <point x="68" y="253" type="line"/>
      <point x="128" y="253" type="line"/>
      <point x="161" y="268"/>
      <point x="181" y="275"/>
      <point x="221" y="275" type="curve" smooth="yes"/>
      <point x="274" y="275"/>
      <point x="316" y="246"/>
      <point x="316" y="173" type="curve" smooth="yes"/>
      <point x="316" y="100"/>
      <point x="269" y="61"/>
      <point x="204" y="61" type="curve" smooth="yes"/>
      <point x="147" y="61"/>
      <point x="118" y="77"/>
      <point x="78" y="108" type="curve"/>
      <point x="32" y="58" type="line"/>
      <point x="76" y="16"/>
      <point x="127" y="-12"/>
      <point x="205" y="-12" type="curve" smooth="yes"/>
      <point x="328" y="-12"/>
      <point x="406" y="63"/>
      <point x="406" y="171" type="curve" smooth="yes"/>
      <point x="406" y="277"/>
      <point x="337" y="344"/>
      <point x="244" y="344" type="curve" smooth="yes"/>
      <point x="198" y="344"/>
      <point x="173" y="333"/>
      <point x="152" y="323" type="curve"/>
      <point x="152" y="456" type="line"/>
      <point x="362" y="456" type="line"/>
    </contour>
  </outline>
</glyph>
<glyph name="wynn" format="2">
  <advance width="586"/>
  <unicode hex="01BF"/>
  <anchor x="293" y="-201" name="bottom"/>
  <anchor x="293" y="526" name="top"/>
  <outline>
    <contour>
      <point x="170" y="526" type="line"/>
      <point x="98" y="526" type="line"/>
      <point x="98" y="-211" type="line"/>
      <point x="182" y="-201" type="line"/>
      <point x="182" y="402" type="line"/>
      <point x="178" y="437" type="line"/>
    </contour>
    <contour>
      <point x="169" y="440" type="curve"/>
      <point x="174" y="378" type="line"/>
      <point x="218" y="434"/>
      <point x="269" y="470"/>
      <point x="336" y="470" type="curve" smooth="yes"/>
      <point x="400" y="470"/>
      <point x="437" y="431"/>
      <point x="437" y="353" type="curve" smooth="yes"/>
      <point x="437" y="230"/>
      <point x="370" y="161"/>
      <point x="240" y="91" type="curve" smooth="yes"/>
      <point x="174" y="56" type="line"/>
      <point x="174" y="-14" type="line"/>
      <point x="252" y="26" type="line" smooth="yes"/>
      <point x="415" y="110"/>
      <point x="527" y="191"/>
      <point x="527" y="355" type="curve" smooth="yes"/>
      <point x="527" y="471"/>
      <point x="453" y="538"/>
      <point x="354" y="538" type="curve" smooth="yes"/>
      <point x="267" y="538"/>
      <point x="215" y="497"/>
    </contour>
  </outline>
</glyph>
<glyph name="clickdental" format="2">
  <advance width="284"/>
  <unicode hex="01C0"/>
  <outline>
    <contour>
      <point x="181" y="748" type="line"/>
      <point x="103" y="738" type="line"/>
      <point x="103" y="0" type="line"/>
      <point x="181" y="0" type="line"/>
    </contour>
  </outline>
</glyph>
<glyph name="clickretroflex" format="2">
  <advance width="334"/>
  <unicode hex="01C3"/>
  <outline>
    <contour>
      <point x="206" y="748" type="line"/>
      <point x="127" y="738" type="line"/>
      <point x="127" y="208" type="line"/>
      <point x="206" y="208" type="line"/>
    </contour>
    <contour>
      <point x="167" y="117" type="curve" smooth="yes"/>
      <point x="130" y="117"/>
      <point x="103" y="88"/>
      <point x="103" y="53" type="curve" smooth="yes"/>
      <point x="103" y="17"/>
      <point x="130" y="-12"/>
      <point x="167" y="-12" type="curve" smooth="yes"/>
      <point x="204" y="-12"/>
      <point x="231" y="17"/>
      <point x="231" y="53" type="curve" smooth="yes"/>
      <point x="231" y="88"/>
      <point x="204" y="117"/>
    </contour>
  </outline>
</glyph>
<glyph name="Gstroke" format="2">
  <advance width="639"/>
  <unicode hex="01E4"/>
  <anchor x="319" y="0" name="bottom"/>
  <anchor x="319" y="688" name="top"/>
  <outline>
    <contour>
      <point x="351" y="700" type="curve" smooth="yes"/>
      <point x="199" y="700"/>
      <point x="58" y="578"/>
      <point x="58" y="345" type="curve" smooth="yes"/>
      <point x="58" y="107"/>
      <point x="169" y="-12"/>
      <point x="339" y="-12" type="curve" smooth="yes"/>
      <point x="432" y="-12"/>
      <point x="503" y="11"/>
      <point x="565" y="48" type="curve"/>
      <point x="565" y="379" type="line"/>
      <point x="344" y="379" type="line"/>
      <point x="354" y="308" type="line"/>
      <point x="479" y="308" type="line"/>
      <point x="479" y="93" type="line"/>
      <point x="439" y="70"/>
      <point x="394" y="60"/>
      <point x="345" y="60" type="curve" smooth="yes"/>
      <point x="221" y="60"/>
      <point x="150" y="144"/>
      <point x="150" y="345" type="curve" smooth="yes"/>
      <point x="150" y="551"/>
      <point x="252" y="628"/>
      <point x="353" y="628" type="curve" smooth="yes"/>
      <point x="415" y="628"/>
      <point x="457" y="611"/>
      <point x="505" y="573" type="curve"/>
      <point x="556" y="626" type="line"/>
      <point x="498" y="674"/>
      <point x="442" y="700"/>
    </contour>
    <component base="hyphen" xOffset="292" yOffset="-103"/>
  </outline>
</glyph>
<glyph name="Hwair" format="2">
  <advance width="968"/>
  <unicode hex="01F6"/>
  <anchor x="484" y="0" name="bottom"/>
  <anchor x="484" y="688" name="top"/>
  <outline>
    <contour>
      <point x="103" y="0" type="line"/>
      <point x="189" y="0" type="line"/>
      <point x="189" y="326" type="line"/>
      <point x="488" y="326" type="line"/>
      <point x="488" y="250" type="line"/>
      <point x="575" y="250" type="line"/>
      <point x="575" y="688" type="line"/>
      <point x="488" y="688" type="line"/>
      <point x="488" y="398" type="line"/>
      <point x="189" y="398" type="line"/>
      <point x="189" y="688" type="line"/>
      <point x="103" y="688" type="line"/>
    </contour>
    <contour>
      <point x="668" y="-12" type="curve" smooth="yes"/>
      <point x="779" y="-12"/>
      <point x="895" y="67"/>
      <point x="895" y="256" type="curve" smooth="yes"/>
      <point x="895" y="358"/>
      <point x="885" y="441"/>
      <point x="869" y="526" type="curve"/>
      <point x="784" y="526" type="line"/>
      <point x="802" y="430"/>
      <point x="810" y="340"/>
      <point x="810" y="263" type="curve" smooth="yes"/>
      <point x="810" y="102"/>
      <point x="733" y="56"/>
      <point x="671" y="56" type="curve" smooth="yes"/>
      <point x="611" y="56"/>
      <point x="575" y="92"/>
      <point x="575" y="169" type="curve" smooth="yes"/>
      <point x="575" y="526" type="line"/>
      <point x="488" y="526" type="line"/>
      <point x="488" y="162" type="line" smooth="yes"/>
      <point x="488" y="49"/>
      <point x="571" y="-12"/>
    </contour>
  </outline>
</glyph>
<glyph name="Wynn" format="2">
  <advance width="578"/>
  <unicode hex="01F7"/>
  <anchor x="289" y="0" name="bottom"/>
  <anchor x="289" y="688" name="top"/>
  <outline>
    <contour>
      <point x="170" y="614" type="curve"/>
      <point x="174" y="550" type="line"/>
      <point x="217" y="601"/>
      <point x="271" y="628"/>
      <point x="336" y="628" type="curve" smooth="yes"/>
      <point x="407" y="628"/>
      <point x="451" y="589"/>
      <point x="451" y="512" type="curve" smooth="yes"/>
      <point x="451" y="407"/>
      <point x="373" y="348"/>
      <point x="276" y="310" type="curve" smooth="yes"/>
      <point x="174" y="270" type="line"/>
      <point x="174" y="198" type="line"/>
      <point x="279" y="238" type="line" smooth="yes"/>
      <point x="420" y="292"/>
      <point x="543" y="361"/>
      <point x="543" y="511" type="curve" smooth="yes"/>
      <point x="543" y="633"/>
      <point x="456" y="700"/>
      <point x="352" y="700" type="curve" smooth="yes"/>
      <point x="274" y="700"/>
      <point x="216" y="668"/>
    </contour>
    <contour>
      <point x="189" y="688" type="line"/>
      <point x="103" y="688" type="line"/>
      <point x="103" y="0" type="line"/>
      <point x="189" y="0" type="line"/>
    </contour>
  </outline>
</glyph>
<glyph name="Yogh" format="2">
  <advance width="503"/>
  <unicode hex="021C"/>
  <anchor x="252" y="-201" name="bottom"/>
  <anchor x="252" y="688" name="top"/>
  <outline>
    <contour>
      <point x="228" y="700" type="curve" smooth="yes"/>
      <point x="145" y="700"/>
      <point x="75" y="671"/>
      <point x="13" y="615" type="curve"/>
      <point x="58" y="563" type="line"/>
      <point x="110" y="605"/>
      <point x="162" y="628"/>
      <point x="221" y="628" type="curve" smooth="yes"/>
      <point x="306" y="628"/>
      <point x="343" y="579"/>
      <point x="343" y="513" type="curve" smooth="yes"/>
      <point x="343" y="434"/>
      <point x="289" y="390"/>
      <point x="207" y="390" type="curve" smooth="yes"/>
      <point x="154" y="390" type="line"/>
      <point x="142" y="319" type="line"/>
      <point x="207" y="319" type="line" smooth="yes"/>
      <point x="311" y="319"/>
      <point x="363" y="278"/>
      <point x="363" y="198" type="curve" smooth="yes"/>
      <point x="363" y="100"/>
      <point x="296" y="25"/>
      <point x="59" y="-26" type="curve"/>
      <point x="67" y="-99" type="line"/>
      <point x="345" y="-48"/>
      <point x="456" y="63"/>
      <point x="456" y="197" type="curve" smooth="yes"/>
      <point x="456" y="302"/>
      <point x="383" y="350"/>
      <point x="299" y="359" type="curve"/>
      <point x="379" y="377"/>
      <point x="434" y="427"/>
      <point x="434" y="519" type="curve" smooth="yes"/>
      <point x="434" y="621"/>
      <point x="364" y="700"/>
    </contour>
  </outline>
</glyph>
<glyph name="yogh" format="2">
  <advance width="476"/>
  <unicode hex="021D"/>
  <anchor x="238" y="-201" name="bottom"/>
  <anchor x="238" y="526" name="top"/>
  <outline>
    <contour>
      <point x="204" y="538" type="curve" smooth="yes"/>
      <point x="126" y="538"/>
      <point x="69" y="517"/>
      <point x="17" y="479" type="curve"/>
      <point x="57" y="428" type="line"/>
      <point x="98" y="455"/>
      <point x="135" y="472"/>
      <point x="196" y="472" type="curve" smooth="yes"/>
      <point x="256" y="472"/>
      <point x="303" y="450"/>
      <point x="303" y="388" type="curve" smooth="yes"/>
      <point x="303" y="323"/>
      <point x="249" y="298"/>
      <point x="176" y="298" type="curve" smooth="yes"/>
      <point x="133" y="298" type="line"/>
      <point x="127" y="232" type="line"/>
      <point x="225" y="232" type="line" smooth="yes"/>
      <point x="284" y="232"/>
      <point x="327" y="213"/>
      <point x="327" y="154" type="curve" smooth="yes"/>
      <point x="327" y="70"/>
      <point x="237" y="15"/>
      <point x="55" y="-39" type="curve"/>
      <point x="67" y="-100" type="line"/>
      <point x="291" y="-50"/>
      <point x="418" y="41"/>
      <point x="418" y="157" type="curve" smooth="yes"/>
      <point x="418" y="226"/>
      <point x="367" y="269"/>
      <point x="283" y="271" type="curve"/>
      <point x="356" y="290"/>
      <point x="390" y="326"/>
      <point x="390" y="392" type="curve" smooth="yes"/>
      <point x="390" y="489"/>
      <point x="302" y="538"/>
    </contour>
  </outline>
</glyph>
<glyph name="Nlongrightleg" format="2">
  <advance width="670"/>
  <unicode hex="0220"/>
  <anchor x="335" y="-201" name="bottom"/>
  <anchor x="335" y="688" name="top"/>
  <outline>
    <contour>
      <point x="391" y="700" type="curve" smooth="yes"/>
      <point x="295" y="700"/>
      <point x="229" y="654"/>
      <point x="174" y="590" type="curve"/>
      <point x="189" y="530" type="line"/>
      <point x="244" y="588"/>
      <point x="292" y="628"/>
      <point x="373" y="628" type="curve" smooth="yes"/>
      <point x="453" y="628"/>
      <point x="488" y="581"/>
      <point x="488" y="488" type="curve" smooth="yes"/>
      <point x="488" y="-201" type="line"/>
      <point x="574" y="-201" type="line"/>
      <point x="574" y="505" type="line" smooth="yes"/>
      <point x="574" y="618"/>
      <point x="516" y="700"/>
    </contour>
    <contour>
      <point x="177" y="688" type="line"/>
      <point x="103" y="688" type="line"/>
      <point x="103" y="0" type="line"/>
      <point x="189" y="0" type="line"/>
      <point x="189" y="558" type="line"/>
    </contour>
  </outline>
</glyph>
<glyph name="dcurl" format="2">
  <advance width="728"/>
  <unicode hex="0221"/>
  <anchor x="364" y="-201" name="bottom"/>
  <anchor x="364" y="738" name="top"/>
  <outline>
    <contour>
      <point x="262" y="-12" type="curve" smooth="yes"/>
      <point x="335" y="-12"/>
      <point x="391" y="28"/>
      <point x="423" y="88" type="curve"/>
      <point x="421" y="150" type="line"/>
      <point x="383" y="90"/>
      <point x="345" y="55"/>
      <point x="279" y="55" type="curve" smooth="yes"/>
      <point x="200" y="55"/>
      <point x="154" y="122"/>
      <point x="154" y="262" type="curve" smooth="yes"/>
      <point x="154" y="402"/>
      <point x="206" y="471"/>
      <point x="288" y="471" type="curve" smooth="yes"/>
      <point x="348" y="471"/>
      <point x="388" y="437"/>
      <point x="422" y="387" type="curve"/>
      <point x="423" y="461" type="line"/>
      <point x="388" y="502"/>
      <point x="341" y="538"/>
      <point x="270" y="538" type="curve" smooth="yes"/>
      <point x="141" y="538"/>
      <point x="64" y="422"/>
      <point x="64" y="261" type="curve" smooth="yes"/>
      <point x="64" y="96"/>
      <point x="135" y="-12"/>
    </contour>
    <contour>
      <point x="483" y="-73" type="line"/>
      <point x="523" y="15" type="line"/>
      <point x="538" y="47" type="line"/>
      <point x="576" y="131"/>
      <point x="597" y="157"/>
      <point x="635" y="157" type="curve" smooth="yes"/>
      <point x="661" y="157"/>
      <point x="674" y="143"/>
      <point x="674" y="118" type="curve" smooth="yes"/>
      <point x="674" y="80"/>
      <point x="645" y="60"/>
      <point x="583" y="60" type="curve" smooth="yes"/>
      <point x="516" y="60"/>
      <point x="497" y="77"/>
      <point x="497" y="137" type="curve"/>
      <point x="413" y="146" type="line"/>
      <point x="413" y="26"/>
      <point x="505" y="-12"/>
      <point x="583" y="-12" type="curve" smooth="yes"/>
      <point x="681" y="-12"/>
      <point x="749" y="37"/>
      <point x="749" y="118" type="curve" smooth="yes"/>
      <point x="749" y="178"/>
      <point x="706" y="219"/>
      <point x="642" y="219" type="curve" smooth="yes"/>
      <point x="572" y="219"/>
      <point x="533" y="176"/>
      <point x="501" y="102" type="curve"/>
      <point x="466" y="30" type="line"/>
      <point x="428" y="-49" type="line"/>
    </contour>
    <contour>
      <point x="497" y="137" type="line"/>
      <point x="497" y="738" type="line"/>
      <point x="413" y="748" type="line"/>
      <point x="413" y="146" type="line"/>
    </contour>
  </outline>
</glyph>
<glyph name="OU" format="2">
  <advance width="649"/>
  <unicode hex="0222"/>
  <anchor x="325" y="0" name="bottom"/>
  <anchor x="325" y="688" name="top"/>
  <outline>
    <contour>
      <point x="325" y="409" type="curve"/>
      <point x="154" y="409"/>
      <point x="58" y="323"/>
      <point x="58" y="206" type="curve" smooth="yes"/>
      <point x="58" y="90"/>
      <point x="154" y="-12"/>
      <point x="325" y="-12" type="curve" smooth="yes"/>
      <point x="497" y="-12"/>
      <point x="592" y="94"/>
      <point x="592" y="207" type="curve" smooth="yes"/>
      <point x="592" y="329"/>
      <point x="496" y="409"/>
    </contour>
    <contour>
      <point x="325" y="346" type="curve"/>
      <point x="446" y="346"/>
      <point x="499" y="294"/>
      <point x="499" y="207" type="curve" smooth="yes"/>
      <point x="499" y="111"/>
      <point x="445" y="60"/>
      <point x="325" y="60" type="curve" smooth="yes"/>
      <point x="209" y="60"/>
      <point x="150" y="111"/>
      <point x="150" y="206" type="curve" smooth="yes"/>
      <point x="150" y="294"/>
      <point x="206" y="346"/>
    </contour>
    <contour>
      <point x="549" y="688" type="line"/>
      <point x="462" y="688" type="line"/>
      <point x="462" y="552" type="line" smooth="yes"/>
      <point x="462" y="481"/>
      <point x="428" y="418"/>
      <point x="325" y="418" type="curve" smooth="yes"/>
      <point x="224" y="418"/>
      <point x="190" y="473"/>
      <point x="190" y="552" type="curve" smooth="yes"/>
      <point x="190" y="688" type="line"/>
      <point x="103" y="688" type="line"/>
      <point x="103" y="548" type="line" smooth="yes"/>
      <point x="103" y="440"/>
      <point x="170" y="364"/>
      <point x="325" y="355" type="curve" smooth="yes"/>
      <point x="470" y="364"/>
      <point x="549" y="440"/>
      <point x="549" y="548" type="curve" smooth="yes"/>
    </contour>
  </outline>
</glyph>
<glyph name="ou" format="2">
  <advance width="575"/>
  <unicode hex="0223"/>
  <anchor x="288" y="0" name="bottom"/>
  <anchor x="288" y="738" name="top"/>
  <outline>
    <contour>
      <point x="288" y="423" type="curve"/>
      <point x="143" y="423"/>
      <point x="59" y="342"/>
      <point x="59" y="213" type="curve" smooth="yes"/>
      <point x="59" y="88"/>
      <point x="145" y="-12"/>
      <point x="288" y="-12" type="curve" smooth="yes"/>
      <point x="432" y="-12"/>
      <point x="517" y="92"/>
      <point x="517" y="214" type="curve" smooth="yes"/>
      <point x="517" y="348"/>
      <point x="433" y="423"/>
    </contour>
    <contour>
      <point x="288" y="370" type="curve"/>
      <point x="383" y="370"/>
      <point x="427" y="315"/>
      <point x="427" y="214" type="curve" smooth="yes"/>
      <point x="427" y="106"/>
      <point x="380" y="56"/>
      <point x="288" y="56" type="curve" smooth="yes"/>
      <point x="199" y="56"/>
      <point x="149" y="105"/>
      <point x="149" y="213" type="curve" smooth="yes"/>
      <point x="149" y="314"/>
      <point x="195" y="370"/>
    </contour>
    <contour>
      <point x="481" y="738" type="line"/>
      <point x="397" y="738" type="line"/>
      <point x="397" y="559" type="line" smooth="yes"/>
      <point x="397" y="492"/>
      <point x="365" y="435"/>
      <point x="289" y="435" type="curve"/>
      <point x="213" y="435"/>
      <point x="181" y="481"/>
      <point x="181" y="559" type="curve" smooth="yes"/>
      <point x="181" y="738" type="line"/>
      <point x="97" y="738" type="line"/>
      <point x="97" y="559" type="line" smooth="yes"/>
      <point x="97" y="460"/>
      <point x="159" y="391"/>
      <point x="289" y="381" type="curve"/>
      <point x="408" y="391"/>
      <point x="481" y="459"/>
      <point x="481" y="559" type="curve" smooth="yes"/>
    </contour>
  </outline>
</glyph>
<glyph name="Zhook" format="2">
  <advance width="521"/>
  <unicode hex="0224"/>
  <anchor x="260" y="-201" name="bottom"/>
  <anchor x="260" y="688" name="top"/>
  <outline>
    <contour>
      <point x="475" y="688" type="line"/>
      <point x="68" y="688" type="line"/>
      <point x="68" y="615" type="line"/>
      <point x="381" y="615" type="line"/>
      <point x="31" y="70" type="line"/>
      <point x="31" y="0" type="line"/>
      <point x="468" y="0" type="line"/>
      <point x="468" y="74" type="line"/>
      <point x="128" y="74" type="line"/>
      <point x="475" y="618" type="line"/>
    </contour>
    <contour>
      <point x="323" y="-211" type="curve" smooth="yes"/>
      <point x="411" y="-211"/>
      <point x="468" y="-161"/>
      <point x="468" y="-60" type="curve" smooth="yes"/>
      <point x="468" y="1" type="line"/>
      <point x="384" y="1" type="line"/>
      <point x="384" y="-65" type="line" smooth="yes"/>
      <point x="384" y="-119"/>
      <point x="360" y="-141"/>
      <point x="320" y="-141" type="curve" smooth="yes"/>
      <point x="285" y="-141"/>
      <point x="267" y="-132"/>
      <point x="244" y="-118" type="curve"/>
      <point x="211" y="-174" type="line"/>
      <point x="235" y="-193"/>
      <point x="272" y="-211"/>
    </contour>
  </outline>
</glyph>
<glyph name="zhook" format="2">
  <advance width="431"/>
  <unicode hex="0225"/>
  <anchor x="215" y="-201" name="bottom"/>
  <anchor x="215" y="526" name="top"/>
  <outline>
    <contour>
      <point x="400" y="526" type="line"/>
      <point x="49" y="526" type="line"/>
      <point x="49" y="455" type="line"/>
      <point x="304" y="455" type="line"/>
      <point x="26" y="63" type="line"/>
      <point x="26" y="0" type="line"/>
      <point x="397" y="0" type="line"/>
      <point x="397" y="71" type="line"/>
      <point x="121" y="71" type="line"/>
      <point x="400" y="462" type="line"/>
    </contour>
    <contour>
      <point x="253" y="-211" type="curve" smooth="yes"/>
      <point x="340" y="-211"/>
      <point x="397" y="-160"/>
      <point x="397" y="-60" type="curve" smooth="yes"/>
      <point x="397" y="1" type="line"/>
      <point x="316" y="1" type="line"/>
      <point x="316" y="-67" type="line" smooth="yes"/>
      <point x="316" y="-122"/>
      <point x="290" y="-143"/>
      <point x="248" y="-143" type="curve" smooth="yes"/>
      <point x="215" y="-143"/>
      <point x="196" y="-134"/>
      <point x="174" y="-121" type="curve"/>
      <point x="141" y="-174" type="line"/>
      <point x="165" y="-193"/>
      <point x="201" y="-211"/>
    </contour>
  </outline>
</glyph>
<glyph name="lcurl" format="2">
  <advance width="407"/>
  <unicode hex="0234"/>
  <anchor x="203" y="-201" name="bottom"/>
  <anchor x="203" y="738" name="top"/>
  <outline>
    <contour>
      <point x="93" y="146" type="line"/>
      <point x="177" y="137" type="line"/>
      <point x="177" y="748" type="line"/>
      <point x="93" y="738" type="line"/>
    </contour>
    <contour>
      <point x="162" y="-73" type="line"/>
      <point x="202" y="15" type="line"/>
      <point x="218" y="47" type="line"/>
      <point x="255" y="131"/>
      <point x="276" y="157"/>
      <point x="314" y="157" type="curve" smooth="yes"/>
      <point x="340" y="157"/>
      <point x="354" y="143"/>
      <point x="354" y="118" type="curve" smooth="yes"/>
      <point x="354" y="80"/>
      <point x="324" y="60"/>
      <point x="262" y="60" type="curve" smooth="yes"/>
      <point x="196" y="60"/>
      <point x="177" y="77"/>
      <point x="177" y="137" type="curve"/>
      <point x="93" y="146" type="line"/>
      <point x="93" y="26"/>
      <point x="185" y="-12"/>
      <point x="262" y="-12" type="curve" smooth="yes"/>
      <point x="360" y="-12"/>
      <point x="428" y="37"/>
      <point x="428" y="118" type="curve" smooth="yes"/>
      <point x="428" y="178"/>
      <point x="385" y="219"/>
      <point x="321" y="219" type="curve" smooth="yes"/>
      <point x="251" y="219"/>
      <point x="212" y="176"/>
      <point x="180" y="102" type="curve"/>
      <point x="145" y="30" type="line"/>
      <point x="107" y="-49" type="line"/>
    </contour>
  </outline>
</glyph>
<glyph name="ncurl" format="2">
  <advance width="723"/>
  <unicode hex="0235"/>
  <anchor x="362" y="-201" name="bottom"/>
  <anchor x="362" y="526" name="top"/>
  <outline>
    <contour>
      <point x="342" y="538" type="curve" smooth="yes"/>
      <point x="264" y="538"/>
      <point x="204" y="493"/>
      <point x="166" y="429" type="curve"/>
      <point x="182" y="375" type="line"/>
      <point x="218" y="433"/>
      <point x="260" y="472"/>
      <point x="322" y="472" type="curve" smooth="yes"/>
      <point x="376" y="472"/>
      <point x="409" y="446"/>
      <point x="409" y="365" type="curve" smooth="yes"/>
      <point x="409" y="146" type="line"/>
      <point x="493" y="137" type="line"/>
      <point x="493" y="377" type="line" smooth="yes"/>
      <point x="493" y="477"/>
      <point x="438" y="538"/>
    </contour>
    <contour>
      <point x="170" y="526" type="line"/>
      <point x="98" y="526" type="line"/>
      <point x="98" y="0" type="line"/>
      <point x="182" y="0" type="line"/>
      <point x="182" y="397" type="line"/>
    </contour>
    <contour>
      <point x="479" y="-73" type="line"/>
      <point x="519" y="15" type="line"/>
      <point x="534" y="47" type="line"/>
      <point x="571" y="131"/>
      <point x="593" y="157"/>
      <point x="631" y="157" type="curve" smooth="yes"/>
      <point x="656" y="157"/>
      <point x="670" y="143"/>
      <point x="670" y="118" type="curve" smooth="yes"/>
      <point x="670" y="80"/>
      <point x="641" y="60"/>
      <point x="579" y="60" type="curve" smooth="yes"/>
      <point x="512" y="60"/>
      <point x="493" y="77"/>
      <point x="493" y="137" type="curve"/>
      <point x="409" y="146" type="line"/>
      <point x="409" y="26"/>
      <point x="501" y="-12"/>
      <point x="579" y="-12" type="curve" smooth="yes"/>
      <point x="676" y="-12"/>
      <point x="744" y="37"/>
      <point x="744" y="118" type="curve" smooth="yes"/>
      <point x="744" y="178"/>
      <point x="701" y="219"/>
      <point x="637" y="219" type="curve" smooth="yes"/>
      <point x="568" y="219"/>
      <point x="529" y="176"/>
      <point x="497" y="102" type="curve"/>
      <point x="462" y="30" type="line"/>
      <point x="424" y="-49" type="line"/>
    </contour>
  </outline>
</glyph>
<glyph name="tcurl" format="2">
  <advance width="416"/>
  <unicode hex="0236"/>
  <anchor x="208" y="-201" name="bottom"/>
  <anchor x="144" y="647" name="top"/>
  <outline>
    <contour>
      <point x="186" y="656" type="line"/>
      <point x="102" y="647" type="line"/>
      <point x="102" y="146" type="line"/>
      <point x="186" y="137" type="line"/>
    </contour>
    <contour>
      <point x="313" y="526" type="line"/>
      <point x="11" y="526" type="line"/>
      <point x="11" y="461" type="line"/>
      <point x="304" y="461" type="line"/>
    </contour>
    <contour>
      <point x="172" y="-73" type="line"/>
      <point x="212" y="15" type="line"/>
      <point x="227" y="47" type="line"/>
      <point x="265" y="131"/>
      <point x="286" y="157"/>
      <point x="324" y="157" type="curve" smooth="yes"/>
      <point x="350" y="157"/>
      <point x="363" y="143"/>
      <point x="363" y="118" type="curve" smooth="yes"/>
      <point x="363" y="80"/>
      <point x="334" y="60"/>
      <point x="272" y="60" type="curve" smooth="yes"/>
      <point x="205" y="60"/>
      <point x="186" y="77"/>
      <point x="186" y="137" type="curve"/>
      <point x="102" y="146" type="line"/>
      <point x="102" y="17"/>
      <point x="194" y="-12"/>
      <point x="272" y="-12" type="curve" smooth="yes"/>
      <point x="369" y="-12"/>
      <point x="438" y="37"/>
      <point x="438" y="118" type="curve" smooth="yes"/>
      <point x="438" y="178"/>
      <point x="395" y="219"/>
      <point x="331" y="219" type="curve" smooth="yes"/>
      <point x="261" y="219"/>
      <point x="222" y="176"/>
      <point x="190" y="102" type="curve"/>
      <point x="155" y="30" type="line"/>
      <point x="117" y="-49" type="line"/>
    </contour>
  </outline>
</glyph>
<glyph name="dotlessj" format="2">
  <advance width="278"/>
  <unicode hex="0237"/>
  <anchor x="138" y="-201" name="bottom"/>
  <anchor x="139" y="526" name="top"/>
  <outline>
    <contour>
      <point x="180" y="526" type="line"/>
      <point x="96" y="526" type="line"/>
      <point x="96" y="24" type="line" smooth="yes"/>
      <point x="96" y="-90"/>
      <point x="64" y="-116"/>
      <point x="-5" y="-149" type="curve"/>
      <point x="19" y="-210" type="line"/>
      <point x="127" y="-161"/>
      <point x="180" y="-118"/>
      <point x="180" y="29" type="curve" smooth="yes"/>
    </contour>
  </outline>
</glyph>
<glyph name="dbdigraph" format="2">
  <advance width="867"/>
  <unicode hex="0238"/>
  <anchor x="433" y="0" name="bottom"/>
  <anchor x="433" y="738" name="top"/>
  <outline>
    <contour>
      <point x="252" y="-12" type="curve" smooth="yes"/>
      <point x="315" y="-12"/>
      <point x="371" y="28"/>
      <point x="403" y="89" type="curve"/>
      <point x="401" y="150" type="line"/>
      <point x="363" y="90"/>
      <point x="325" y="55"/>
      <point x="269" y="55" type="curve" smooth="yes"/>
      <point x="200" y="55"/>
      <point x="154" y="122"/>
      <point x="154" y="262" type="curve" smooth="yes"/>
      <point x="154" y="402"/>
      <point x="204" y="471"/>
      <point x="274" y="471" type="curve" smooth="yes"/>
      <point x="326" y="471"/>
      <point x="366" y="437"/>
      <point x="402" y="378" type="curve"/>
      <point x="403" y="446" type="line"/>
      <point x="368" y="503"/>
      <point x="318" y="538"/>
      <point x="259" y="538" type="curve" smooth="yes"/>
      <point x="140" y="538"/>
      <point x="64" y="422"/>
      <point x="64" y="261" type="curve" smooth="yes"/>
      <point x="64" y="96"/>
      <point x="135" y="-12"/>
    </contour>
    <contour>
      <point x="404" y="0" type="line"/>
      <point x="467" y="0" type="line"/>
      <point x="477" y="82" type="line"/>
      <point x="477" y="748" type="line"/>
      <point x="393" y="738" type="line"/>
      <point x="393" y="90" type="line"/>
    </contour>
    <contour>
      <point x="608" y="-12" type="curve" smooth="yes"/>
      <point x="726" y="-12"/>
      <point x="803" y="98"/>
      <point x="803" y="264" type="curve" smooth="yes"/>
      <point x="803" y="439"/>
      <point x="729" y="538"/>
      <point x="620" y="538" type="curve" smooth="yes"/>
      <point x="551" y="538"/>
      <point x="505" y="502"/>
      <point x="468" y="444" type="curve"/>
      <point x="470" y="379" type="line"/>
      <point x="499" y="423"/>
      <point x="535" y="471"/>
      <point x="599" y="471" type="curve" smooth="yes"/>
      <point x="667" y="471"/>
      <point x="713" y="415"/>
      <point x="713" y="264" type="curve" smooth="yes"/>
      <point x="713" y="118"/>
      <point x="659" y="55"/>
      <point x="595" y="55" type="curve" smooth="yes"/>
      <point x="534" y="55"/>
      <point x="507" y="93"/>
      <point x="474" y="151" type="curve"/>
      <point x="469" y="86" type="line"/>
      <point x="497" y="32"/>
      <point x="543" y="-12"/>
    </contour>
  </outline>
</glyph>
<glyph name="qpdigraph" format="2">
  <advance width="862"/>
  <unicode hex="0239"/>
  <anchor x="431" y="-201" name="bottom"/>
  <anchor x="431" y="526" name="top"/>
  <outline>
    <contour>
      <point x="260" y="538" type="curve" smooth="yes"/>
      <point x="136" y="538"/>
      <point x="59" y="422"/>
      <point x="59" y="261" type="curve" smooth="yes"/>
      <point x="59" y="96"/>
      <point x="130" y="-12"/>
      <point x="247" y="-12" type="curve" smooth="yes"/>
      <point x="310" y="-12"/>
      <point x="366" y="28"/>
      <point x="399" y="88" type="curve"/>
      <point x="396" y="150" type="line"/>
      <point x="358" y="90"/>
      <point x="320" y="55"/>
      <point x="265" y="55" type="curve" smooth="yes"/>
      <point x="195" y="55"/>
      <point x="149" y="122"/>
      <point x="149" y="262" type="curve" smooth="yes"/>
      <point x="149" y="402"/>
      <point x="201" y="471"/>
      <point x="270" y="471" type="curve" smooth="yes"/>
      <point x="323" y="471"/>
      <point x="363" y="436"/>
      <point x="397" y="369" type="curve"/>
      <point x="404" y="439" type="line"/>
      <point x="372" y="502"/>
      <point x="319" y="538"/>
    </contour>
    <contour>
      <point x="461" y="526" type="line"/>
      <point x="400" y="526" type="line"/>
      <point x="389" y="411" type="line"/>
      <point x="388" y="406" type="line"/>
      <point x="388" y="-211" type="line"/>
      <point x="472" y="-201" type="line"/>
      <point x="472" y="406" type="line"/>
      <point x="469" y="438" type="line"/>
    </contour>
    <contour>
      <point x="615" y="538" type="curve" smooth="yes"/>
      <point x="553" y="538"/>
      <point x="496" y="502"/>
      <point x="458" y="439" type="curve"/>
      <point x="465" y="374" type="line"/>
      <point x="494" y="423"/>
      <point x="537" y="471"/>
      <point x="596" y="471" type="curve" smooth="yes"/>
      <point x="666" y="471"/>
      <point x="708" y="404"/>
      <point x="708" y="264" type="curve" smooth="yes"/>
      <point x="708" y="123"/>
      <point x="660" y="57"/>
      <point x="584" y="57" type="curve" smooth="yes"/>
      <point x="537" y="57"/>
      <point x="495" y="88"/>
      <point x="466" y="151" type="curve"/>
      <point x="457" y="91" type="line"/>
      <point x="499" y="15"/>
      <point x="548" y="-12"/>
      <point x="603" y="-12" type="curve" smooth="yes"/>
      <point x="728" y="-12"/>
      <point x="798" y="103"/>
      <point x="798" y="264" type="curve" smooth="yes"/>
      <point x="798" y="431"/>
      <point x="740" y="538"/>
    </contour>
  </outline>
</glyph>
<glyph name="Astroke" format="2">
  <advance width="571"/>
  <unicode hex="023A"/>
  <anchor x="286" y="0" name="bottom"/>
  <anchor x="286" y="688" name="top"/>
  <outline>
    <contour>
      <point x="384" y="749" type="line"/>
      <point x="169" y="-60" type="line"/>
      <point x="212" y="-70" type="line"/>
      <point x="426" y="738" type="line"/>
    </contour>
    <contour>
      <point x="341" y="688" type="line"/>
      <point x="231" y="688" type="line"/>
      <point x="8" y="0" type="line"/>
      <point x="93" y="0" type="line"/>
      <point x="284" y="625" type="line"/>
      <point x="474" y="0" type="line"/>
      <point x="563" y="0" type="line"/>
    </contour>
    <contour>
      <point x="410" y="245" type="line"/>
      <point x="157" y="245" type="line"/>
      <point x="136" y="176" type="line"/>
      <point x="432" y="176" type="line"/>
    </contour>
  </outline>
</glyph>
<glyph name="cstroke" format="2">
  <advance width="476"/>
  <unicode hex="023C"/>
  <anchor x="288" y="526" name="top"/>
  <anchor x="284" y="0" name="bottom"/>
  <outline>
    <contour>
      <point x="343" y="594" type="line"/>
      <point x="164" y="-60" type="line"/>
      <point x="205" y="-70" type="line"/>
      <point x="384" y="584" type="line"/>
    </contour>
    <component base="c"/>
  </outline>
</glyph>
<glyph name="Tdiagonalstroke" format="2">
  <advance width="512"/>
  <unicode hex="023E"/>
  <anchor x="256" y="0" name="bottom"/>
  <anchor x="256" y="688" name="top"/>
  <outline>
    <contour>
      <point x="213" y="0" type="line"/>
      <point x="298" y="0" type="line"/>
      <point x="298" y="614" type="line"/>
      <point x="492" y="614" type="line"/>
      <point x="502" y="688" type="line"/>
      <point x="15" y="688" type="line"/>
      <point x="15" y="614" type="line"/>
      <point x="213" y="614" type="line"/>
    </contour>
    <contour>
      <point x="133" y="-70" type="line"/>
      <point x="436" y="738" type="line"/>
      <point x="395" y="754" type="line"/>
      <point x="92" y="-54" type="line"/>
    </contour>
  </outline>
</glyph>
<glyph name="sswashtail" format="2">
  <advance width="469"/>
  <unicode hex="023F"/>
  <anchor x="234" y="-201" name="bottom"/>
  <anchor x="234" y="526" name="top"/>
  <outline>
    <contour>
      <point x="240" y="-12" type="curve" smooth="yes"/>
      <point x="326" y="-12"/>
      <point x="428" y="39"/>
      <point x="428" y="146" type="curve" smooth="yes"/>
      <point x="428" y="238"/>
      <point x="366" y="280"/>
      <point x="255" y="309" type="curve" smooth="yes"/>
      <point x="168" y="332"/>
      <point x="138" y="352"/>
      <point x="138" y="397" type="curve" smooth="yes"/>
      <point x="138" y="442"/>
      <point x="178" y="471"/>
      <point x="240" y="471" type="curve" smooth="yes"/>
      <point x="290" y="471"/>
      <point x="330" y="456"/>
      <point x="377" y="425" type="curve"/>
      <point x="413" y="478" type="line"/>
      <point x="363" y="516"/>
      <point x="309" y="538"/>
      <point x="237" y="538" type="curve" smooth="yes"/>
      <point x="130" y="538"/>
      <point x="51" y="478"/>
      <point x="51" y="396" type="curve" smooth="yes"/>
      <point x="51" y="321"/>
      <point x="96" y="274"/>
      <point x="209" y="244" type="curve" smooth="yes"/>
      <point x="313" y="216"/>
      <point x="340" y="196"/>
      <point x="340" y="138" type="curve" smooth="yes"/>
      <point x="340" y="84"/>
      <point x="295" y="56"/>
      <point x="227" y="56" type="curve" smooth="yes"/>
      <point x="164" y="56"/>
      <point x="117" y="76"/>
      <point x="67" y="108" type="curve"/>
      <point x="33" y="57" type="line"/>
      <point x="109" y="16"/>
      <point x="190" y="-12"/>
    </contour>
    <contour>
      <point x="337" y="-211" type="curve" smooth="yes"/>
      <point x="381" y="-211"/>
      <point x="410" y="-198"/>
      <point x="431" y="-182" type="curve"/>
      <point x="402" y="-127" type="line"/>
      <point x="385" y="-136"/>
      <point x="369" y="-142"/>
      <point x="344" y="-142" type="curve" smooth="yes"/>
      <point x="258" y="-142"/>
      <point x="272" y="-13"/>
      <point x="103" y="52" type="curve"/>
      <point x="33" y="57" type="line"/>
      <point x="209" y="-45"/>
      <point x="205" y="-211"/>
    </contour>
  </outline>
</glyph>
<glyph name="zswashtail" format="2">
  <advance width="406"/>
  <unicode hex="0240"/>
  <anchor x="203" y="-201" name="bottom"/>
  <anchor x="203" y="526" name="top"/>
  <outline>
    <contour>
      <point x="357" y="-211" type="curve" smooth="yes"/>
      <point x="401" y="-211"/>
      <point x="430" y="-198"/>
      <point x="451" y="-182" type="curve"/>
      <point x="422" y="-127" type="line"/>
      <point x="405" y="-136"/>
      <point x="389" y="-142"/>
      <point x="364" y="-142" type="curve" smooth="yes"/>
      <point x="268" y="-142"/>
      <point x="265" y="13"/>
      <point x="107" y="52" type="curve"/>
      <point x="400" y="462" type="line"/>
      <point x="400" y="526" type="line"/>
      <point x="49" y="526" type="line"/>
      <point x="49" y="455" type="line"/>
      <point x="304" y="455" type="line"/>
      <point x="26" y="63" type="line"/>
      <point x="26" y="0" type="line"/>
      <point x="226" y="-22"/>
      <point x="205" y="-211"/>
    </contour>
  </outline>
</glyph>
<glyph name="glottalstopsmall" format="2">
  <advance width="438"/>
  <unicode hex="0242"/>
  <anchor x="219" y="0" name="bottom"/>
  <anchor x="219" y="526" name="top"/>
  <outline>
    <contour>
      <point x="122" y="0" type="line"/>
      <point x="206" y="0" type="line"/>
      <point x="206" y="152" type="line"/>
      <point x="233" y="158" type="line" smooth="yes"/>
      <point x="316" y="178"/>
      <point x="397" y="229"/>
      <point x="397" y="348" type="curve" smooth="yes"/>
      <point x="397" y="453"/>
      <point x="318" y="538"/>
      <point x="193" y="538" type="curve" smooth="yes"/>
      <point x="109" y="538"/>
      <point x="57" y="510"/>
      <point x="6" y="464" type="curve"/>
      <point x="52" y="413" type="line"/>
      <point x="92" y="444"/>
      <point x="128" y="466"/>
      <point x="190" y="466" type="curve" smooth="yes"/>
      <point x="264" y="466"/>
      <point x="306" y="414"/>
      <point x="306" y="346" type="curve" smooth="yes"/>
      <point x="306" y="270"/>
      <point x="262" y="231"/>
      <point x="194" y="213" type="curve" smooth="yes"/>
      <point x="122" y="194" type="line"/>
    </contour>
  </outline>
</glyph>
